M48
; DRILL file {KiCad (5.1.9-0-10_14)} date Wednesday, May 12, 2021 at 11:55:04 PM
; FORMAT={-:-/ absolute / inch / decimal}
; #@! TF.CreationDate,2021-05-12T23:55:04+10:00
; #@! TF.GenerationSoftware,Kicad,Pcbnew,(5.1.9-0-10_14)
FMAT,2
INCH
T1C0.0157
T2C0.0315
T3C0.0335
T4C0.0394
T5C0.0400
T6C0.0512
%
G90
G05
T1
X3.84Y-5.46
X3.84Y-5.71
X3.9Y-5.71
X3.93Y-4.82
X3.94Y-5.615
X3.96Y-5.71
X3.97Y-5.49
X4.07Y-5.87
X4.07Y-5.91
X4.12Y-5.87
X4.12Y-5.91
X4.25Y-5.62
X4.28Y-5.73
X4.28Y-5.79
X4.33Y-4.845
X4.33Y-5.62
X4.35Y-5.73
X4.35Y-5.79
X4.405Y-3.965
X4.705Y-5.42
X4.705Y-5.575
X5.2Y-5.325
X5.2375Y-5.7175
X5.2875Y-5.5915
X5.4525Y-5.66
X5.4775Y-5.7475
X5.62Y-5.37
X5.8725Y-5.7875
X5.9625Y-5.88
X6.0375Y-5.755
X6.045Y-5.694
X6.185Y-5.6175
X6.67Y-5.36
X6.67Y-5.54
T2
X4.45Y-2.79
X4.45Y-3.29
X4.4508Y-2.6588
X4.4508Y-3.1588
X4.55Y-2.79
X4.55Y-3.29
X4.5508Y-2.6588
X4.5508Y-3.1588
X4.65Y-2.79
X4.65Y-3.29
X4.6508Y-2.6588
X4.6508Y-3.1588
X4.75Y-2.79
X4.75Y-3.29
X4.7508Y-2.6588
X4.7508Y-3.1588
X4.85Y-2.79
X4.85Y-3.29
X4.8508Y-2.6588
X4.8508Y-3.1588
X4.95Y-2.79
X4.95Y-3.29
X4.9508Y-2.6588
X4.9508Y-3.1588
X5.05Y-2.79
X5.05Y-3.29
X5.0508Y-2.6588
X5.0508Y-3.1588
X5.15Y-2.79
X5.15Y-3.29
X5.1508Y-2.6588
X5.1508Y-3.1588
X6.925Y-5.32
X6.925Y-5.62
X7.025Y-5.32
X7.025Y-5.62
X7.125Y-5.32
X7.125Y-5.62
X7.225Y-5.32
X7.225Y-5.62
T3
X5.1909Y-5.39
X5.1909Y-5.77
X5.3091Y-5.39
X5.3091Y-5.77
T4
X6.315Y-5.205
X6.315Y-5.305
X6.315Y-5.595
X6.315Y-5.695
X6.46Y-5.205
X6.46Y-5.305
X6.46Y-5.405
X6.46Y-5.595
X6.46Y-5.695
X6.46Y-5.795
T5
X4.48Y-3.89
X4.48Y-3.99
X4.48Y-4.09
X4.48Y-4.19
X4.48Y-4.29
X4.48Y-4.39
X4.48Y-4.49
X4.48Y-4.59
X4.48Y-4.69
X4.48Y-4.79
X4.48Y-4.89
X4.48Y-4.99
X4.48Y-5.09
X4.48Y-5.19
X4.48Y-5.29
X4.48Y-5.39
X4.48Y-5.49
X4.48Y-5.59
X4.48Y-5.69
X4.48Y-5.79
X4.58Y-3.89
X4.58Y-3.99
X4.58Y-4.09
X4.58Y-4.19
X4.58Y-4.29
X4.58Y-4.39
X4.58Y-4.49
X4.58Y-4.59
X4.58Y-4.69
X4.58Y-4.79
X4.58Y-4.89
X4.58Y-4.99
X4.58Y-5.09
X4.58Y-5.19
X4.58Y-5.29
X4.58Y-5.39
X4.58Y-5.49
X4.58Y-5.59
X4.58Y-5.69
X4.58Y-5.79
T6
X3.8453Y-3.7741
X3.8453Y-3.9774
X3.8453Y-4.1408
X3.8453Y-4.2719
X3.8453Y-4.403
X3.8453Y-4.5341
X3.8453Y-4.6652
X3.8453Y-4.7963
X3.8453Y-4.9274
X3.8453Y-5.0585
X3.8453Y-5.1896
X3.8453Y-5.353
X3.8453Y-5.5564
X4.0106Y-3.7741
X4.0106Y-3.9774
X4.0106Y-4.1408
X4.0106Y-4.2719
X4.0106Y-4.403
X4.0106Y-4.5341
X4.0106Y-4.6652
X4.0106Y-4.7963
X4.0106Y-4.9274
X4.0106Y-5.0585
X4.0106Y-5.1896
X4.0106Y-5.353
X4.0106Y-5.5564
X4.176Y-3.7741
X4.176Y-3.9774
X4.176Y-4.1408
X4.176Y-4.2719
X4.176Y-4.403
X4.176Y-4.5341
X4.176Y-4.6652
X4.176Y-4.7963
X4.176Y-4.9274
X4.176Y-5.0585
X4.176Y-5.1896
X4.176Y-5.353
X4.176Y-5.5564
T0
M30
