G04 #@! TF.GenerationSoftware,KiCad,Pcbnew,(5.1.9-0-10_14)*
G04 #@! TF.CreationDate,2021-05-12T23:54:49+10:00*
G04 #@! TF.ProjectId,Shield,53686965-6c64-42e6-9b69-6361645f7063,rev?*
G04 #@! TF.SameCoordinates,Original*
G04 #@! TF.FileFunction,Copper,L2,Bot*
G04 #@! TF.FilePolarity,Positive*
%FSLAX46Y46*%
G04 Gerber Fmt 4.6, Leading zero omitted, Abs format (unit mm)*
G04 Created by KiCad (PCBNEW (5.1.9-0-10_14)) date 2021-05-12 23:54:49*
%MOMM*%
%LPD*%
G01*
G04 APERTURE LIST*
G04 #@! TA.AperFunction,ComponentPad*
%ADD10C,2.000000*%
G04 #@! TD*
G04 #@! TA.AperFunction,ComponentPad*
%ADD11R,1.600000X1.600000*%
G04 #@! TD*
G04 #@! TA.AperFunction,ComponentPad*
%ADD12O,1.600000X1.600000*%
G04 #@! TD*
G04 #@! TA.AperFunction,ComponentPad*
%ADD13R,1.727200X1.727200*%
G04 #@! TD*
G04 #@! TA.AperFunction,ComponentPad*
%ADD14O,1.727200X1.727200*%
G04 #@! TD*
G04 #@! TA.AperFunction,ComponentPad*
%ADD15R,1.700000X1.700000*%
G04 #@! TD*
G04 #@! TA.AperFunction,ComponentPad*
%ADD16O,1.700000X1.700000*%
G04 #@! TD*
G04 #@! TA.AperFunction,ComponentPad*
%ADD17C,1.381000*%
G04 #@! TD*
G04 #@! TA.AperFunction,ViaPad*
%ADD18C,0.800000*%
G04 #@! TD*
G04 #@! TA.AperFunction,Conductor*
%ADD19C,1.300000*%
G04 #@! TD*
G04 #@! TA.AperFunction,Conductor*
%ADD20C,0.350000*%
G04 #@! TD*
G04 #@! TA.AperFunction,Conductor*
%ADD21C,0.400000*%
G04 #@! TD*
G04 #@! TA.AperFunction,Conductor*
%ADD22C,0.700000*%
G04 #@! TD*
G04 #@! TA.AperFunction,Conductor*
%ADD23C,0.250000*%
G04 #@! TD*
G04 #@! TA.AperFunction,Conductor*
%ADD24C,0.254000*%
G04 #@! TD*
G04 #@! TA.AperFunction,Conductor*
%ADD25C,0.100000*%
G04 #@! TD*
G04 APERTURE END LIST*
D10*
X97670000Y-118497000D03*
X97670000Y-121827000D03*
X97670000Y-125157000D03*
X97670000Y-128487000D03*
X97670000Y-131817000D03*
X97670000Y-101027000D03*
X101870000Y-101027000D03*
X101870000Y-131817000D03*
X101870000Y-128487000D03*
X101870000Y-125157000D03*
X101870000Y-121827000D03*
X101870000Y-118497000D03*
X106070000Y-118497000D03*
X106070000Y-121827000D03*
X106070000Y-101027000D03*
X106070000Y-131817000D03*
X106070000Y-125157000D03*
X106070000Y-128487000D03*
X101870000Y-141133000D03*
X101870000Y-95861000D03*
X106070000Y-141133000D03*
X106070000Y-95861000D03*
X97670000Y-141133000D03*
X97670000Y-95861000D03*
X101870000Y-135967000D03*
X106070000Y-135967000D03*
X97670000Y-135967000D03*
X101870000Y-115167000D03*
X101870000Y-111837000D03*
X101870000Y-108507000D03*
X101870000Y-105177000D03*
X106070000Y-105177000D03*
X106070000Y-108507000D03*
X106070000Y-111837000D03*
X106070000Y-115167000D03*
X97670000Y-105177000D03*
X97670000Y-108507000D03*
X97670000Y-111837000D03*
X97670000Y-115167000D03*
D11*
X113030000Y-83566000D03*
D12*
X130810000Y-70866000D03*
X115570000Y-83566000D03*
X128270000Y-70866000D03*
X118110000Y-83566000D03*
X125730000Y-70866000D03*
X120650000Y-83566000D03*
X123190000Y-70866000D03*
X123190000Y-83566000D03*
X120650000Y-70866000D03*
X125730000Y-83566000D03*
X118110000Y-70866000D03*
X128270000Y-83566000D03*
X115570000Y-70866000D03*
X130810000Y-83566000D03*
X113030000Y-70866000D03*
D13*
X113792000Y-98806000D03*
D14*
X116332000Y-98806000D03*
X113792000Y-101346000D03*
X116332000Y-101346000D03*
X113792000Y-103886000D03*
X116332000Y-103886000D03*
X113792000Y-106426000D03*
X116332000Y-106426000D03*
X113792000Y-108966000D03*
X116332000Y-108966000D03*
X113792000Y-111506000D03*
X116332000Y-111506000D03*
X113792000Y-114046000D03*
X116332000Y-114046000D03*
X113792000Y-116586000D03*
X116332000Y-116586000D03*
X113792000Y-119126000D03*
X116332000Y-119126000D03*
X113792000Y-121666000D03*
X116332000Y-121666000D03*
X113792000Y-124206000D03*
X116332000Y-124206000D03*
X113792000Y-126746000D03*
X116332000Y-126746000D03*
X113792000Y-129286000D03*
X116332000Y-129286000D03*
X113792000Y-131826000D03*
X116332000Y-131826000D03*
X113792000Y-134366000D03*
X116332000Y-134366000D03*
X113792000Y-136906000D03*
X116332000Y-136906000D03*
X113792000Y-139446000D03*
X116332000Y-139446000D03*
X113792000Y-141986000D03*
X116332000Y-141986000D03*
X113792000Y-144526000D03*
X116332000Y-144526000D03*
X113792000Y-147066000D03*
X116332000Y-147066000D03*
D15*
X164084000Y-132207000D03*
D16*
X164084000Y-134747000D03*
X164084000Y-137287000D03*
X164084000Y-147193000D03*
X164084000Y-144653000D03*
D15*
X164084000Y-142113000D03*
X160401000Y-132207000D03*
D16*
X160401000Y-134747000D03*
X160401000Y-144653000D03*
D15*
X160401000Y-142113000D03*
D17*
X134850000Y-146558000D03*
X131850000Y-146558000D03*
X131850000Y-136906000D03*
X134850000Y-136906000D03*
D11*
X175895000Y-142748000D03*
D12*
X183515000Y-135128000D03*
X178435000Y-142748000D03*
X180975000Y-135128000D03*
X180975000Y-142748000D03*
X178435000Y-135128000D03*
X183515000Y-142748000D03*
X175895000Y-135128000D03*
D11*
X113051001Y-80232999D03*
D12*
X130831001Y-67532999D03*
X115591001Y-80232999D03*
X128291001Y-67532999D03*
X118131001Y-80232999D03*
X125751001Y-67532999D03*
X120671001Y-80232999D03*
X123211001Y-67532999D03*
X123211001Y-80232999D03*
X120671001Y-67532999D03*
X125751001Y-80232999D03*
X118131001Y-67532999D03*
X128291001Y-80232999D03*
X115591001Y-67532999D03*
X130831001Y-80232999D03*
X113051001Y-67532999D03*
D18*
X111887000Y-100711034D03*
X151447500Y-149352000D03*
X149161500Y-147002500D03*
X142748000Y-136398000D03*
X97536000Y-138684000D03*
X169418000Y-136144000D03*
X169418000Y-140716000D03*
X99822000Y-122428000D03*
X109982000Y-123063000D03*
X119507000Y-137668000D03*
X119507000Y-141605000D03*
X99060000Y-145034000D03*
X97536000Y-145034000D03*
X100584000Y-145034000D03*
X103378000Y-149098000D03*
X104648000Y-149098000D03*
X104648000Y-150114000D03*
X103378000Y-150114000D03*
X108712000Y-145542000D03*
X110490000Y-145542000D03*
X110490000Y-147066000D03*
X108712000Y-147066000D03*
X107950000Y-142748000D03*
X109982000Y-142748000D03*
X100838000Y-139446000D03*
X153352500Y-146177000D03*
X134302500Y-142022990D03*
X153543000Y-144626500D03*
X157099000Y-142684500D03*
X139128500Y-145986500D03*
X138493500Y-143764000D03*
X133032500Y-145224500D03*
X132080000Y-135255000D03*
X100076000Y-142621000D03*
D19*
X112521966Y-101346000D02*
X111887000Y-100711034D01*
X116332000Y-101346000D02*
X112521966Y-101346000D01*
D20*
X115062000Y-105156000D02*
X116332000Y-103886000D01*
X112928000Y-105177000D02*
X112949000Y-105156000D01*
X112949000Y-105156000D02*
X115062000Y-105156000D01*
X106070000Y-105177000D02*
X112928000Y-105177000D01*
X106070000Y-108507000D02*
X106070000Y-107925000D01*
X113157000Y-107696000D02*
X115062000Y-107696000D01*
X112346000Y-108507000D02*
X113157000Y-107696000D01*
X115062000Y-107696000D02*
X116332000Y-106426000D01*
X106070000Y-108507000D02*
X112346000Y-108507000D01*
D21*
X115062000Y-110236000D02*
X116332000Y-108966000D01*
X112649000Y-110236000D02*
X115062000Y-110236000D01*
X111048000Y-111837000D02*
X112649000Y-110236000D01*
X106070000Y-111837000D02*
X111048000Y-111837000D01*
X115468401Y-112369599D02*
X116332000Y-111506000D01*
X115062000Y-112776000D02*
X115468401Y-112369599D01*
X112989543Y-112776000D02*
X115062000Y-112776000D01*
X112141000Y-113624542D02*
X112989543Y-112776000D01*
X107612458Y-113624542D02*
X112141000Y-113624542D01*
X106070000Y-115167000D02*
X107612458Y-113624542D01*
X108966000Y-132222458D02*
X107330458Y-133858000D01*
X108966000Y-122301000D02*
X108966000Y-132222458D01*
X102869999Y-134967001D02*
X101870000Y-135967000D01*
X115068399Y-120389601D02*
X110877399Y-120389601D01*
X103979000Y-133858000D02*
X102869999Y-134967001D01*
X110877399Y-120389601D02*
X108966000Y-122301000D01*
X107330458Y-133858000D02*
X103979000Y-133858000D01*
X116332000Y-119126000D02*
X115068399Y-120389601D01*
X109855000Y-132182000D02*
X106070000Y-135967000D01*
X113157000Y-122936000D02*
X109855000Y-126238000D01*
X109855000Y-126238000D02*
X109855000Y-132182000D01*
X115062000Y-122936000D02*
X113157000Y-122936000D01*
X116332000Y-121666000D02*
X115062000Y-122936000D01*
X115062000Y-125476000D02*
X116332000Y-124206000D01*
X110998000Y-127508000D02*
X113030000Y-125476000D01*
X110998000Y-138684000D02*
X110998000Y-127508000D01*
X113030000Y-125476000D02*
X115062000Y-125476000D01*
X110236000Y-139446000D02*
X110998000Y-138684000D01*
X103557000Y-139446000D02*
X110236000Y-139446000D01*
X101870000Y-141133000D02*
X103557000Y-139446000D01*
X112014000Y-129193870D02*
X112014000Y-140462000D01*
X113185471Y-128022399D02*
X112014000Y-129193870D01*
X111343000Y-141133000D02*
X106070000Y-141133000D01*
X112014000Y-140462000D02*
X111343000Y-141133000D01*
X114173000Y-128016000D02*
X114166601Y-128022399D01*
X114166601Y-128022399D02*
X113185471Y-128022399D01*
X115062000Y-128016000D02*
X114173000Y-128016000D01*
X116332000Y-126746000D02*
X115062000Y-128016000D01*
X115110686Y-129286000D02*
X113792000Y-129286000D01*
X116332000Y-129286000D02*
X115110686Y-129286000D01*
X120904000Y-133985000D02*
X120904000Y-144526000D01*
X116205000Y-129286000D02*
X120904000Y-133985000D01*
X115968011Y-149461989D02*
X108059989Y-149461989D01*
X120904000Y-144526000D02*
X115968011Y-149461989D01*
X108059989Y-149461989D02*
X101092000Y-142494000D01*
X113792000Y-129286000D02*
X116205000Y-129286000D01*
X99568000Y-140970000D02*
X99568000Y-137865000D01*
X101201989Y-142603989D02*
X99568000Y-140970000D01*
X98669999Y-136966999D02*
X97670000Y-135967000D01*
X99568000Y-137865000D02*
X98669999Y-136966999D01*
X97987000Y-114497000D02*
X97670000Y-114497000D01*
D22*
X130810000Y-80254000D02*
X130831001Y-80232999D01*
X130810000Y-83566000D02*
X130810000Y-80254000D01*
X104394000Y-93337000D02*
X101870000Y-95861000D01*
X109220000Y-75438000D02*
X104394000Y-80264000D01*
X129032000Y-75438000D02*
X109220000Y-75438000D01*
X130831001Y-77237001D02*
X129032000Y-75438000D01*
X104394000Y-80264000D02*
X104394000Y-93337000D01*
X130831001Y-80232999D02*
X130831001Y-77237001D01*
D23*
X149198490Y-142022990D02*
X134868185Y-142022990D01*
X134868185Y-142022990D02*
X134302500Y-142022990D01*
X153352500Y-146177000D02*
X149198490Y-142022990D01*
X155485000Y-142684500D02*
X157099000Y-142684500D01*
X153543000Y-144626500D02*
X155485000Y-142684500D01*
X139128500Y-146113500D02*
X139128500Y-145986500D01*
X97670000Y-121827000D02*
X95250000Y-124247000D01*
X95250000Y-151130000D02*
X97674022Y-153554022D01*
X97674022Y-153554022D02*
X131687978Y-153554022D01*
X131687978Y-153554022D02*
X139128500Y-146113500D01*
X95250000Y-124247000D02*
X95250000Y-151130000D01*
X96150022Y-149998022D02*
X97790000Y-151638000D01*
X96150022Y-130006978D02*
X96150022Y-149998022D01*
X97670000Y-128487000D02*
X96150022Y-130006978D01*
X138093501Y-143364001D02*
X138493500Y-143764000D01*
X137477500Y-142748000D02*
X138093501Y-143364001D01*
X123634500Y-152654000D02*
X132207000Y-144081500D01*
X98869500Y-152654000D02*
X123634500Y-152654000D01*
X97853500Y-151638000D02*
X98869500Y-152654000D01*
X132397500Y-142748000D02*
X137477500Y-142748000D01*
X132207000Y-144081500D02*
X132207000Y-142938500D01*
X132207000Y-142938500D02*
X132397500Y-142748000D01*
X95700011Y-127126989D02*
X95700011Y-150310011D01*
X95700011Y-150310011D02*
X98494011Y-153104011D01*
X131700410Y-145224500D02*
X132466815Y-145224500D01*
X132466815Y-145224500D02*
X133032500Y-145224500D01*
X98494011Y-153104011D02*
X123820900Y-153104011D01*
X97670000Y-125157000D02*
X95700011Y-127126989D01*
X123820900Y-153104011D02*
X131700410Y-145224500D01*
X116166478Y-150005999D02*
X107841999Y-150005999D01*
X100457000Y-142621000D02*
X100076000Y-142621000D01*
X107841999Y-150005999D02*
X100457000Y-142621000D01*
X130917477Y-135255000D02*
X116166478Y-150005999D01*
X132080000Y-135255000D02*
X130917477Y-135255000D01*
D24*
X168148000Y-81153000D02*
X168150440Y-81177776D01*
X168157667Y-81201601D01*
X168169403Y-81223557D01*
X168185197Y-81242803D01*
X168204443Y-81258597D01*
X168226399Y-81270333D01*
X168250224Y-81277560D01*
X168275000Y-81280000D01*
X192151000Y-81280000D01*
X192151000Y-154305000D01*
X131816912Y-154305000D01*
X131836964Y-154303025D01*
X131980225Y-154259568D01*
X132112254Y-154188996D01*
X132227979Y-154094023D01*
X132251782Y-154065019D01*
X139311407Y-147005395D01*
X139430398Y-146981726D01*
X139618756Y-146903705D01*
X139788274Y-146790437D01*
X139932437Y-146646274D01*
X140045705Y-146476756D01*
X140123726Y-146288398D01*
X140163500Y-146088439D01*
X140163500Y-145884561D01*
X140123726Y-145684602D01*
X140045705Y-145496244D01*
X139932437Y-145326726D01*
X139788274Y-145182563D01*
X139618756Y-145069295D01*
X139430398Y-144991274D01*
X139230439Y-144951500D01*
X139026561Y-144951500D01*
X138826602Y-144991274D01*
X138638244Y-145069295D01*
X138468726Y-145182563D01*
X138324563Y-145326726D01*
X138211295Y-145496244D01*
X138133274Y-145684602D01*
X138093500Y-145884561D01*
X138093500Y-146073698D01*
X131373177Y-152794022D01*
X125205690Y-152794022D01*
X130730830Y-147268882D01*
X130820417Y-147402957D01*
X131005043Y-147587583D01*
X131222140Y-147732643D01*
X131463366Y-147832562D01*
X131719450Y-147883500D01*
X131980550Y-147883500D01*
X132236634Y-147832562D01*
X132477860Y-147732643D01*
X132694957Y-147587583D01*
X132879583Y-147402957D01*
X133024643Y-147185860D01*
X133124562Y-146944634D01*
X133175500Y-146688550D01*
X133175500Y-146427450D01*
X133141802Y-146258036D01*
X133334398Y-146219726D01*
X133522756Y-146141705D01*
X133612586Y-146081683D01*
X133575438Y-146171366D01*
X133524500Y-146427450D01*
X133524500Y-146688550D01*
X133575438Y-146944634D01*
X133675357Y-147185860D01*
X133820417Y-147402957D01*
X134005043Y-147587583D01*
X134222140Y-147732643D01*
X134463366Y-147832562D01*
X134719450Y-147883500D01*
X134980550Y-147883500D01*
X135236634Y-147832562D01*
X135477860Y-147732643D01*
X135694957Y-147587583D01*
X135879583Y-147402957D01*
X136024643Y-147185860D01*
X136124562Y-146944634D01*
X136175500Y-146688550D01*
X136175500Y-146427450D01*
X136124562Y-146171366D01*
X136024643Y-145930140D01*
X135879583Y-145713043D01*
X135694957Y-145528417D01*
X135477860Y-145383357D01*
X135236634Y-145283438D01*
X134980550Y-145232500D01*
X134719450Y-145232500D01*
X134463366Y-145283438D01*
X134222140Y-145383357D01*
X134030740Y-145511247D01*
X134067500Y-145326439D01*
X134067500Y-145122561D01*
X134027726Y-144922602D01*
X133949705Y-144734244D01*
X133836437Y-144564726D01*
X133692274Y-144420563D01*
X133522756Y-144307295D01*
X133334398Y-144229274D01*
X133134439Y-144189500D01*
X132960040Y-144189500D01*
X132967000Y-144118833D01*
X132967000Y-144118825D01*
X132970676Y-144081500D01*
X132967000Y-144044175D01*
X132967000Y-143508000D01*
X137162699Y-143508000D01*
X137458500Y-143803802D01*
X137458500Y-143865939D01*
X137498274Y-144065898D01*
X137576295Y-144254256D01*
X137689563Y-144423774D01*
X137833726Y-144567937D01*
X138003244Y-144681205D01*
X138191602Y-144759226D01*
X138391561Y-144799000D01*
X138595439Y-144799000D01*
X138795398Y-144759226D01*
X138983756Y-144681205D01*
X139153274Y-144567937D01*
X139297437Y-144423774D01*
X139410705Y-144254256D01*
X139488726Y-144065898D01*
X139528500Y-143865939D01*
X139528500Y-143662061D01*
X139488726Y-143462102D01*
X139410705Y-143273744D01*
X139297437Y-143104226D01*
X139153274Y-142960063D01*
X138983756Y-142846795D01*
X138829718Y-142782990D01*
X148883689Y-142782990D01*
X152317500Y-146216802D01*
X152317500Y-146278939D01*
X152357274Y-146478898D01*
X152435295Y-146667256D01*
X152548563Y-146836774D01*
X152692726Y-146980937D01*
X152862244Y-147094205D01*
X153050602Y-147172226D01*
X153250561Y-147212000D01*
X153454439Y-147212000D01*
X153654398Y-147172226D01*
X153842756Y-147094205D01*
X154012274Y-146980937D01*
X154156437Y-146836774D01*
X154269705Y-146667256D01*
X154347726Y-146478898D01*
X154387500Y-146278939D01*
X154387500Y-146075061D01*
X154347726Y-145875102D01*
X154269705Y-145686744D01*
X154156437Y-145517226D01*
X154122971Y-145483760D01*
X154202774Y-145430437D01*
X154346937Y-145286274D01*
X154460205Y-145116756D01*
X154538226Y-144928398D01*
X154578000Y-144728439D01*
X154578000Y-144666301D01*
X155799802Y-143444500D01*
X156395289Y-143444500D01*
X156439226Y-143488437D01*
X156608744Y-143601705D01*
X156797102Y-143679726D01*
X156997061Y-143719500D01*
X157200939Y-143719500D01*
X157400898Y-143679726D01*
X157589256Y-143601705D01*
X157758774Y-143488437D01*
X157902937Y-143344274D01*
X158016205Y-143174756D01*
X158094226Y-142986398D01*
X158134000Y-142786439D01*
X158134000Y-142582561D01*
X158094226Y-142382602D01*
X158016205Y-142194244D01*
X157902937Y-142024726D01*
X157758774Y-141880563D01*
X157589256Y-141767295D01*
X157400898Y-141689274D01*
X157200939Y-141649500D01*
X156997061Y-141649500D01*
X156797102Y-141689274D01*
X156608744Y-141767295D01*
X156439226Y-141880563D01*
X156395289Y-141924500D01*
X155522325Y-141924500D01*
X155485000Y-141920824D01*
X155447675Y-141924500D01*
X155447667Y-141924500D01*
X155336014Y-141935497D01*
X155192753Y-141978954D01*
X155060724Y-142049526D01*
X154944999Y-142144499D01*
X154921201Y-142173497D01*
X153503199Y-143591500D01*
X153441061Y-143591500D01*
X153241102Y-143631274D01*
X153052744Y-143709295D01*
X152883226Y-143822563D01*
X152739063Y-143966726D01*
X152625795Y-144136244D01*
X152555720Y-144305418D01*
X149762294Y-141511993D01*
X149738491Y-141482989D01*
X149622766Y-141388016D01*
X149490737Y-141317444D01*
X149347476Y-141273987D01*
X149235925Y-141263000D01*
X158912928Y-141263000D01*
X158912928Y-142963000D01*
X158925188Y-143087482D01*
X158961498Y-143207180D01*
X159020463Y-143317494D01*
X159099815Y-143414185D01*
X159196506Y-143493537D01*
X159306820Y-143552502D01*
X159379380Y-143574513D01*
X159247525Y-143706368D01*
X159085010Y-143949589D01*
X158973068Y-144219842D01*
X158916000Y-144506740D01*
X158916000Y-144799260D01*
X158973068Y-145086158D01*
X159085010Y-145356411D01*
X159247525Y-145599632D01*
X159454368Y-145806475D01*
X159697589Y-145968990D01*
X159967842Y-146080932D01*
X160254740Y-146138000D01*
X160547260Y-146138000D01*
X160834158Y-146080932D01*
X161104411Y-145968990D01*
X161347632Y-145806475D01*
X161554475Y-145599632D01*
X161716990Y-145356411D01*
X161828932Y-145086158D01*
X161886000Y-144799260D01*
X161886000Y-144506740D01*
X161828932Y-144219842D01*
X161716990Y-143949589D01*
X161554475Y-143706368D01*
X161422620Y-143574513D01*
X161495180Y-143552502D01*
X161605494Y-143493537D01*
X161702185Y-143414185D01*
X161781537Y-143317494D01*
X161840502Y-143207180D01*
X161876812Y-143087482D01*
X161889072Y-142963000D01*
X161889072Y-141263000D01*
X162595928Y-141263000D01*
X162595928Y-142963000D01*
X162608188Y-143087482D01*
X162644498Y-143207180D01*
X162703463Y-143317494D01*
X162782815Y-143414185D01*
X162879506Y-143493537D01*
X162989820Y-143552502D01*
X163062380Y-143574513D01*
X162930525Y-143706368D01*
X162768010Y-143949589D01*
X162656068Y-144219842D01*
X162599000Y-144506740D01*
X162599000Y-144799260D01*
X162656068Y-145086158D01*
X162768010Y-145356411D01*
X162930525Y-145599632D01*
X163137368Y-145806475D01*
X163311760Y-145923000D01*
X163137368Y-146039525D01*
X162930525Y-146246368D01*
X162768010Y-146489589D01*
X162656068Y-146759842D01*
X162599000Y-147046740D01*
X162599000Y-147339260D01*
X162656068Y-147626158D01*
X162768010Y-147896411D01*
X162930525Y-148139632D01*
X163137368Y-148346475D01*
X163380589Y-148508990D01*
X163650842Y-148620932D01*
X163937740Y-148678000D01*
X164230260Y-148678000D01*
X164517158Y-148620932D01*
X164787411Y-148508990D01*
X165030632Y-148346475D01*
X165237475Y-148139632D01*
X165399990Y-147896411D01*
X165511932Y-147626158D01*
X165569000Y-147339260D01*
X165569000Y-147046740D01*
X165511932Y-146759842D01*
X165399990Y-146489589D01*
X165237475Y-146246368D01*
X165030632Y-146039525D01*
X164856240Y-145923000D01*
X165030632Y-145806475D01*
X165237475Y-145599632D01*
X165399990Y-145356411D01*
X165511932Y-145086158D01*
X165569000Y-144799260D01*
X165569000Y-144506740D01*
X165511932Y-144219842D01*
X165399990Y-143949589D01*
X165237475Y-143706368D01*
X165105620Y-143574513D01*
X165178180Y-143552502D01*
X165288494Y-143493537D01*
X165385185Y-143414185D01*
X165464537Y-143317494D01*
X165523502Y-143207180D01*
X165559812Y-143087482D01*
X165572072Y-142963000D01*
X165572072Y-141948000D01*
X174456928Y-141948000D01*
X174456928Y-143548000D01*
X174469188Y-143672482D01*
X174505498Y-143792180D01*
X174564463Y-143902494D01*
X174643815Y-143999185D01*
X174740506Y-144078537D01*
X174850820Y-144137502D01*
X174970518Y-144173812D01*
X175095000Y-144186072D01*
X176695000Y-144186072D01*
X176819482Y-144173812D01*
X176939180Y-144137502D01*
X177049494Y-144078537D01*
X177146185Y-143999185D01*
X177225537Y-143902494D01*
X177284502Y-143792180D01*
X177320812Y-143672482D01*
X177321643Y-143664039D01*
X177520241Y-143862637D01*
X177755273Y-144019680D01*
X178016426Y-144127853D01*
X178293665Y-144183000D01*
X178576335Y-144183000D01*
X178853574Y-144127853D01*
X179114727Y-144019680D01*
X179349759Y-143862637D01*
X179549637Y-143662759D01*
X179705000Y-143430241D01*
X179860363Y-143662759D01*
X180060241Y-143862637D01*
X180295273Y-144019680D01*
X180556426Y-144127853D01*
X180833665Y-144183000D01*
X181116335Y-144183000D01*
X181393574Y-144127853D01*
X181654727Y-144019680D01*
X181889759Y-143862637D01*
X182089637Y-143662759D01*
X182245000Y-143430241D01*
X182400363Y-143662759D01*
X182600241Y-143862637D01*
X182835273Y-144019680D01*
X183096426Y-144127853D01*
X183373665Y-144183000D01*
X183656335Y-144183000D01*
X183933574Y-144127853D01*
X184194727Y-144019680D01*
X184429759Y-143862637D01*
X184629637Y-143662759D01*
X184786680Y-143427727D01*
X184894853Y-143166574D01*
X184950000Y-142889335D01*
X184950000Y-142606665D01*
X184894853Y-142329426D01*
X184786680Y-142068273D01*
X184629637Y-141833241D01*
X184429759Y-141633363D01*
X184194727Y-141476320D01*
X183933574Y-141368147D01*
X183656335Y-141313000D01*
X183373665Y-141313000D01*
X183096426Y-141368147D01*
X182835273Y-141476320D01*
X182600241Y-141633363D01*
X182400363Y-141833241D01*
X182245000Y-142065759D01*
X182089637Y-141833241D01*
X181889759Y-141633363D01*
X181654727Y-141476320D01*
X181393574Y-141368147D01*
X181116335Y-141313000D01*
X180833665Y-141313000D01*
X180556426Y-141368147D01*
X180295273Y-141476320D01*
X180060241Y-141633363D01*
X179860363Y-141833241D01*
X179705000Y-142065759D01*
X179549637Y-141833241D01*
X179349759Y-141633363D01*
X179114727Y-141476320D01*
X178853574Y-141368147D01*
X178576335Y-141313000D01*
X178293665Y-141313000D01*
X178016426Y-141368147D01*
X177755273Y-141476320D01*
X177520241Y-141633363D01*
X177321643Y-141831961D01*
X177320812Y-141823518D01*
X177284502Y-141703820D01*
X177225537Y-141593506D01*
X177146185Y-141496815D01*
X177049494Y-141417463D01*
X176939180Y-141358498D01*
X176819482Y-141322188D01*
X176695000Y-141309928D01*
X175095000Y-141309928D01*
X174970518Y-141322188D01*
X174850820Y-141358498D01*
X174740506Y-141417463D01*
X174643815Y-141496815D01*
X174564463Y-141593506D01*
X174505498Y-141703820D01*
X174469188Y-141823518D01*
X174456928Y-141948000D01*
X165572072Y-141948000D01*
X165572072Y-141263000D01*
X165559812Y-141138518D01*
X165523502Y-141018820D01*
X165464537Y-140908506D01*
X165385185Y-140811815D01*
X165288494Y-140732463D01*
X165178180Y-140673498D01*
X165058482Y-140637188D01*
X164934000Y-140624928D01*
X163234000Y-140624928D01*
X163109518Y-140637188D01*
X162989820Y-140673498D01*
X162879506Y-140732463D01*
X162782815Y-140811815D01*
X162703463Y-140908506D01*
X162644498Y-141018820D01*
X162608188Y-141138518D01*
X162595928Y-141263000D01*
X161889072Y-141263000D01*
X161876812Y-141138518D01*
X161840502Y-141018820D01*
X161781537Y-140908506D01*
X161702185Y-140811815D01*
X161605494Y-140732463D01*
X161495180Y-140673498D01*
X161375482Y-140637188D01*
X161251000Y-140624928D01*
X159551000Y-140624928D01*
X159426518Y-140637188D01*
X159306820Y-140673498D01*
X159196506Y-140732463D01*
X159099815Y-140811815D01*
X159020463Y-140908506D01*
X158961498Y-141018820D01*
X158925188Y-141138518D01*
X158912928Y-141263000D01*
X149235925Y-141263000D01*
X149235823Y-141262990D01*
X149235812Y-141262990D01*
X149198490Y-141259314D01*
X149161168Y-141262990D01*
X135006211Y-141262990D01*
X134962274Y-141219053D01*
X134792756Y-141105785D01*
X134604398Y-141027764D01*
X134404439Y-140987990D01*
X134200561Y-140987990D01*
X134000602Y-141027764D01*
X133812244Y-141105785D01*
X133642726Y-141219053D01*
X133498563Y-141363216D01*
X133385295Y-141532734D01*
X133307274Y-141721092D01*
X133267500Y-141921051D01*
X133267500Y-141988000D01*
X132434825Y-141988000D01*
X132397500Y-141984324D01*
X132360175Y-141988000D01*
X132360167Y-141988000D01*
X132248514Y-141998997D01*
X132105253Y-142042454D01*
X131973224Y-142113026D01*
X131857499Y-142207999D01*
X131833696Y-142237003D01*
X131695998Y-142374701D01*
X131667000Y-142398499D01*
X131643202Y-142427497D01*
X131643201Y-142427498D01*
X131572026Y-142514224D01*
X131501454Y-142646254D01*
X131478193Y-142722939D01*
X131464623Y-142767676D01*
X131457998Y-142789515D01*
X131443324Y-142938500D01*
X131447001Y-142975832D01*
X131447000Y-143766698D01*
X123319699Y-151894000D01*
X99184302Y-151894000D01*
X98364502Y-151074201D01*
X98277776Y-151003026D01*
X98174769Y-150947967D01*
X97139763Y-149912962D01*
X97153593Y-149924312D01*
X97272594Y-149987919D01*
X97401717Y-150027088D01*
X97536000Y-150040314D01*
X97670282Y-150027088D01*
X97720021Y-150012000D01*
X101669979Y-150012000D01*
X101719718Y-150027088D01*
X101854000Y-150040314D01*
X101988283Y-150027088D01*
X102117406Y-149987919D01*
X102236407Y-149924312D01*
X102340711Y-149838711D01*
X102426312Y-149734407D01*
X102489919Y-149615406D01*
X102529088Y-149486283D01*
X102539000Y-149385647D01*
X102539000Y-146337647D01*
X102542314Y-146304000D01*
X102529088Y-146169717D01*
X102489919Y-146040594D01*
X102426312Y-145921593D01*
X102340711Y-145817289D01*
X102236407Y-145731688D01*
X102117406Y-145668081D01*
X101988283Y-145628912D01*
X101887647Y-145619000D01*
X101854000Y-145615686D01*
X101820353Y-145619000D01*
X97569647Y-145619000D01*
X97536000Y-145615686D01*
X97502353Y-145619000D01*
X97401717Y-145628912D01*
X97272594Y-145668081D01*
X97153593Y-145731688D01*
X97049289Y-145817289D01*
X96963688Y-145921593D01*
X96910022Y-146021996D01*
X96910022Y-137421918D01*
X97193088Y-137539168D01*
X97508967Y-137602000D01*
X97831033Y-137602000D01*
X98075504Y-137553372D01*
X98108569Y-137586437D01*
X98108574Y-137586441D01*
X98733001Y-138210869D01*
X98733000Y-140928981D01*
X98728960Y-140970000D01*
X98733000Y-141011018D01*
X98745082Y-141133688D01*
X98792828Y-141291086D01*
X98870364Y-141436145D01*
X98974709Y-141563291D01*
X99006579Y-141589446D01*
X99325211Y-141908078D01*
X99272063Y-141961226D01*
X99158795Y-142130744D01*
X99080774Y-142319102D01*
X99041000Y-142519061D01*
X99041000Y-142722939D01*
X99080774Y-142922898D01*
X99158795Y-143111256D01*
X99272063Y-143280774D01*
X99416226Y-143424937D01*
X99585744Y-143538205D01*
X99774102Y-143616226D01*
X99974061Y-143656000D01*
X100177939Y-143656000D01*
X100377503Y-143616304D01*
X107278200Y-150517002D01*
X107301998Y-150546000D01*
X107417723Y-150640973D01*
X107549752Y-150711545D01*
X107693013Y-150755002D01*
X107804666Y-150765999D01*
X107804674Y-150765999D01*
X107841999Y-150769675D01*
X107879324Y-150765999D01*
X116129156Y-150765999D01*
X116166478Y-150769675D01*
X116203800Y-150765999D01*
X116203811Y-150765999D01*
X116315464Y-150755002D01*
X116458725Y-150711545D01*
X116590754Y-150640973D01*
X116706479Y-150546000D01*
X116730282Y-150516996D01*
X130537578Y-136709701D01*
X130524500Y-136775450D01*
X130524500Y-137036550D01*
X130575438Y-137292634D01*
X130675357Y-137533860D01*
X130820417Y-137750957D01*
X131005043Y-137935583D01*
X131222140Y-138080643D01*
X131463366Y-138180562D01*
X131719450Y-138231500D01*
X131980550Y-138231500D01*
X132236634Y-138180562D01*
X132477860Y-138080643D01*
X132694957Y-137935583D01*
X132879583Y-137750957D01*
X133024643Y-137533860D01*
X133124562Y-137292634D01*
X133175500Y-137036550D01*
X133175500Y-136775450D01*
X133524500Y-136775450D01*
X133524500Y-137036550D01*
X133575438Y-137292634D01*
X133675357Y-137533860D01*
X133820417Y-137750957D01*
X134005043Y-137935583D01*
X134222140Y-138080643D01*
X134463366Y-138180562D01*
X134719450Y-138231500D01*
X134980550Y-138231500D01*
X135236634Y-138180562D01*
X135477860Y-138080643D01*
X135694957Y-137935583D01*
X135879583Y-137750957D01*
X136024643Y-137533860D01*
X136124562Y-137292634D01*
X136175500Y-137036550D01*
X136175500Y-136775450D01*
X136124562Y-136519366D01*
X136024643Y-136278140D01*
X135879583Y-136061043D01*
X135694957Y-135876417D01*
X135477860Y-135731357D01*
X135236634Y-135631438D01*
X134980550Y-135580500D01*
X134719450Y-135580500D01*
X134463366Y-135631438D01*
X134222140Y-135731357D01*
X134005043Y-135876417D01*
X133820417Y-136061043D01*
X133675357Y-136278140D01*
X133575438Y-136519366D01*
X133524500Y-136775450D01*
X133175500Y-136775450D01*
X133124562Y-136519366D01*
X133024643Y-136278140D01*
X132879583Y-136061043D01*
X132808626Y-135990086D01*
X132883937Y-135914774D01*
X132997205Y-135745256D01*
X133075226Y-135556898D01*
X133115000Y-135356939D01*
X133115000Y-135153061D01*
X133075226Y-134953102D01*
X132997205Y-134764744D01*
X132883937Y-134595226D01*
X132739774Y-134451063D01*
X132570256Y-134337795D01*
X132381898Y-134259774D01*
X132181939Y-134220000D01*
X131978061Y-134220000D01*
X131778102Y-134259774D01*
X131589744Y-134337795D01*
X131420226Y-134451063D01*
X131376289Y-134495000D01*
X130954800Y-134495000D01*
X130917477Y-134491324D01*
X130880154Y-134495000D01*
X130880144Y-134495000D01*
X130768491Y-134505997D01*
X130625230Y-134549454D01*
X130493201Y-134620026D01*
X130377476Y-134714999D01*
X130353678Y-134743997D01*
X121739000Y-143358676D01*
X121739000Y-134026018D01*
X121743040Y-133985000D01*
X121730532Y-133858001D01*
X121726918Y-133821311D01*
X121679172Y-133663913D01*
X121601636Y-133518854D01*
X121546770Y-133452000D01*
X121523439Y-133423570D01*
X121523437Y-133423568D01*
X121497291Y-133391709D01*
X121465433Y-133365564D01*
X119456869Y-131357000D01*
X158912928Y-131357000D01*
X158912928Y-133057000D01*
X158925188Y-133181482D01*
X158961498Y-133301180D01*
X159020463Y-133411494D01*
X159099815Y-133508185D01*
X159196506Y-133587537D01*
X159306820Y-133646502D01*
X159379380Y-133668513D01*
X159247525Y-133800368D01*
X159085010Y-134043589D01*
X158973068Y-134313842D01*
X158916000Y-134600740D01*
X158916000Y-134893260D01*
X158973068Y-135180158D01*
X159085010Y-135450411D01*
X159247525Y-135693632D01*
X159454368Y-135900475D01*
X159697589Y-136062990D01*
X159967842Y-136174932D01*
X160254740Y-136232000D01*
X160547260Y-136232000D01*
X160834158Y-136174932D01*
X161104411Y-136062990D01*
X161347632Y-135900475D01*
X161554475Y-135693632D01*
X161716990Y-135450411D01*
X161828932Y-135180158D01*
X161886000Y-134893260D01*
X161886000Y-134600740D01*
X161828932Y-134313842D01*
X161716990Y-134043589D01*
X161554475Y-133800368D01*
X161422620Y-133668513D01*
X161495180Y-133646502D01*
X161605494Y-133587537D01*
X161702185Y-133508185D01*
X161781537Y-133411494D01*
X161840502Y-133301180D01*
X161876812Y-133181482D01*
X161889072Y-133057000D01*
X161889072Y-131357000D01*
X162595928Y-131357000D01*
X162595928Y-133057000D01*
X162608188Y-133181482D01*
X162644498Y-133301180D01*
X162703463Y-133411494D01*
X162782815Y-133508185D01*
X162879506Y-133587537D01*
X162989820Y-133646502D01*
X163062380Y-133668513D01*
X162930525Y-133800368D01*
X162768010Y-134043589D01*
X162656068Y-134313842D01*
X162599000Y-134600740D01*
X162599000Y-134893260D01*
X162656068Y-135180158D01*
X162768010Y-135450411D01*
X162930525Y-135693632D01*
X163137368Y-135900475D01*
X163311760Y-136017000D01*
X163137368Y-136133525D01*
X162930525Y-136340368D01*
X162768010Y-136583589D01*
X162656068Y-136853842D01*
X162599000Y-137140740D01*
X162599000Y-137433260D01*
X162656068Y-137720158D01*
X162768010Y-137990411D01*
X162930525Y-138233632D01*
X163137368Y-138440475D01*
X163380589Y-138602990D01*
X163650842Y-138714932D01*
X163937740Y-138772000D01*
X164230260Y-138772000D01*
X164517158Y-138714932D01*
X164787411Y-138602990D01*
X165030632Y-138440475D01*
X165237475Y-138233632D01*
X165399990Y-137990411D01*
X165511932Y-137720158D01*
X165569000Y-137433260D01*
X165569000Y-137140740D01*
X165511932Y-136853842D01*
X165399990Y-136583589D01*
X165237475Y-136340368D01*
X165030632Y-136133525D01*
X164856240Y-136017000D01*
X165030632Y-135900475D01*
X165237475Y-135693632D01*
X165399990Y-135450411D01*
X165511932Y-135180158D01*
X165550420Y-134986665D01*
X174460000Y-134986665D01*
X174460000Y-135269335D01*
X174515147Y-135546574D01*
X174623320Y-135807727D01*
X174780363Y-136042759D01*
X174980241Y-136242637D01*
X175215273Y-136399680D01*
X175476426Y-136507853D01*
X175753665Y-136563000D01*
X176036335Y-136563000D01*
X176313574Y-136507853D01*
X176574727Y-136399680D01*
X176809759Y-136242637D01*
X177009637Y-136042759D01*
X177165000Y-135810241D01*
X177320363Y-136042759D01*
X177520241Y-136242637D01*
X177755273Y-136399680D01*
X178016426Y-136507853D01*
X178293665Y-136563000D01*
X178576335Y-136563000D01*
X178853574Y-136507853D01*
X179114727Y-136399680D01*
X179349759Y-136242637D01*
X179549637Y-136042759D01*
X179706680Y-135807727D01*
X179814853Y-135546574D01*
X179870000Y-135269335D01*
X179870000Y-134986665D01*
X182080000Y-134986665D01*
X182080000Y-135269335D01*
X182135147Y-135546574D01*
X182243320Y-135807727D01*
X182400363Y-136042759D01*
X182600241Y-136242637D01*
X182835273Y-136399680D01*
X183096426Y-136507853D01*
X183373665Y-136563000D01*
X183656335Y-136563000D01*
X183933574Y-136507853D01*
X184194727Y-136399680D01*
X184429759Y-136242637D01*
X184629637Y-136042759D01*
X184786680Y-135807727D01*
X184894853Y-135546574D01*
X184950000Y-135269335D01*
X184950000Y-134986665D01*
X184894853Y-134709426D01*
X184786680Y-134448273D01*
X184629637Y-134213241D01*
X184429759Y-134013363D01*
X184194727Y-133856320D01*
X183933574Y-133748147D01*
X183656335Y-133693000D01*
X183373665Y-133693000D01*
X183096426Y-133748147D01*
X182835273Y-133856320D01*
X182600241Y-134013363D01*
X182400363Y-134213241D01*
X182243320Y-134448273D01*
X182135147Y-134709426D01*
X182080000Y-134986665D01*
X179870000Y-134986665D01*
X179814853Y-134709426D01*
X179706680Y-134448273D01*
X179549637Y-134213241D01*
X179349759Y-134013363D01*
X179114727Y-133856320D01*
X178853574Y-133748147D01*
X178576335Y-133693000D01*
X178293665Y-133693000D01*
X178016426Y-133748147D01*
X177755273Y-133856320D01*
X177520241Y-134013363D01*
X177320363Y-134213241D01*
X177165000Y-134445759D01*
X177009637Y-134213241D01*
X176809759Y-134013363D01*
X176574727Y-133856320D01*
X176313574Y-133748147D01*
X176036335Y-133693000D01*
X175753665Y-133693000D01*
X175476426Y-133748147D01*
X175215273Y-133856320D01*
X174980241Y-134013363D01*
X174780363Y-134213241D01*
X174623320Y-134448273D01*
X174515147Y-134709426D01*
X174460000Y-134986665D01*
X165550420Y-134986665D01*
X165569000Y-134893260D01*
X165569000Y-134600740D01*
X165511932Y-134313842D01*
X165399990Y-134043589D01*
X165237475Y-133800368D01*
X165105620Y-133668513D01*
X165178180Y-133646502D01*
X165288494Y-133587537D01*
X165385185Y-133508185D01*
X165464537Y-133411494D01*
X165523502Y-133301180D01*
X165559812Y-133181482D01*
X165572072Y-133057000D01*
X165572072Y-131357000D01*
X165559812Y-131232518D01*
X165523502Y-131112820D01*
X165464537Y-131002506D01*
X165385185Y-130905815D01*
X165288494Y-130826463D01*
X165178180Y-130767498D01*
X165058482Y-130731188D01*
X164934000Y-130718928D01*
X163234000Y-130718928D01*
X163109518Y-130731188D01*
X162989820Y-130767498D01*
X162879506Y-130826463D01*
X162782815Y-130905815D01*
X162703463Y-131002506D01*
X162644498Y-131112820D01*
X162608188Y-131232518D01*
X162595928Y-131357000D01*
X161889072Y-131357000D01*
X161876812Y-131232518D01*
X161840502Y-131112820D01*
X161781537Y-131002506D01*
X161702185Y-130905815D01*
X161605494Y-130826463D01*
X161495180Y-130767498D01*
X161375482Y-130731188D01*
X161251000Y-130718928D01*
X159551000Y-130718928D01*
X159426518Y-130731188D01*
X159306820Y-130767498D01*
X159196506Y-130826463D01*
X159099815Y-130905815D01*
X159020463Y-131002506D01*
X158961498Y-131112820D01*
X158925188Y-131232518D01*
X158912928Y-131357000D01*
X119456869Y-131357000D01*
X117781303Y-129681435D01*
X117830600Y-129433599D01*
X117830600Y-129138401D01*
X117773010Y-128848875D01*
X117660042Y-128576147D01*
X117496039Y-128330698D01*
X117287302Y-128121961D01*
X117128719Y-128016000D01*
X117287302Y-127910039D01*
X117496039Y-127701302D01*
X117660042Y-127455853D01*
X117773010Y-127183125D01*
X117830600Y-126893599D01*
X117830600Y-126598401D01*
X117773010Y-126308875D01*
X117660042Y-126036147D01*
X117496039Y-125790698D01*
X117287302Y-125581961D01*
X117128719Y-125476000D01*
X117287302Y-125370039D01*
X117496039Y-125161302D01*
X117660042Y-124915853D01*
X117773010Y-124643125D01*
X117830600Y-124353599D01*
X117830600Y-124058401D01*
X117773010Y-123768875D01*
X117660042Y-123496147D01*
X117496039Y-123250698D01*
X117287302Y-123041961D01*
X117128719Y-122936000D01*
X117287302Y-122830039D01*
X117496039Y-122621302D01*
X117660042Y-122375853D01*
X117773010Y-122103125D01*
X117830600Y-121813599D01*
X117830600Y-121518401D01*
X117773010Y-121228875D01*
X117660042Y-120956147D01*
X117496039Y-120710698D01*
X117287302Y-120501961D01*
X117128719Y-120396000D01*
X117287302Y-120290039D01*
X117496039Y-120081302D01*
X117660042Y-119835853D01*
X117773010Y-119563125D01*
X117830600Y-119273599D01*
X117830600Y-118978401D01*
X117773010Y-118688875D01*
X117660042Y-118416147D01*
X117496039Y-118170698D01*
X117287302Y-117961961D01*
X117128719Y-117856000D01*
X117287302Y-117750039D01*
X117496039Y-117541302D01*
X117660042Y-117295853D01*
X117773010Y-117023125D01*
X117830600Y-116733599D01*
X117830600Y-116438401D01*
X117773010Y-116148875D01*
X117660042Y-115876147D01*
X117496039Y-115630698D01*
X117287302Y-115421961D01*
X117128719Y-115316000D01*
X117287302Y-115210039D01*
X117496039Y-115001302D01*
X117660042Y-114755853D01*
X117773010Y-114483125D01*
X117830600Y-114193599D01*
X117830600Y-113898401D01*
X117773010Y-113608875D01*
X117660042Y-113336147D01*
X117496039Y-113090698D01*
X117287302Y-112881961D01*
X117128719Y-112776000D01*
X117287302Y-112670039D01*
X117496039Y-112461302D01*
X117660042Y-112215853D01*
X117773010Y-111943125D01*
X117830600Y-111653599D01*
X117830600Y-111358401D01*
X117773010Y-111068875D01*
X117660042Y-110796147D01*
X117496039Y-110550698D01*
X117287302Y-110341961D01*
X117128719Y-110236000D01*
X117287302Y-110130039D01*
X117496039Y-109921302D01*
X117660042Y-109675853D01*
X117773010Y-109403125D01*
X117830600Y-109113599D01*
X117830600Y-108818401D01*
X117773010Y-108528875D01*
X117660042Y-108256147D01*
X117496039Y-108010698D01*
X117287302Y-107801961D01*
X117128719Y-107696000D01*
X117287302Y-107590039D01*
X117496039Y-107381302D01*
X117660042Y-107135853D01*
X117773010Y-106863125D01*
X117830600Y-106573599D01*
X117830600Y-106278401D01*
X117773010Y-105988875D01*
X117660042Y-105716147D01*
X117496039Y-105470698D01*
X117287302Y-105261961D01*
X117128719Y-105156000D01*
X117287302Y-105050039D01*
X117496039Y-104841302D01*
X117660042Y-104595853D01*
X117773010Y-104323125D01*
X117830600Y-104033599D01*
X117830600Y-103738401D01*
X117773010Y-103448875D01*
X117660042Y-103176147D01*
X117496039Y-102930698D01*
X117287302Y-102721961D01*
X117128719Y-102616000D01*
X117287302Y-102510039D01*
X117496039Y-102301302D01*
X117660042Y-102055853D01*
X117773010Y-101783125D01*
X117830600Y-101493599D01*
X117830600Y-101198401D01*
X117773010Y-100908875D01*
X117660042Y-100636147D01*
X117496039Y-100390698D01*
X117287302Y-100181961D01*
X117128719Y-100076000D01*
X117287302Y-99970039D01*
X117496039Y-99761302D01*
X117660042Y-99515853D01*
X117773010Y-99243125D01*
X117830600Y-98953599D01*
X117830600Y-98658401D01*
X117773010Y-98368875D01*
X117660042Y-98096147D01*
X117496039Y-97850698D01*
X117287302Y-97641961D01*
X117041853Y-97477958D01*
X116769125Y-97364990D01*
X116479599Y-97307400D01*
X116184401Y-97307400D01*
X115894875Y-97364990D01*
X115622147Y-97477958D01*
X115376698Y-97641961D01*
X115262636Y-97756023D01*
X115245102Y-97698220D01*
X115186137Y-97587906D01*
X115106785Y-97491215D01*
X115010094Y-97411863D01*
X114899780Y-97352898D01*
X114780082Y-97316588D01*
X114655600Y-97304328D01*
X112928400Y-97304328D01*
X112803918Y-97316588D01*
X112684220Y-97352898D01*
X112573906Y-97411863D01*
X112477215Y-97491215D01*
X112397863Y-97587906D01*
X112338898Y-97698220D01*
X112302588Y-97817918D01*
X112290328Y-97942400D01*
X112290328Y-99490562D01*
X112138903Y-99444627D01*
X111887000Y-99419818D01*
X111635097Y-99444627D01*
X111392873Y-99518106D01*
X111169639Y-99637426D01*
X110973972Y-99798006D01*
X110813392Y-99993673D01*
X110694072Y-100216907D01*
X110620593Y-100459131D01*
X110595784Y-100711034D01*
X110620593Y-100962937D01*
X110694072Y-101205161D01*
X110813392Y-101428395D01*
X110933734Y-101575031D01*
X111568699Y-102209996D01*
X111608938Y-102259028D01*
X111804604Y-102419608D01*
X111852091Y-102444990D01*
X112027838Y-102538929D01*
X112226419Y-102599168D01*
X112270062Y-102612407D01*
X112458843Y-102631000D01*
X112458850Y-102631000D01*
X112521966Y-102637216D01*
X112585082Y-102631000D01*
X112972831Y-102631000D01*
X112836698Y-102721961D01*
X112627961Y-102930698D01*
X112463958Y-103176147D01*
X112350990Y-103448875D01*
X112293400Y-103738401D01*
X112293400Y-104033599D01*
X112350990Y-104323125D01*
X112369164Y-104367000D01*
X107495173Y-104367000D01*
X107339987Y-104134748D01*
X107112252Y-103907013D01*
X106844463Y-103728082D01*
X106546912Y-103604832D01*
X106231033Y-103542000D01*
X105908967Y-103542000D01*
X105593088Y-103604832D01*
X105295537Y-103728082D01*
X105027748Y-103907013D01*
X104800013Y-104134748D01*
X104621082Y-104402537D01*
X104497832Y-104700088D01*
X104435000Y-105015967D01*
X104435000Y-105338033D01*
X104497832Y-105653912D01*
X104621082Y-105951463D01*
X104800013Y-106219252D01*
X105027748Y-106446987D01*
X105295537Y-106625918D01*
X105593088Y-106749168D01*
X105908967Y-106812000D01*
X106231033Y-106812000D01*
X106546912Y-106749168D01*
X106844463Y-106625918D01*
X107112252Y-106446987D01*
X107339987Y-106219252D01*
X107495173Y-105987000D01*
X112351767Y-105987000D01*
X112350990Y-105988875D01*
X112293400Y-106278401D01*
X112293400Y-106573599D01*
X112350990Y-106863125D01*
X112463958Y-107135853D01*
X112507087Y-107200400D01*
X112010488Y-107697000D01*
X107495173Y-107697000D01*
X107339987Y-107464748D01*
X107112252Y-107237013D01*
X106844463Y-107058082D01*
X106546912Y-106934832D01*
X106231033Y-106872000D01*
X105908967Y-106872000D01*
X105593088Y-106934832D01*
X105295537Y-107058082D01*
X105027748Y-107237013D01*
X104800013Y-107464748D01*
X104621082Y-107732537D01*
X104497832Y-108030088D01*
X104435000Y-108345967D01*
X104435000Y-108668033D01*
X104497832Y-108983912D01*
X104621082Y-109281463D01*
X104800013Y-109549252D01*
X105027748Y-109776987D01*
X105295537Y-109955918D01*
X105593088Y-110079168D01*
X105908967Y-110142000D01*
X106231033Y-110142000D01*
X106546912Y-110079168D01*
X106844463Y-109955918D01*
X107112252Y-109776987D01*
X107339987Y-109549252D01*
X107495173Y-109317000D01*
X112306212Y-109317000D01*
X112334411Y-109319778D01*
X112350990Y-109403125D01*
X112369647Y-109448168D01*
X112327913Y-109460828D01*
X112182854Y-109538364D01*
X112055709Y-109642709D01*
X112029563Y-109674568D01*
X110702133Y-111002000D01*
X107478468Y-111002000D01*
X107339987Y-110794748D01*
X107112252Y-110567013D01*
X106844463Y-110388082D01*
X106546912Y-110264832D01*
X106231033Y-110202000D01*
X105908967Y-110202000D01*
X105593088Y-110264832D01*
X105295537Y-110388082D01*
X105027748Y-110567013D01*
X104800013Y-110794748D01*
X104621082Y-111062537D01*
X104497832Y-111360088D01*
X104435000Y-111675967D01*
X104435000Y-111998033D01*
X104497832Y-112313912D01*
X104621082Y-112611463D01*
X104800013Y-112879252D01*
X105027748Y-113106987D01*
X105295537Y-113285918D01*
X105593088Y-113409168D01*
X105908967Y-113472000D01*
X106231033Y-113472000D01*
X106546912Y-113409168D01*
X106717712Y-113338420D01*
X106475504Y-113580628D01*
X106231033Y-113532000D01*
X105908967Y-113532000D01*
X105593088Y-113594832D01*
X105295537Y-113718082D01*
X105027748Y-113897013D01*
X104800013Y-114124748D01*
X104621082Y-114392537D01*
X104497832Y-114690088D01*
X104435000Y-115005967D01*
X104435000Y-115328033D01*
X104497832Y-115643912D01*
X104621082Y-115941463D01*
X104800013Y-116209252D01*
X105027748Y-116436987D01*
X105295537Y-116615918D01*
X105593088Y-116739168D01*
X105908967Y-116802000D01*
X106231033Y-116802000D01*
X106546912Y-116739168D01*
X106844463Y-116615918D01*
X107112252Y-116436987D01*
X107339987Y-116209252D01*
X107518918Y-115941463D01*
X107642168Y-115643912D01*
X107705000Y-115328033D01*
X107705000Y-115005967D01*
X107656372Y-114761496D01*
X107958326Y-114459542D01*
X112099982Y-114459542D01*
X112141000Y-114463582D01*
X112182018Y-114459542D01*
X112182019Y-114459542D01*
X112304689Y-114447460D01*
X112341665Y-114436244D01*
X112350990Y-114483125D01*
X112463958Y-114755853D01*
X112627961Y-115001302D01*
X112836698Y-115210039D01*
X112995281Y-115316000D01*
X112836698Y-115421961D01*
X112627961Y-115630698D01*
X112463958Y-115876147D01*
X112350990Y-116148875D01*
X112293400Y-116438401D01*
X112293400Y-116733599D01*
X112350990Y-117023125D01*
X112463958Y-117295853D01*
X112627961Y-117541302D01*
X112836698Y-117750039D01*
X113082147Y-117914042D01*
X113354875Y-118027010D01*
X113644401Y-118084600D01*
X113939599Y-118084600D01*
X114229125Y-118027010D01*
X114501853Y-117914042D01*
X114747302Y-117750039D01*
X114956039Y-117541302D01*
X115062000Y-117382719D01*
X115167961Y-117541302D01*
X115376698Y-117750039D01*
X115535281Y-117856000D01*
X115376698Y-117961961D01*
X115167961Y-118170698D01*
X115003958Y-118416147D01*
X114890990Y-118688875D01*
X114833400Y-118978401D01*
X114833400Y-119273599D01*
X114861627Y-119415506D01*
X114722532Y-119554601D01*
X110918406Y-119554601D01*
X110877398Y-119550562D01*
X110836390Y-119554601D01*
X110836380Y-119554601D01*
X110713710Y-119566683D01*
X110556312Y-119614429D01*
X110411253Y-119691965D01*
X110284108Y-119796310D01*
X110257960Y-119828172D01*
X108404579Y-121681554D01*
X108372709Y-121707709D01*
X108285808Y-121813599D01*
X108268364Y-121834855D01*
X108190828Y-121979914D01*
X108143082Y-122137312D01*
X108126960Y-122301000D01*
X108131000Y-122342019D01*
X108131001Y-131876588D01*
X107591603Y-132415987D01*
X107642168Y-132293912D01*
X107705000Y-131978033D01*
X107705000Y-131655967D01*
X107642168Y-131340088D01*
X107518918Y-131042537D01*
X107339987Y-130774748D01*
X107112252Y-130547013D01*
X106844463Y-130368082D01*
X106546912Y-130244832D01*
X106231033Y-130182000D01*
X105908967Y-130182000D01*
X105593088Y-130244832D01*
X105295537Y-130368082D01*
X105027748Y-130547013D01*
X104800013Y-130774748D01*
X104621082Y-131042537D01*
X104497832Y-131340088D01*
X104435000Y-131655967D01*
X104435000Y-131978033D01*
X104497832Y-132293912D01*
X104621082Y-132591463D01*
X104800013Y-132859252D01*
X104963761Y-133023000D01*
X104020007Y-133023000D01*
X103978999Y-133018961D01*
X103937991Y-133023000D01*
X103937981Y-133023000D01*
X103815311Y-133035082D01*
X103657913Y-133082828D01*
X103512854Y-133160364D01*
X103385709Y-133264709D01*
X103359561Y-133296571D01*
X102308574Y-134347559D01*
X102308569Y-134347563D01*
X102275504Y-134380628D01*
X102031033Y-134332000D01*
X101708967Y-134332000D01*
X101393088Y-134394832D01*
X101095537Y-134518082D01*
X100827748Y-134697013D01*
X100600013Y-134924748D01*
X100421082Y-135192537D01*
X100297832Y-135490088D01*
X100235000Y-135805967D01*
X100235000Y-136128033D01*
X100297832Y-136443912D01*
X100421082Y-136741463D01*
X100600013Y-137009252D01*
X100827748Y-137236987D01*
X101095537Y-137415918D01*
X101393088Y-137539168D01*
X101708967Y-137602000D01*
X102031033Y-137602000D01*
X102346912Y-137539168D01*
X102644463Y-137415918D01*
X102912252Y-137236987D01*
X103139987Y-137009252D01*
X103318918Y-136741463D01*
X103442168Y-136443912D01*
X103505000Y-136128033D01*
X103505000Y-135805967D01*
X103456372Y-135561496D01*
X103489437Y-135528431D01*
X103489441Y-135528426D01*
X104324868Y-134693000D01*
X105033754Y-134693000D01*
X105027748Y-134697013D01*
X104800013Y-134924748D01*
X104621082Y-135192537D01*
X104497832Y-135490088D01*
X104435000Y-135805967D01*
X104435000Y-136128033D01*
X104497832Y-136443912D01*
X104621082Y-136741463D01*
X104800013Y-137009252D01*
X105027748Y-137236987D01*
X105295537Y-137415918D01*
X105593088Y-137539168D01*
X105908967Y-137602000D01*
X106231033Y-137602000D01*
X106546912Y-137539168D01*
X106844463Y-137415918D01*
X107112252Y-137236987D01*
X107339987Y-137009252D01*
X107518918Y-136741463D01*
X107642168Y-136443912D01*
X107705000Y-136128033D01*
X107705000Y-135805967D01*
X107656372Y-135561495D01*
X110163001Y-133054867D01*
X110163000Y-138338132D01*
X109890132Y-138611000D01*
X103598007Y-138611000D01*
X103556999Y-138606961D01*
X103515991Y-138611000D01*
X103515981Y-138611000D01*
X103393311Y-138623082D01*
X103235913Y-138670828D01*
X103090854Y-138748364D01*
X102963709Y-138852709D01*
X102937561Y-138884571D01*
X102275504Y-139546628D01*
X102031033Y-139498000D01*
X101708967Y-139498000D01*
X101393088Y-139560832D01*
X101095537Y-139684082D01*
X100827748Y-139863013D01*
X100600013Y-140090748D01*
X100421082Y-140358537D01*
X100403000Y-140402191D01*
X100403000Y-137906018D01*
X100407040Y-137864999D01*
X100390918Y-137701311D01*
X100343172Y-137543913D01*
X100265636Y-137398854D01*
X100219900Y-137343125D01*
X100161291Y-137271709D01*
X100129426Y-137245558D01*
X99289441Y-136405574D01*
X99289437Y-136405569D01*
X99256372Y-136372504D01*
X99305000Y-136128033D01*
X99305000Y-135805967D01*
X99242168Y-135490088D01*
X99118918Y-135192537D01*
X98939987Y-134924748D01*
X98712252Y-134697013D01*
X98444463Y-134518082D01*
X98146912Y-134394832D01*
X97831033Y-134332000D01*
X97508967Y-134332000D01*
X97193088Y-134394832D01*
X96910022Y-134512082D01*
X96910022Y-133271918D01*
X97193088Y-133389168D01*
X97508967Y-133452000D01*
X97831033Y-133452000D01*
X98146912Y-133389168D01*
X98444463Y-133265918D01*
X98712252Y-133086987D01*
X98939987Y-132859252D01*
X99118918Y-132591463D01*
X99242168Y-132293912D01*
X99305000Y-131978033D01*
X99305000Y-131655967D01*
X100235000Y-131655967D01*
X100235000Y-131978033D01*
X100297832Y-132293912D01*
X100421082Y-132591463D01*
X100600013Y-132859252D01*
X100827748Y-133086987D01*
X101095537Y-133265918D01*
X101393088Y-133389168D01*
X101708967Y-133452000D01*
X102031033Y-133452000D01*
X102346912Y-133389168D01*
X102644463Y-133265918D01*
X102912252Y-133086987D01*
X103139987Y-132859252D01*
X103318918Y-132591463D01*
X103442168Y-132293912D01*
X103505000Y-131978033D01*
X103505000Y-131655967D01*
X103442168Y-131340088D01*
X103318918Y-131042537D01*
X103139987Y-130774748D01*
X102912252Y-130547013D01*
X102644463Y-130368082D01*
X102346912Y-130244832D01*
X102031033Y-130182000D01*
X101708967Y-130182000D01*
X101393088Y-130244832D01*
X101095537Y-130368082D01*
X100827748Y-130547013D01*
X100600013Y-130774748D01*
X100421082Y-131042537D01*
X100297832Y-131340088D01*
X100235000Y-131655967D01*
X99305000Y-131655967D01*
X99242168Y-131340088D01*
X99118918Y-131042537D01*
X98939987Y-130774748D01*
X98712252Y-130547013D01*
X98444463Y-130368082D01*
X98146912Y-130244832D01*
X97831033Y-130182000D01*
X97508967Y-130182000D01*
X97193088Y-130244832D01*
X96910022Y-130362082D01*
X96910022Y-130321779D01*
X97178624Y-130053177D01*
X97193088Y-130059168D01*
X97508967Y-130122000D01*
X97831033Y-130122000D01*
X98146912Y-130059168D01*
X98444463Y-129935918D01*
X98712252Y-129756987D01*
X98939987Y-129529252D01*
X99118918Y-129261463D01*
X99242168Y-128963912D01*
X99305000Y-128648033D01*
X99305000Y-128325967D01*
X100235000Y-128325967D01*
X100235000Y-128648033D01*
X100297832Y-128963912D01*
X100421082Y-129261463D01*
X100600013Y-129529252D01*
X100827748Y-129756987D01*
X101095537Y-129935918D01*
X101393088Y-130059168D01*
X101708967Y-130122000D01*
X102031033Y-130122000D01*
X102346912Y-130059168D01*
X102644463Y-129935918D01*
X102912252Y-129756987D01*
X103139987Y-129529252D01*
X103318918Y-129261463D01*
X103442168Y-128963912D01*
X103505000Y-128648033D01*
X103505000Y-128325967D01*
X104435000Y-128325967D01*
X104435000Y-128648033D01*
X104497832Y-128963912D01*
X104621082Y-129261463D01*
X104800013Y-129529252D01*
X105027748Y-129756987D01*
X105295537Y-129935918D01*
X105593088Y-130059168D01*
X105908967Y-130122000D01*
X106231033Y-130122000D01*
X106546912Y-130059168D01*
X106844463Y-129935918D01*
X107112252Y-129756987D01*
X107339987Y-129529252D01*
X107518918Y-129261463D01*
X107642168Y-128963912D01*
X107705000Y-128648033D01*
X107705000Y-128325967D01*
X107642168Y-128010088D01*
X107518918Y-127712537D01*
X107339987Y-127444748D01*
X107112252Y-127217013D01*
X106844463Y-127038082D01*
X106546912Y-126914832D01*
X106231033Y-126852000D01*
X105908967Y-126852000D01*
X105593088Y-126914832D01*
X105295537Y-127038082D01*
X105027748Y-127217013D01*
X104800013Y-127444748D01*
X104621082Y-127712537D01*
X104497832Y-128010088D01*
X104435000Y-128325967D01*
X103505000Y-128325967D01*
X103442168Y-128010088D01*
X103318918Y-127712537D01*
X103139987Y-127444748D01*
X102912252Y-127217013D01*
X102644463Y-127038082D01*
X102346912Y-126914832D01*
X102031033Y-126852000D01*
X101708967Y-126852000D01*
X101393088Y-126914832D01*
X101095537Y-127038082D01*
X100827748Y-127217013D01*
X100600013Y-127444748D01*
X100421082Y-127712537D01*
X100297832Y-128010088D01*
X100235000Y-128325967D01*
X99305000Y-128325967D01*
X99242168Y-128010088D01*
X99118918Y-127712537D01*
X98939987Y-127444748D01*
X98712252Y-127217013D01*
X98444463Y-127038082D01*
X98146912Y-126914832D01*
X97831033Y-126852000D01*
X97508967Y-126852000D01*
X97193088Y-126914832D01*
X96895537Y-127038082D01*
X96799649Y-127102152D01*
X97178624Y-126723177D01*
X97193088Y-126729168D01*
X97508967Y-126792000D01*
X97831033Y-126792000D01*
X98146912Y-126729168D01*
X98444463Y-126605918D01*
X98712252Y-126426987D01*
X98939987Y-126199252D01*
X99118918Y-125931463D01*
X99242168Y-125633912D01*
X99305000Y-125318033D01*
X99305000Y-124995967D01*
X100235000Y-124995967D01*
X100235000Y-125318033D01*
X100297832Y-125633912D01*
X100421082Y-125931463D01*
X100600013Y-126199252D01*
X100827748Y-126426987D01*
X101095537Y-126605918D01*
X101393088Y-126729168D01*
X101708967Y-126792000D01*
X102031033Y-126792000D01*
X102346912Y-126729168D01*
X102644463Y-126605918D01*
X102912252Y-126426987D01*
X103139987Y-126199252D01*
X103318918Y-125931463D01*
X103442168Y-125633912D01*
X103505000Y-125318033D01*
X103505000Y-124995967D01*
X104435000Y-124995967D01*
X104435000Y-125318033D01*
X104497832Y-125633912D01*
X104621082Y-125931463D01*
X104800013Y-126199252D01*
X105027748Y-126426987D01*
X105295537Y-126605918D01*
X105593088Y-126729168D01*
X105908967Y-126792000D01*
X106231033Y-126792000D01*
X106546912Y-126729168D01*
X106844463Y-126605918D01*
X107112252Y-126426987D01*
X107339987Y-126199252D01*
X107518918Y-125931463D01*
X107642168Y-125633912D01*
X107705000Y-125318033D01*
X107705000Y-124995967D01*
X107642168Y-124680088D01*
X107518918Y-124382537D01*
X107339987Y-124114748D01*
X107112252Y-123887013D01*
X106844463Y-123708082D01*
X106546912Y-123584832D01*
X106231033Y-123522000D01*
X105908967Y-123522000D01*
X105593088Y-123584832D01*
X105295537Y-123708082D01*
X105027748Y-123887013D01*
X104800013Y-124114748D01*
X104621082Y-124382537D01*
X104497832Y-124680088D01*
X104435000Y-124995967D01*
X103505000Y-124995967D01*
X103442168Y-124680088D01*
X103318918Y-124382537D01*
X103139987Y-124114748D01*
X102912252Y-123887013D01*
X102644463Y-123708082D01*
X102346912Y-123584832D01*
X102031033Y-123522000D01*
X101708967Y-123522000D01*
X101393088Y-123584832D01*
X101095537Y-123708082D01*
X100827748Y-123887013D01*
X100600013Y-124114748D01*
X100421082Y-124382537D01*
X100297832Y-124680088D01*
X100235000Y-124995967D01*
X99305000Y-124995967D01*
X99242168Y-124680088D01*
X99118918Y-124382537D01*
X98939987Y-124114748D01*
X98712252Y-123887013D01*
X98444463Y-123708082D01*
X98146912Y-123584832D01*
X97831033Y-123522000D01*
X97508967Y-123522000D01*
X97193088Y-123584832D01*
X96895537Y-123708082D01*
X96799649Y-123772152D01*
X97178625Y-123393177D01*
X97193088Y-123399168D01*
X97508967Y-123462000D01*
X97831033Y-123462000D01*
X98146912Y-123399168D01*
X98444463Y-123275918D01*
X98712252Y-123096987D01*
X98939987Y-122869252D01*
X99118918Y-122601463D01*
X99242168Y-122303912D01*
X99305000Y-121988033D01*
X99305000Y-121665967D01*
X100235000Y-121665967D01*
X100235000Y-121988033D01*
X100297832Y-122303912D01*
X100421082Y-122601463D01*
X100600013Y-122869252D01*
X100827748Y-123096987D01*
X101095537Y-123275918D01*
X101393088Y-123399168D01*
X101708967Y-123462000D01*
X102031033Y-123462000D01*
X102346912Y-123399168D01*
X102644463Y-123275918D01*
X102912252Y-123096987D01*
X103139987Y-122869252D01*
X103318918Y-122601463D01*
X103442168Y-122303912D01*
X103505000Y-121988033D01*
X103505000Y-121665967D01*
X104435000Y-121665967D01*
X104435000Y-121988033D01*
X104497832Y-122303912D01*
X104621082Y-122601463D01*
X104800013Y-122869252D01*
X105027748Y-123096987D01*
X105295537Y-123275918D01*
X105593088Y-123399168D01*
X105908967Y-123462000D01*
X106231033Y-123462000D01*
X106546912Y-123399168D01*
X106844463Y-123275918D01*
X107112252Y-123096987D01*
X107339987Y-122869252D01*
X107518918Y-122601463D01*
X107642168Y-122303912D01*
X107705000Y-121988033D01*
X107705000Y-121665967D01*
X107642168Y-121350088D01*
X107518918Y-121052537D01*
X107339987Y-120784748D01*
X107112252Y-120557013D01*
X106844463Y-120378082D01*
X106546912Y-120254832D01*
X106231033Y-120192000D01*
X105908967Y-120192000D01*
X105593088Y-120254832D01*
X105295537Y-120378082D01*
X105027748Y-120557013D01*
X104800013Y-120784748D01*
X104621082Y-121052537D01*
X104497832Y-121350088D01*
X104435000Y-121665967D01*
X103505000Y-121665967D01*
X103442168Y-121350088D01*
X103318918Y-121052537D01*
X103139987Y-120784748D01*
X102912252Y-120557013D01*
X102644463Y-120378082D01*
X102346912Y-120254832D01*
X102031033Y-120192000D01*
X101708967Y-120192000D01*
X101393088Y-120254832D01*
X101095537Y-120378082D01*
X100827748Y-120557013D01*
X100600013Y-120784748D01*
X100421082Y-121052537D01*
X100297832Y-121350088D01*
X100235000Y-121665967D01*
X99305000Y-121665967D01*
X99242168Y-121350088D01*
X99118918Y-121052537D01*
X98939987Y-120784748D01*
X98712252Y-120557013D01*
X98444463Y-120378082D01*
X98146912Y-120254832D01*
X97831033Y-120192000D01*
X97508967Y-120192000D01*
X97193088Y-120254832D01*
X96895537Y-120378082D01*
X96627748Y-120557013D01*
X96400013Y-120784748D01*
X96221082Y-121052537D01*
X96097832Y-121350088D01*
X96035000Y-121665967D01*
X96035000Y-121988033D01*
X96097832Y-122303912D01*
X96103823Y-122318375D01*
X95377000Y-123045199D01*
X95377000Y-118335967D01*
X96035000Y-118335967D01*
X96035000Y-118658033D01*
X96097832Y-118973912D01*
X96221082Y-119271463D01*
X96400013Y-119539252D01*
X96627748Y-119766987D01*
X96895537Y-119945918D01*
X97193088Y-120069168D01*
X97508967Y-120132000D01*
X97831033Y-120132000D01*
X98146912Y-120069168D01*
X98444463Y-119945918D01*
X98712252Y-119766987D01*
X98939987Y-119539252D01*
X99118918Y-119271463D01*
X99242168Y-118973912D01*
X99305000Y-118658033D01*
X99305000Y-118335967D01*
X100235000Y-118335967D01*
X100235000Y-118658033D01*
X100297832Y-118973912D01*
X100421082Y-119271463D01*
X100600013Y-119539252D01*
X100827748Y-119766987D01*
X101095537Y-119945918D01*
X101393088Y-120069168D01*
X101708967Y-120132000D01*
X102031033Y-120132000D01*
X102346912Y-120069168D01*
X102644463Y-119945918D01*
X102912252Y-119766987D01*
X103139987Y-119539252D01*
X103318918Y-119271463D01*
X103442168Y-118973912D01*
X103505000Y-118658033D01*
X103505000Y-118335967D01*
X104435000Y-118335967D01*
X104435000Y-118658033D01*
X104497832Y-118973912D01*
X104621082Y-119271463D01*
X104800013Y-119539252D01*
X105027748Y-119766987D01*
X105295537Y-119945918D01*
X105593088Y-120069168D01*
X105908967Y-120132000D01*
X106231033Y-120132000D01*
X106546912Y-120069168D01*
X106844463Y-119945918D01*
X107112252Y-119766987D01*
X107339987Y-119539252D01*
X107518918Y-119271463D01*
X107642168Y-118973912D01*
X107705000Y-118658033D01*
X107705000Y-118335967D01*
X107642168Y-118020088D01*
X107518918Y-117722537D01*
X107339987Y-117454748D01*
X107112252Y-117227013D01*
X106844463Y-117048082D01*
X106546912Y-116924832D01*
X106231033Y-116862000D01*
X105908967Y-116862000D01*
X105593088Y-116924832D01*
X105295537Y-117048082D01*
X105027748Y-117227013D01*
X104800013Y-117454748D01*
X104621082Y-117722537D01*
X104497832Y-118020088D01*
X104435000Y-118335967D01*
X103505000Y-118335967D01*
X103442168Y-118020088D01*
X103318918Y-117722537D01*
X103139987Y-117454748D01*
X102912252Y-117227013D01*
X102644463Y-117048082D01*
X102346912Y-116924832D01*
X102031033Y-116862000D01*
X101708967Y-116862000D01*
X101393088Y-116924832D01*
X101095537Y-117048082D01*
X100827748Y-117227013D01*
X100600013Y-117454748D01*
X100421082Y-117722537D01*
X100297832Y-118020088D01*
X100235000Y-118335967D01*
X99305000Y-118335967D01*
X99242168Y-118020088D01*
X99118918Y-117722537D01*
X98939987Y-117454748D01*
X98712252Y-117227013D01*
X98444463Y-117048082D01*
X98146912Y-116924832D01*
X97831033Y-116862000D01*
X97508967Y-116862000D01*
X97193088Y-116924832D01*
X96895537Y-117048082D01*
X96627748Y-117227013D01*
X96400013Y-117454748D01*
X96221082Y-117722537D01*
X96097832Y-118020088D01*
X96035000Y-118335967D01*
X95377000Y-118335967D01*
X95377000Y-115005967D01*
X96035000Y-115005967D01*
X96035000Y-115328033D01*
X96097832Y-115643912D01*
X96221082Y-115941463D01*
X96400013Y-116209252D01*
X96627748Y-116436987D01*
X96895537Y-116615918D01*
X97193088Y-116739168D01*
X97508967Y-116802000D01*
X97831033Y-116802000D01*
X98146912Y-116739168D01*
X98444463Y-116615918D01*
X98712252Y-116436987D01*
X98939987Y-116209252D01*
X99118918Y-115941463D01*
X99242168Y-115643912D01*
X99305000Y-115328033D01*
X99305000Y-115005967D01*
X100235000Y-115005967D01*
X100235000Y-115328033D01*
X100297832Y-115643912D01*
X100421082Y-115941463D01*
X100600013Y-116209252D01*
X100827748Y-116436987D01*
X101095537Y-116615918D01*
X101393088Y-116739168D01*
X101708967Y-116802000D01*
X102031033Y-116802000D01*
X102346912Y-116739168D01*
X102644463Y-116615918D01*
X102912252Y-116436987D01*
X103139987Y-116209252D01*
X103318918Y-115941463D01*
X103442168Y-115643912D01*
X103505000Y-115328033D01*
X103505000Y-115005967D01*
X103442168Y-114690088D01*
X103318918Y-114392537D01*
X103139987Y-114124748D01*
X102912252Y-113897013D01*
X102644463Y-113718082D01*
X102346912Y-113594832D01*
X102031033Y-113532000D01*
X101708967Y-113532000D01*
X101393088Y-113594832D01*
X101095537Y-113718082D01*
X100827748Y-113897013D01*
X100600013Y-114124748D01*
X100421082Y-114392537D01*
X100297832Y-114690088D01*
X100235000Y-115005967D01*
X99305000Y-115005967D01*
X99242168Y-114690088D01*
X99118918Y-114392537D01*
X98939987Y-114124748D01*
X98712252Y-113897013D01*
X98444463Y-113718082D01*
X98146912Y-113594832D01*
X97831033Y-113532000D01*
X97508967Y-113532000D01*
X97193088Y-113594832D01*
X96895537Y-113718082D01*
X96627748Y-113897013D01*
X96400013Y-114124748D01*
X96221082Y-114392537D01*
X96097832Y-114690088D01*
X96035000Y-115005967D01*
X95377000Y-115005967D01*
X95377000Y-111675967D01*
X96035000Y-111675967D01*
X96035000Y-111998033D01*
X96097832Y-112313912D01*
X96221082Y-112611463D01*
X96400013Y-112879252D01*
X96627748Y-113106987D01*
X96895537Y-113285918D01*
X97193088Y-113409168D01*
X97508967Y-113472000D01*
X97831033Y-113472000D01*
X98146912Y-113409168D01*
X98444463Y-113285918D01*
X98712252Y-113106987D01*
X98939987Y-112879252D01*
X99118918Y-112611463D01*
X99242168Y-112313912D01*
X99305000Y-111998033D01*
X99305000Y-111675967D01*
X100235000Y-111675967D01*
X100235000Y-111998033D01*
X100297832Y-112313912D01*
X100421082Y-112611463D01*
X100600013Y-112879252D01*
X100827748Y-113106987D01*
X101095537Y-113285918D01*
X101393088Y-113409168D01*
X101708967Y-113472000D01*
X102031033Y-113472000D01*
X102346912Y-113409168D01*
X102644463Y-113285918D01*
X102912252Y-113106987D01*
X103139987Y-112879252D01*
X103318918Y-112611463D01*
X103442168Y-112313912D01*
X103505000Y-111998033D01*
X103505000Y-111675967D01*
X103442168Y-111360088D01*
X103318918Y-111062537D01*
X103139987Y-110794748D01*
X102912252Y-110567013D01*
X102644463Y-110388082D01*
X102346912Y-110264832D01*
X102031033Y-110202000D01*
X101708967Y-110202000D01*
X101393088Y-110264832D01*
X101095537Y-110388082D01*
X100827748Y-110567013D01*
X100600013Y-110794748D01*
X100421082Y-111062537D01*
X100297832Y-111360088D01*
X100235000Y-111675967D01*
X99305000Y-111675967D01*
X99242168Y-111360088D01*
X99118918Y-111062537D01*
X98939987Y-110794748D01*
X98712252Y-110567013D01*
X98444463Y-110388082D01*
X98146912Y-110264832D01*
X97831033Y-110202000D01*
X97508967Y-110202000D01*
X97193088Y-110264832D01*
X96895537Y-110388082D01*
X96627748Y-110567013D01*
X96400013Y-110794748D01*
X96221082Y-111062537D01*
X96097832Y-111360088D01*
X96035000Y-111675967D01*
X95377000Y-111675967D01*
X95377000Y-108345967D01*
X96035000Y-108345967D01*
X96035000Y-108668033D01*
X96097832Y-108983912D01*
X96221082Y-109281463D01*
X96400013Y-109549252D01*
X96627748Y-109776987D01*
X96895537Y-109955918D01*
X97193088Y-110079168D01*
X97508967Y-110142000D01*
X97831033Y-110142000D01*
X98146912Y-110079168D01*
X98444463Y-109955918D01*
X98712252Y-109776987D01*
X98939987Y-109549252D01*
X99118918Y-109281463D01*
X99242168Y-108983912D01*
X99305000Y-108668033D01*
X99305000Y-108345967D01*
X100235000Y-108345967D01*
X100235000Y-108668033D01*
X100297832Y-108983912D01*
X100421082Y-109281463D01*
X100600013Y-109549252D01*
X100827748Y-109776987D01*
X101095537Y-109955918D01*
X101393088Y-110079168D01*
X101708967Y-110142000D01*
X102031033Y-110142000D01*
X102346912Y-110079168D01*
X102644463Y-109955918D01*
X102912252Y-109776987D01*
X103139987Y-109549252D01*
X103318918Y-109281463D01*
X103442168Y-108983912D01*
X103505000Y-108668033D01*
X103505000Y-108345967D01*
X103442168Y-108030088D01*
X103318918Y-107732537D01*
X103139987Y-107464748D01*
X102912252Y-107237013D01*
X102644463Y-107058082D01*
X102346912Y-106934832D01*
X102031033Y-106872000D01*
X101708967Y-106872000D01*
X101393088Y-106934832D01*
X101095537Y-107058082D01*
X100827748Y-107237013D01*
X100600013Y-107464748D01*
X100421082Y-107732537D01*
X100297832Y-108030088D01*
X100235000Y-108345967D01*
X99305000Y-108345967D01*
X99242168Y-108030088D01*
X99118918Y-107732537D01*
X98939987Y-107464748D01*
X98712252Y-107237013D01*
X98444463Y-107058082D01*
X98146912Y-106934832D01*
X97831033Y-106872000D01*
X97508967Y-106872000D01*
X97193088Y-106934832D01*
X96895537Y-107058082D01*
X96627748Y-107237013D01*
X96400013Y-107464748D01*
X96221082Y-107732537D01*
X96097832Y-108030088D01*
X96035000Y-108345967D01*
X95377000Y-108345967D01*
X95377000Y-105015967D01*
X96035000Y-105015967D01*
X96035000Y-105338033D01*
X96097832Y-105653912D01*
X96221082Y-105951463D01*
X96400013Y-106219252D01*
X96627748Y-106446987D01*
X96895537Y-106625918D01*
X97193088Y-106749168D01*
X97508967Y-106812000D01*
X97831033Y-106812000D01*
X98146912Y-106749168D01*
X98444463Y-106625918D01*
X98712252Y-106446987D01*
X98939987Y-106219252D01*
X99118918Y-105951463D01*
X99242168Y-105653912D01*
X99305000Y-105338033D01*
X99305000Y-105015967D01*
X100235000Y-105015967D01*
X100235000Y-105338033D01*
X100297832Y-105653912D01*
X100421082Y-105951463D01*
X100600013Y-106219252D01*
X100827748Y-106446987D01*
X101095537Y-106625918D01*
X101393088Y-106749168D01*
X101708967Y-106812000D01*
X102031033Y-106812000D01*
X102346912Y-106749168D01*
X102644463Y-106625918D01*
X102912252Y-106446987D01*
X103139987Y-106219252D01*
X103318918Y-105951463D01*
X103442168Y-105653912D01*
X103505000Y-105338033D01*
X103505000Y-105015967D01*
X103442168Y-104700088D01*
X103318918Y-104402537D01*
X103139987Y-104134748D01*
X102912252Y-103907013D01*
X102644463Y-103728082D01*
X102346912Y-103604832D01*
X102031033Y-103542000D01*
X101708967Y-103542000D01*
X101393088Y-103604832D01*
X101095537Y-103728082D01*
X100827748Y-103907013D01*
X100600013Y-104134748D01*
X100421082Y-104402537D01*
X100297832Y-104700088D01*
X100235000Y-105015967D01*
X99305000Y-105015967D01*
X99242168Y-104700088D01*
X99118918Y-104402537D01*
X98939987Y-104134748D01*
X98712252Y-103907013D01*
X98444463Y-103728082D01*
X98146912Y-103604832D01*
X97831033Y-103542000D01*
X97508967Y-103542000D01*
X97193088Y-103604832D01*
X96895537Y-103728082D01*
X96627748Y-103907013D01*
X96400013Y-104134748D01*
X96221082Y-104402537D01*
X96097832Y-104700088D01*
X96035000Y-105015967D01*
X95377000Y-105015967D01*
X95377000Y-100865967D01*
X96035000Y-100865967D01*
X96035000Y-101188033D01*
X96097832Y-101503912D01*
X96221082Y-101801463D01*
X96400013Y-102069252D01*
X96627748Y-102296987D01*
X96895537Y-102475918D01*
X97193088Y-102599168D01*
X97508967Y-102662000D01*
X97831033Y-102662000D01*
X98146912Y-102599168D01*
X98444463Y-102475918D01*
X98712252Y-102296987D01*
X98939987Y-102069252D01*
X99118918Y-101801463D01*
X99242168Y-101503912D01*
X99305000Y-101188033D01*
X99305000Y-100865967D01*
X100235000Y-100865967D01*
X100235000Y-101188033D01*
X100297832Y-101503912D01*
X100421082Y-101801463D01*
X100600013Y-102069252D01*
X100827748Y-102296987D01*
X101095537Y-102475918D01*
X101393088Y-102599168D01*
X101708967Y-102662000D01*
X102031033Y-102662000D01*
X102346912Y-102599168D01*
X102644463Y-102475918D01*
X102912252Y-102296987D01*
X103139987Y-102069252D01*
X103318918Y-101801463D01*
X103442168Y-101503912D01*
X103505000Y-101188033D01*
X103505000Y-100865967D01*
X104435000Y-100865967D01*
X104435000Y-101188033D01*
X104497832Y-101503912D01*
X104621082Y-101801463D01*
X104800013Y-102069252D01*
X105027748Y-102296987D01*
X105295537Y-102475918D01*
X105593088Y-102599168D01*
X105908967Y-102662000D01*
X106231033Y-102662000D01*
X106546912Y-102599168D01*
X106844463Y-102475918D01*
X107112252Y-102296987D01*
X107339987Y-102069252D01*
X107518918Y-101801463D01*
X107642168Y-101503912D01*
X107705000Y-101188033D01*
X107705000Y-100865967D01*
X107642168Y-100550088D01*
X107518918Y-100252537D01*
X107339987Y-99984748D01*
X107112252Y-99757013D01*
X106844463Y-99578082D01*
X106546912Y-99454832D01*
X106231033Y-99392000D01*
X105908967Y-99392000D01*
X105593088Y-99454832D01*
X105295537Y-99578082D01*
X105027748Y-99757013D01*
X104800013Y-99984748D01*
X104621082Y-100252537D01*
X104497832Y-100550088D01*
X104435000Y-100865967D01*
X103505000Y-100865967D01*
X103442168Y-100550088D01*
X103318918Y-100252537D01*
X103139987Y-99984748D01*
X102912252Y-99757013D01*
X102644463Y-99578082D01*
X102346912Y-99454832D01*
X102031033Y-99392000D01*
X101708967Y-99392000D01*
X101393088Y-99454832D01*
X101095537Y-99578082D01*
X100827748Y-99757013D01*
X100600013Y-99984748D01*
X100421082Y-100252537D01*
X100297832Y-100550088D01*
X100235000Y-100865967D01*
X99305000Y-100865967D01*
X99242168Y-100550088D01*
X99118918Y-100252537D01*
X98939987Y-99984748D01*
X98712252Y-99757013D01*
X98444463Y-99578082D01*
X98146912Y-99454832D01*
X97831033Y-99392000D01*
X97508967Y-99392000D01*
X97193088Y-99454832D01*
X96895537Y-99578082D01*
X96627748Y-99757013D01*
X96400013Y-99984748D01*
X96221082Y-100252537D01*
X96097832Y-100550088D01*
X96035000Y-100865967D01*
X95377000Y-100865967D01*
X95377000Y-88519000D01*
X96085686Y-88519000D01*
X96089001Y-88552657D01*
X96089000Y-92041353D01*
X96085686Y-92075000D01*
X96098912Y-92209283D01*
X96138081Y-92338406D01*
X96201688Y-92457407D01*
X96287289Y-92561711D01*
X96379188Y-92637131D01*
X96391593Y-92647312D01*
X96510594Y-92710919D01*
X96639717Y-92750088D01*
X96774000Y-92763314D01*
X96807647Y-92760000D01*
X103090353Y-92760000D01*
X103124000Y-92763314D01*
X103258283Y-92750088D01*
X103387406Y-92710919D01*
X103409001Y-92699376D01*
X103409001Y-92928999D01*
X102098567Y-94239433D01*
X102031033Y-94226000D01*
X101708967Y-94226000D01*
X101393088Y-94288832D01*
X101095537Y-94412082D01*
X100827748Y-94591013D01*
X100600013Y-94818748D01*
X100421082Y-95086537D01*
X100297832Y-95384088D01*
X100235000Y-95699967D01*
X100235000Y-96022033D01*
X100297832Y-96337912D01*
X100421082Y-96635463D01*
X100600013Y-96903252D01*
X100827748Y-97130987D01*
X101095537Y-97309918D01*
X101393088Y-97433168D01*
X101708967Y-97496000D01*
X102031033Y-97496000D01*
X102346912Y-97433168D01*
X102644463Y-97309918D01*
X102912252Y-97130987D01*
X103139987Y-96903252D01*
X103318918Y-96635463D01*
X103442168Y-96337912D01*
X103505000Y-96022033D01*
X103505000Y-95699967D01*
X104435000Y-95699967D01*
X104435000Y-96022033D01*
X104497832Y-96337912D01*
X104621082Y-96635463D01*
X104800013Y-96903252D01*
X105027748Y-97130987D01*
X105295537Y-97309918D01*
X105593088Y-97433168D01*
X105908967Y-97496000D01*
X106231033Y-97496000D01*
X106546912Y-97433168D01*
X106844463Y-97309918D01*
X107112252Y-97130987D01*
X107339987Y-96903252D01*
X107518918Y-96635463D01*
X107642168Y-96337912D01*
X107705000Y-96022033D01*
X107705000Y-95699967D01*
X107642168Y-95384088D01*
X107518918Y-95086537D01*
X107339987Y-94818748D01*
X107112252Y-94591013D01*
X106844463Y-94412082D01*
X106546912Y-94288832D01*
X106231033Y-94226000D01*
X105908967Y-94226000D01*
X105593088Y-94288832D01*
X105295537Y-94412082D01*
X105027748Y-94591013D01*
X104800013Y-94818748D01*
X104621082Y-95086537D01*
X104497832Y-95384088D01*
X104435000Y-95699967D01*
X103505000Y-95699967D01*
X103491567Y-95632433D01*
X105056284Y-94067716D01*
X105093870Y-94036870D01*
X105216960Y-93886884D01*
X105308424Y-93715767D01*
X105364747Y-93530094D01*
X105379000Y-93385380D01*
X105383765Y-93337001D01*
X105379000Y-93288621D01*
X105379000Y-83424665D01*
X114135000Y-83424665D01*
X114135000Y-83707335D01*
X114190147Y-83984574D01*
X114298320Y-84245727D01*
X114455363Y-84480759D01*
X114655241Y-84680637D01*
X114890273Y-84837680D01*
X115151426Y-84945853D01*
X115428665Y-85001000D01*
X115711335Y-85001000D01*
X115988574Y-84945853D01*
X116249727Y-84837680D01*
X116484759Y-84680637D01*
X116684637Y-84480759D01*
X116840000Y-84248241D01*
X116995363Y-84480759D01*
X117195241Y-84680637D01*
X117430273Y-84837680D01*
X117691426Y-84945853D01*
X117968665Y-85001000D01*
X118251335Y-85001000D01*
X118528574Y-84945853D01*
X118789727Y-84837680D01*
X119024759Y-84680637D01*
X119224637Y-84480759D01*
X119380000Y-84248241D01*
X119535363Y-84480759D01*
X119735241Y-84680637D01*
X119970273Y-84837680D01*
X120231426Y-84945853D01*
X120508665Y-85001000D01*
X120791335Y-85001000D01*
X121068574Y-84945853D01*
X121329727Y-84837680D01*
X121564759Y-84680637D01*
X121764637Y-84480759D01*
X121920000Y-84248241D01*
X122075363Y-84480759D01*
X122275241Y-84680637D01*
X122510273Y-84837680D01*
X122771426Y-84945853D01*
X123048665Y-85001000D01*
X123331335Y-85001000D01*
X123608574Y-84945853D01*
X123869727Y-84837680D01*
X124104759Y-84680637D01*
X124304637Y-84480759D01*
X124460000Y-84248241D01*
X124615363Y-84480759D01*
X124815241Y-84680637D01*
X125050273Y-84837680D01*
X125311426Y-84945853D01*
X125588665Y-85001000D01*
X125871335Y-85001000D01*
X126148574Y-84945853D01*
X126409727Y-84837680D01*
X126644759Y-84680637D01*
X126844637Y-84480759D01*
X127001680Y-84245727D01*
X127109853Y-83984574D01*
X127165000Y-83707335D01*
X127165000Y-83424665D01*
X127109853Y-83147426D01*
X127001680Y-82886273D01*
X126844637Y-82651241D01*
X126644759Y-82451363D01*
X126409727Y-82294320D01*
X126148574Y-82186147D01*
X125871335Y-82131000D01*
X125588665Y-82131000D01*
X125311426Y-82186147D01*
X125050273Y-82294320D01*
X124815241Y-82451363D01*
X124615363Y-82651241D01*
X124460000Y-82883759D01*
X124304637Y-82651241D01*
X124104759Y-82451363D01*
X123869727Y-82294320D01*
X123608574Y-82186147D01*
X123331335Y-82131000D01*
X123048665Y-82131000D01*
X122771426Y-82186147D01*
X122510273Y-82294320D01*
X122275241Y-82451363D01*
X122075363Y-82651241D01*
X121920000Y-82883759D01*
X121764637Y-82651241D01*
X121564759Y-82451363D01*
X121329727Y-82294320D01*
X121068574Y-82186147D01*
X120791335Y-82131000D01*
X120508665Y-82131000D01*
X120231426Y-82186147D01*
X119970273Y-82294320D01*
X119735241Y-82451363D01*
X119535363Y-82651241D01*
X119380000Y-82883759D01*
X119224637Y-82651241D01*
X119024759Y-82451363D01*
X118789727Y-82294320D01*
X118528574Y-82186147D01*
X118251335Y-82131000D01*
X117968665Y-82131000D01*
X117691426Y-82186147D01*
X117430273Y-82294320D01*
X117195241Y-82451363D01*
X116995363Y-82651241D01*
X116840000Y-82883759D01*
X116684637Y-82651241D01*
X116484759Y-82451363D01*
X116249727Y-82294320D01*
X115988574Y-82186147D01*
X115711335Y-82131000D01*
X115428665Y-82131000D01*
X115151426Y-82186147D01*
X114890273Y-82294320D01*
X114655241Y-82451363D01*
X114455363Y-82651241D01*
X114298320Y-82886273D01*
X114190147Y-83147426D01*
X114135000Y-83424665D01*
X105379000Y-83424665D01*
X105379000Y-80672000D01*
X105959336Y-80091664D01*
X114156001Y-80091664D01*
X114156001Y-80374334D01*
X114211148Y-80651573D01*
X114319321Y-80912726D01*
X114476364Y-81147758D01*
X114676242Y-81347636D01*
X114911274Y-81504679D01*
X115172427Y-81612852D01*
X115449666Y-81667999D01*
X115732336Y-81667999D01*
X116009575Y-81612852D01*
X116270728Y-81504679D01*
X116505760Y-81347636D01*
X116705638Y-81147758D01*
X116861001Y-80915240D01*
X117016364Y-81147758D01*
X117216242Y-81347636D01*
X117451274Y-81504679D01*
X117712427Y-81612852D01*
X117989666Y-81667999D01*
X118272336Y-81667999D01*
X118549575Y-81612852D01*
X118810728Y-81504679D01*
X119045760Y-81347636D01*
X119245638Y-81147758D01*
X119401001Y-80915240D01*
X119556364Y-81147758D01*
X119756242Y-81347636D01*
X119991274Y-81504679D01*
X120252427Y-81612852D01*
X120529666Y-81667999D01*
X120812336Y-81667999D01*
X121089575Y-81612852D01*
X121350728Y-81504679D01*
X121585760Y-81347636D01*
X121785638Y-81147758D01*
X121941001Y-80915240D01*
X122096364Y-81147758D01*
X122296242Y-81347636D01*
X122531274Y-81504679D01*
X122792427Y-81612852D01*
X123069666Y-81667999D01*
X123352336Y-81667999D01*
X123629575Y-81612852D01*
X123890728Y-81504679D01*
X124125760Y-81347636D01*
X124325638Y-81147758D01*
X124481001Y-80915240D01*
X124636364Y-81147758D01*
X124836242Y-81347636D01*
X125071274Y-81504679D01*
X125332427Y-81612852D01*
X125609666Y-81667999D01*
X125892336Y-81667999D01*
X126169575Y-81612852D01*
X126430728Y-81504679D01*
X126665760Y-81347636D01*
X126865638Y-81147758D01*
X127022681Y-80912726D01*
X127027068Y-80902134D01*
X127138616Y-81088130D01*
X127327587Y-81296518D01*
X127553581Y-81464036D01*
X127807914Y-81584245D01*
X127941962Y-81624903D01*
X128164001Y-81502914D01*
X128164001Y-80359999D01*
X128144001Y-80359999D01*
X128144001Y-80105999D01*
X128164001Y-80105999D01*
X128164001Y-78963084D01*
X127941962Y-78841095D01*
X127807914Y-78881753D01*
X127553581Y-79001962D01*
X127327587Y-79169480D01*
X127138616Y-79377868D01*
X127027068Y-79563864D01*
X127022681Y-79553272D01*
X126865638Y-79318240D01*
X126665760Y-79118362D01*
X126430728Y-78961319D01*
X126169575Y-78853146D01*
X125892336Y-78797999D01*
X125609666Y-78797999D01*
X125332427Y-78853146D01*
X125071274Y-78961319D01*
X124836242Y-79118362D01*
X124636364Y-79318240D01*
X124481001Y-79550758D01*
X124325638Y-79318240D01*
X124125760Y-79118362D01*
X123890728Y-78961319D01*
X123629575Y-78853146D01*
X123352336Y-78797999D01*
X123069666Y-78797999D01*
X122792427Y-78853146D01*
X122531274Y-78961319D01*
X122296242Y-79118362D01*
X122096364Y-79318240D01*
X121941001Y-79550758D01*
X121785638Y-79318240D01*
X121585760Y-79118362D01*
X121350728Y-78961319D01*
X121089575Y-78853146D01*
X120812336Y-78797999D01*
X120529666Y-78797999D01*
X120252427Y-78853146D01*
X119991274Y-78961319D01*
X119756242Y-79118362D01*
X119556364Y-79318240D01*
X119401001Y-79550758D01*
X119245638Y-79318240D01*
X119045760Y-79118362D01*
X118810728Y-78961319D01*
X118549575Y-78853146D01*
X118272336Y-78797999D01*
X117989666Y-78797999D01*
X117712427Y-78853146D01*
X117451274Y-78961319D01*
X117216242Y-79118362D01*
X117016364Y-79318240D01*
X116861001Y-79550758D01*
X116705638Y-79318240D01*
X116505760Y-79118362D01*
X116270728Y-78961319D01*
X116009575Y-78853146D01*
X115732336Y-78797999D01*
X115449666Y-78797999D01*
X115172427Y-78853146D01*
X114911274Y-78961319D01*
X114676242Y-79118362D01*
X114476364Y-79318240D01*
X114319321Y-79553272D01*
X114211148Y-79814425D01*
X114156001Y-80091664D01*
X105959336Y-80091664D01*
X109628001Y-76423000D01*
X128624000Y-76423000D01*
X129846002Y-77645003D01*
X129846001Y-79188603D01*
X129716364Y-79318240D01*
X129559321Y-79553272D01*
X129554934Y-79563864D01*
X129443386Y-79377868D01*
X129254415Y-79169480D01*
X129028421Y-79001962D01*
X128774088Y-78881753D01*
X128640040Y-78841095D01*
X128418001Y-78963084D01*
X128418001Y-80105999D01*
X128438001Y-80105999D01*
X128438001Y-80359999D01*
X128418001Y-80359999D01*
X128418001Y-81502914D01*
X128640040Y-81624903D01*
X128774088Y-81584245D01*
X129028421Y-81464036D01*
X129254415Y-81296518D01*
X129443386Y-81088130D01*
X129554934Y-80902134D01*
X129559321Y-80912726D01*
X129716364Y-81147758D01*
X129825001Y-81256395D01*
X129825000Y-82521604D01*
X129695363Y-82651241D01*
X129538320Y-82886273D01*
X129430147Y-83147426D01*
X129375000Y-83424665D01*
X129375000Y-83707335D01*
X129430147Y-83984574D01*
X129538320Y-84245727D01*
X129695363Y-84480759D01*
X129895241Y-84680637D01*
X130130273Y-84837680D01*
X130391426Y-84945853D01*
X130668665Y-85001000D01*
X130951335Y-85001000D01*
X131228574Y-84945853D01*
X131489727Y-84837680D01*
X131724759Y-84680637D01*
X131924637Y-84480759D01*
X132081680Y-84245727D01*
X132189853Y-83984574D01*
X132245000Y-83707335D01*
X132245000Y-83424665D01*
X132189853Y-83147426D01*
X132081680Y-82886273D01*
X131924637Y-82651241D01*
X131795000Y-82521604D01*
X131795000Y-81298396D01*
X131945638Y-81147758D01*
X132102681Y-80912726D01*
X132210854Y-80651573D01*
X132266001Y-80374334D01*
X132266001Y-80091664D01*
X132210854Y-79814425D01*
X132102681Y-79553272D01*
X131945638Y-79318240D01*
X131816001Y-79188603D01*
X131816001Y-77285381D01*
X131820766Y-77237001D01*
X131801748Y-77043907D01*
X131745425Y-76858234D01*
X131653961Y-76687117D01*
X131561711Y-76574710D01*
X131530871Y-76537131D01*
X131493291Y-76506290D01*
X129762716Y-74775716D01*
X129731870Y-74738130D01*
X129581884Y-74615040D01*
X129410767Y-74523576D01*
X129225094Y-74467253D01*
X129080380Y-74453000D01*
X129032000Y-74448235D01*
X128983620Y-74453000D01*
X109268380Y-74453000D01*
X109220000Y-74448235D01*
X109171620Y-74453000D01*
X109026906Y-74467253D01*
X108841233Y-74523576D01*
X108670116Y-74615040D01*
X108520130Y-74738130D01*
X108489289Y-74775710D01*
X103731716Y-79533284D01*
X103694130Y-79564130D01*
X103571040Y-79714116D01*
X103479577Y-79885233D01*
X103479576Y-79885234D01*
X103423253Y-80070907D01*
X103404235Y-80264000D01*
X103409000Y-80312380D01*
X103409001Y-87894623D01*
X103387406Y-87883081D01*
X103258283Y-87843912D01*
X103157647Y-87834000D01*
X103124000Y-87830686D01*
X103090353Y-87834000D01*
X96807647Y-87834000D01*
X96774000Y-87830686D01*
X96740353Y-87834000D01*
X96639717Y-87843912D01*
X96510594Y-87883081D01*
X96391593Y-87946688D01*
X96287289Y-88032289D01*
X96201688Y-88136593D01*
X96138081Y-88255594D01*
X96098912Y-88384717D01*
X96085686Y-88519000D01*
X95377000Y-88519000D01*
X95377000Y-70724665D01*
X111595000Y-70724665D01*
X111595000Y-71007335D01*
X111650147Y-71284574D01*
X111758320Y-71545727D01*
X111915363Y-71780759D01*
X112115241Y-71980637D01*
X112350273Y-72137680D01*
X112611426Y-72245853D01*
X112888665Y-72301000D01*
X113171335Y-72301000D01*
X113448574Y-72245853D01*
X113709727Y-72137680D01*
X113944759Y-71980637D01*
X114144637Y-71780759D01*
X114300000Y-71548241D01*
X114455363Y-71780759D01*
X114655241Y-71980637D01*
X114890273Y-72137680D01*
X115151426Y-72245853D01*
X115428665Y-72301000D01*
X115711335Y-72301000D01*
X115988574Y-72245853D01*
X116249727Y-72137680D01*
X116484759Y-71980637D01*
X116684637Y-71780759D01*
X116840000Y-71548241D01*
X116995363Y-71780759D01*
X117195241Y-71980637D01*
X117430273Y-72137680D01*
X117691426Y-72245853D01*
X117968665Y-72301000D01*
X118251335Y-72301000D01*
X118528574Y-72245853D01*
X118789727Y-72137680D01*
X119024759Y-71980637D01*
X119224637Y-71780759D01*
X119380000Y-71548241D01*
X119535363Y-71780759D01*
X119735241Y-71980637D01*
X119970273Y-72137680D01*
X120231426Y-72245853D01*
X120508665Y-72301000D01*
X120791335Y-72301000D01*
X121068574Y-72245853D01*
X121329727Y-72137680D01*
X121564759Y-71980637D01*
X121764637Y-71780759D01*
X121920000Y-71548241D01*
X122075363Y-71780759D01*
X122275241Y-71980637D01*
X122510273Y-72137680D01*
X122771426Y-72245853D01*
X123048665Y-72301000D01*
X123331335Y-72301000D01*
X123608574Y-72245853D01*
X123869727Y-72137680D01*
X124104759Y-71980637D01*
X124304637Y-71780759D01*
X124460000Y-71548241D01*
X124615363Y-71780759D01*
X124815241Y-71980637D01*
X125050273Y-72137680D01*
X125311426Y-72245853D01*
X125588665Y-72301000D01*
X125871335Y-72301000D01*
X126148574Y-72245853D01*
X126409727Y-72137680D01*
X126644759Y-71980637D01*
X126844637Y-71780759D01*
X127000000Y-71548241D01*
X127155363Y-71780759D01*
X127355241Y-71980637D01*
X127590273Y-72137680D01*
X127851426Y-72245853D01*
X128128665Y-72301000D01*
X128411335Y-72301000D01*
X128688574Y-72245853D01*
X128949727Y-72137680D01*
X129184759Y-71980637D01*
X129384637Y-71780759D01*
X129540000Y-71548241D01*
X129695363Y-71780759D01*
X129895241Y-71980637D01*
X130130273Y-72137680D01*
X130391426Y-72245853D01*
X130668665Y-72301000D01*
X130951335Y-72301000D01*
X131228574Y-72245853D01*
X131489727Y-72137680D01*
X131724759Y-71980637D01*
X131924637Y-71780759D01*
X132081680Y-71545727D01*
X132189853Y-71284574D01*
X132245000Y-71007335D01*
X132245000Y-70724665D01*
X132189853Y-70447426D01*
X132081680Y-70186273D01*
X131924637Y-69951241D01*
X131724759Y-69751363D01*
X131489727Y-69594320D01*
X131228574Y-69486147D01*
X130951335Y-69431000D01*
X130668665Y-69431000D01*
X130391426Y-69486147D01*
X130130273Y-69594320D01*
X129895241Y-69751363D01*
X129695363Y-69951241D01*
X129540000Y-70183759D01*
X129384637Y-69951241D01*
X129184759Y-69751363D01*
X128949727Y-69594320D01*
X128688574Y-69486147D01*
X128411335Y-69431000D01*
X128128665Y-69431000D01*
X127851426Y-69486147D01*
X127590273Y-69594320D01*
X127355241Y-69751363D01*
X127155363Y-69951241D01*
X127000000Y-70183759D01*
X126844637Y-69951241D01*
X126644759Y-69751363D01*
X126409727Y-69594320D01*
X126148574Y-69486147D01*
X125871335Y-69431000D01*
X125588665Y-69431000D01*
X125311426Y-69486147D01*
X125050273Y-69594320D01*
X124815241Y-69751363D01*
X124615363Y-69951241D01*
X124460000Y-70183759D01*
X124304637Y-69951241D01*
X124104759Y-69751363D01*
X123869727Y-69594320D01*
X123608574Y-69486147D01*
X123331335Y-69431000D01*
X123048665Y-69431000D01*
X122771426Y-69486147D01*
X122510273Y-69594320D01*
X122275241Y-69751363D01*
X122075363Y-69951241D01*
X121920000Y-70183759D01*
X121764637Y-69951241D01*
X121564759Y-69751363D01*
X121329727Y-69594320D01*
X121068574Y-69486147D01*
X120791335Y-69431000D01*
X120508665Y-69431000D01*
X120231426Y-69486147D01*
X119970273Y-69594320D01*
X119735241Y-69751363D01*
X119535363Y-69951241D01*
X119380000Y-70183759D01*
X119224637Y-69951241D01*
X119024759Y-69751363D01*
X118789727Y-69594320D01*
X118528574Y-69486147D01*
X118251335Y-69431000D01*
X117968665Y-69431000D01*
X117691426Y-69486147D01*
X117430273Y-69594320D01*
X117195241Y-69751363D01*
X116995363Y-69951241D01*
X116840000Y-70183759D01*
X116684637Y-69951241D01*
X116484759Y-69751363D01*
X116249727Y-69594320D01*
X115988574Y-69486147D01*
X115711335Y-69431000D01*
X115428665Y-69431000D01*
X115151426Y-69486147D01*
X114890273Y-69594320D01*
X114655241Y-69751363D01*
X114455363Y-69951241D01*
X114300000Y-70183759D01*
X114144637Y-69951241D01*
X113944759Y-69751363D01*
X113709727Y-69594320D01*
X113448574Y-69486147D01*
X113171335Y-69431000D01*
X112888665Y-69431000D01*
X112611426Y-69486147D01*
X112350273Y-69594320D01*
X112115241Y-69751363D01*
X111915363Y-69951241D01*
X111758320Y-70186273D01*
X111650147Y-70447426D01*
X111595000Y-70724665D01*
X95377000Y-70724665D01*
X95377000Y-67391664D01*
X111616001Y-67391664D01*
X111616001Y-67674334D01*
X111671148Y-67951573D01*
X111779321Y-68212726D01*
X111936364Y-68447758D01*
X112136242Y-68647636D01*
X112371274Y-68804679D01*
X112632427Y-68912852D01*
X112909666Y-68967999D01*
X113192336Y-68967999D01*
X113469575Y-68912852D01*
X113730728Y-68804679D01*
X113965760Y-68647636D01*
X114165638Y-68447758D01*
X114321001Y-68215240D01*
X114476364Y-68447758D01*
X114676242Y-68647636D01*
X114911274Y-68804679D01*
X115172427Y-68912852D01*
X115449666Y-68967999D01*
X115732336Y-68967999D01*
X116009575Y-68912852D01*
X116270728Y-68804679D01*
X116505760Y-68647636D01*
X116705638Y-68447758D01*
X116861001Y-68215240D01*
X117016364Y-68447758D01*
X117216242Y-68647636D01*
X117451274Y-68804679D01*
X117712427Y-68912852D01*
X117989666Y-68967999D01*
X118272336Y-68967999D01*
X118549575Y-68912852D01*
X118810728Y-68804679D01*
X119045760Y-68647636D01*
X119245638Y-68447758D01*
X119401001Y-68215240D01*
X119556364Y-68447758D01*
X119756242Y-68647636D01*
X119991274Y-68804679D01*
X120252427Y-68912852D01*
X120529666Y-68967999D01*
X120812336Y-68967999D01*
X121089575Y-68912852D01*
X121350728Y-68804679D01*
X121585760Y-68647636D01*
X121785638Y-68447758D01*
X121941001Y-68215240D01*
X122096364Y-68447758D01*
X122296242Y-68647636D01*
X122531274Y-68804679D01*
X122792427Y-68912852D01*
X123069666Y-68967999D01*
X123352336Y-68967999D01*
X123629575Y-68912852D01*
X123890728Y-68804679D01*
X124125760Y-68647636D01*
X124325638Y-68447758D01*
X124481001Y-68215240D01*
X124636364Y-68447758D01*
X124836242Y-68647636D01*
X125071274Y-68804679D01*
X125332427Y-68912852D01*
X125609666Y-68967999D01*
X125892336Y-68967999D01*
X126169575Y-68912852D01*
X126430728Y-68804679D01*
X126665760Y-68647636D01*
X126865638Y-68447758D01*
X127021001Y-68215240D01*
X127176364Y-68447758D01*
X127376242Y-68647636D01*
X127611274Y-68804679D01*
X127872427Y-68912852D01*
X128149666Y-68967999D01*
X128432336Y-68967999D01*
X128709575Y-68912852D01*
X128970728Y-68804679D01*
X129205760Y-68647636D01*
X129405638Y-68447758D01*
X129561001Y-68215240D01*
X129716364Y-68447758D01*
X129916242Y-68647636D01*
X130151274Y-68804679D01*
X130412427Y-68912852D01*
X130689666Y-68967999D01*
X130972336Y-68967999D01*
X131249575Y-68912852D01*
X131510728Y-68804679D01*
X131745760Y-68647636D01*
X131945638Y-68447758D01*
X132102681Y-68212726D01*
X132210854Y-67951573D01*
X132266001Y-67674334D01*
X132266001Y-67391664D01*
X132210854Y-67114425D01*
X132102681Y-66853272D01*
X131945638Y-66618240D01*
X131745760Y-66418362D01*
X131510728Y-66261319D01*
X131249575Y-66153146D01*
X130972336Y-66097999D01*
X130689666Y-66097999D01*
X130412427Y-66153146D01*
X130151274Y-66261319D01*
X129916242Y-66418362D01*
X129716364Y-66618240D01*
X129561001Y-66850758D01*
X129405638Y-66618240D01*
X129205760Y-66418362D01*
X128970728Y-66261319D01*
X128709575Y-66153146D01*
X128432336Y-66097999D01*
X128149666Y-66097999D01*
X127872427Y-66153146D01*
X127611274Y-66261319D01*
X127376242Y-66418362D01*
X127176364Y-66618240D01*
X127021001Y-66850758D01*
X126865638Y-66618240D01*
X126665760Y-66418362D01*
X126430728Y-66261319D01*
X126169575Y-66153146D01*
X125892336Y-66097999D01*
X125609666Y-66097999D01*
X125332427Y-66153146D01*
X125071274Y-66261319D01*
X124836242Y-66418362D01*
X124636364Y-66618240D01*
X124481001Y-66850758D01*
X124325638Y-66618240D01*
X124125760Y-66418362D01*
X123890728Y-66261319D01*
X123629575Y-66153146D01*
X123352336Y-66097999D01*
X123069666Y-66097999D01*
X122792427Y-66153146D01*
X122531274Y-66261319D01*
X122296242Y-66418362D01*
X122096364Y-66618240D01*
X121941001Y-66850758D01*
X121785638Y-66618240D01*
X121585760Y-66418362D01*
X121350728Y-66261319D01*
X121089575Y-66153146D01*
X120812336Y-66097999D01*
X120529666Y-66097999D01*
X120252427Y-66153146D01*
X119991274Y-66261319D01*
X119756242Y-66418362D01*
X119556364Y-66618240D01*
X119401001Y-66850758D01*
X119245638Y-66618240D01*
X119045760Y-66418362D01*
X118810728Y-66261319D01*
X118549575Y-66153146D01*
X118272336Y-66097999D01*
X117989666Y-66097999D01*
X117712427Y-66153146D01*
X117451274Y-66261319D01*
X117216242Y-66418362D01*
X117016364Y-66618240D01*
X116861001Y-66850758D01*
X116705638Y-66618240D01*
X116505760Y-66418362D01*
X116270728Y-66261319D01*
X116009575Y-66153146D01*
X115732336Y-66097999D01*
X115449666Y-66097999D01*
X115172427Y-66153146D01*
X114911274Y-66261319D01*
X114676242Y-66418362D01*
X114476364Y-66618240D01*
X114321001Y-66850758D01*
X114165638Y-66618240D01*
X113965760Y-66418362D01*
X113730728Y-66261319D01*
X113469575Y-66153146D01*
X113192336Y-66097999D01*
X112909666Y-66097999D01*
X112632427Y-66153146D01*
X112371274Y-66261319D01*
X112136242Y-66418362D01*
X111936364Y-66618240D01*
X111779321Y-66853272D01*
X111671148Y-67114425D01*
X111616001Y-67391664D01*
X95377000Y-67391664D01*
X95377000Y-58547000D01*
X168148000Y-58547000D01*
X168148000Y-81153000D01*
G04 #@! TA.AperFunction,Conductor*
D25*
G36*
X168148000Y-81153000D02*
G01*
X168150440Y-81177776D01*
X168157667Y-81201601D01*
X168169403Y-81223557D01*
X168185197Y-81242803D01*
X168204443Y-81258597D01*
X168226399Y-81270333D01*
X168250224Y-81277560D01*
X168275000Y-81280000D01*
X192151000Y-81280000D01*
X192151000Y-154305000D01*
X131816912Y-154305000D01*
X131836964Y-154303025D01*
X131980225Y-154259568D01*
X132112254Y-154188996D01*
X132227979Y-154094023D01*
X132251782Y-154065019D01*
X139311407Y-147005395D01*
X139430398Y-146981726D01*
X139618756Y-146903705D01*
X139788274Y-146790437D01*
X139932437Y-146646274D01*
X140045705Y-146476756D01*
X140123726Y-146288398D01*
X140163500Y-146088439D01*
X140163500Y-145884561D01*
X140123726Y-145684602D01*
X140045705Y-145496244D01*
X139932437Y-145326726D01*
X139788274Y-145182563D01*
X139618756Y-145069295D01*
X139430398Y-144991274D01*
X139230439Y-144951500D01*
X139026561Y-144951500D01*
X138826602Y-144991274D01*
X138638244Y-145069295D01*
X138468726Y-145182563D01*
X138324563Y-145326726D01*
X138211295Y-145496244D01*
X138133274Y-145684602D01*
X138093500Y-145884561D01*
X138093500Y-146073698D01*
X131373177Y-152794022D01*
X125205690Y-152794022D01*
X130730830Y-147268882D01*
X130820417Y-147402957D01*
X131005043Y-147587583D01*
X131222140Y-147732643D01*
X131463366Y-147832562D01*
X131719450Y-147883500D01*
X131980550Y-147883500D01*
X132236634Y-147832562D01*
X132477860Y-147732643D01*
X132694957Y-147587583D01*
X132879583Y-147402957D01*
X133024643Y-147185860D01*
X133124562Y-146944634D01*
X133175500Y-146688550D01*
X133175500Y-146427450D01*
X133141802Y-146258036D01*
X133334398Y-146219726D01*
X133522756Y-146141705D01*
X133612586Y-146081683D01*
X133575438Y-146171366D01*
X133524500Y-146427450D01*
X133524500Y-146688550D01*
X133575438Y-146944634D01*
X133675357Y-147185860D01*
X133820417Y-147402957D01*
X134005043Y-147587583D01*
X134222140Y-147732643D01*
X134463366Y-147832562D01*
X134719450Y-147883500D01*
X134980550Y-147883500D01*
X135236634Y-147832562D01*
X135477860Y-147732643D01*
X135694957Y-147587583D01*
X135879583Y-147402957D01*
X136024643Y-147185860D01*
X136124562Y-146944634D01*
X136175500Y-146688550D01*
X136175500Y-146427450D01*
X136124562Y-146171366D01*
X136024643Y-145930140D01*
X135879583Y-145713043D01*
X135694957Y-145528417D01*
X135477860Y-145383357D01*
X135236634Y-145283438D01*
X134980550Y-145232500D01*
X134719450Y-145232500D01*
X134463366Y-145283438D01*
X134222140Y-145383357D01*
X134030740Y-145511247D01*
X134067500Y-145326439D01*
X134067500Y-145122561D01*
X134027726Y-144922602D01*
X133949705Y-144734244D01*
X133836437Y-144564726D01*
X133692274Y-144420563D01*
X133522756Y-144307295D01*
X133334398Y-144229274D01*
X133134439Y-144189500D01*
X132960040Y-144189500D01*
X132967000Y-144118833D01*
X132967000Y-144118825D01*
X132970676Y-144081500D01*
X132967000Y-144044175D01*
X132967000Y-143508000D01*
X137162699Y-143508000D01*
X137458500Y-143803802D01*
X137458500Y-143865939D01*
X137498274Y-144065898D01*
X137576295Y-144254256D01*
X137689563Y-144423774D01*
X137833726Y-144567937D01*
X138003244Y-144681205D01*
X138191602Y-144759226D01*
X138391561Y-144799000D01*
X138595439Y-144799000D01*
X138795398Y-144759226D01*
X138983756Y-144681205D01*
X139153274Y-144567937D01*
X139297437Y-144423774D01*
X139410705Y-144254256D01*
X139488726Y-144065898D01*
X139528500Y-143865939D01*
X139528500Y-143662061D01*
X139488726Y-143462102D01*
X139410705Y-143273744D01*
X139297437Y-143104226D01*
X139153274Y-142960063D01*
X138983756Y-142846795D01*
X138829718Y-142782990D01*
X148883689Y-142782990D01*
X152317500Y-146216802D01*
X152317500Y-146278939D01*
X152357274Y-146478898D01*
X152435295Y-146667256D01*
X152548563Y-146836774D01*
X152692726Y-146980937D01*
X152862244Y-147094205D01*
X153050602Y-147172226D01*
X153250561Y-147212000D01*
X153454439Y-147212000D01*
X153654398Y-147172226D01*
X153842756Y-147094205D01*
X154012274Y-146980937D01*
X154156437Y-146836774D01*
X154269705Y-146667256D01*
X154347726Y-146478898D01*
X154387500Y-146278939D01*
X154387500Y-146075061D01*
X154347726Y-145875102D01*
X154269705Y-145686744D01*
X154156437Y-145517226D01*
X154122971Y-145483760D01*
X154202774Y-145430437D01*
X154346937Y-145286274D01*
X154460205Y-145116756D01*
X154538226Y-144928398D01*
X154578000Y-144728439D01*
X154578000Y-144666301D01*
X155799802Y-143444500D01*
X156395289Y-143444500D01*
X156439226Y-143488437D01*
X156608744Y-143601705D01*
X156797102Y-143679726D01*
X156997061Y-143719500D01*
X157200939Y-143719500D01*
X157400898Y-143679726D01*
X157589256Y-143601705D01*
X157758774Y-143488437D01*
X157902937Y-143344274D01*
X158016205Y-143174756D01*
X158094226Y-142986398D01*
X158134000Y-142786439D01*
X158134000Y-142582561D01*
X158094226Y-142382602D01*
X158016205Y-142194244D01*
X157902937Y-142024726D01*
X157758774Y-141880563D01*
X157589256Y-141767295D01*
X157400898Y-141689274D01*
X157200939Y-141649500D01*
X156997061Y-141649500D01*
X156797102Y-141689274D01*
X156608744Y-141767295D01*
X156439226Y-141880563D01*
X156395289Y-141924500D01*
X155522325Y-141924500D01*
X155485000Y-141920824D01*
X155447675Y-141924500D01*
X155447667Y-141924500D01*
X155336014Y-141935497D01*
X155192753Y-141978954D01*
X155060724Y-142049526D01*
X154944999Y-142144499D01*
X154921201Y-142173497D01*
X153503199Y-143591500D01*
X153441061Y-143591500D01*
X153241102Y-143631274D01*
X153052744Y-143709295D01*
X152883226Y-143822563D01*
X152739063Y-143966726D01*
X152625795Y-144136244D01*
X152555720Y-144305418D01*
X149762294Y-141511993D01*
X149738491Y-141482989D01*
X149622766Y-141388016D01*
X149490737Y-141317444D01*
X149347476Y-141273987D01*
X149235925Y-141263000D01*
X158912928Y-141263000D01*
X158912928Y-142963000D01*
X158925188Y-143087482D01*
X158961498Y-143207180D01*
X159020463Y-143317494D01*
X159099815Y-143414185D01*
X159196506Y-143493537D01*
X159306820Y-143552502D01*
X159379380Y-143574513D01*
X159247525Y-143706368D01*
X159085010Y-143949589D01*
X158973068Y-144219842D01*
X158916000Y-144506740D01*
X158916000Y-144799260D01*
X158973068Y-145086158D01*
X159085010Y-145356411D01*
X159247525Y-145599632D01*
X159454368Y-145806475D01*
X159697589Y-145968990D01*
X159967842Y-146080932D01*
X160254740Y-146138000D01*
X160547260Y-146138000D01*
X160834158Y-146080932D01*
X161104411Y-145968990D01*
X161347632Y-145806475D01*
X161554475Y-145599632D01*
X161716990Y-145356411D01*
X161828932Y-145086158D01*
X161886000Y-144799260D01*
X161886000Y-144506740D01*
X161828932Y-144219842D01*
X161716990Y-143949589D01*
X161554475Y-143706368D01*
X161422620Y-143574513D01*
X161495180Y-143552502D01*
X161605494Y-143493537D01*
X161702185Y-143414185D01*
X161781537Y-143317494D01*
X161840502Y-143207180D01*
X161876812Y-143087482D01*
X161889072Y-142963000D01*
X161889072Y-141263000D01*
X162595928Y-141263000D01*
X162595928Y-142963000D01*
X162608188Y-143087482D01*
X162644498Y-143207180D01*
X162703463Y-143317494D01*
X162782815Y-143414185D01*
X162879506Y-143493537D01*
X162989820Y-143552502D01*
X163062380Y-143574513D01*
X162930525Y-143706368D01*
X162768010Y-143949589D01*
X162656068Y-144219842D01*
X162599000Y-144506740D01*
X162599000Y-144799260D01*
X162656068Y-145086158D01*
X162768010Y-145356411D01*
X162930525Y-145599632D01*
X163137368Y-145806475D01*
X163311760Y-145923000D01*
X163137368Y-146039525D01*
X162930525Y-146246368D01*
X162768010Y-146489589D01*
X162656068Y-146759842D01*
X162599000Y-147046740D01*
X162599000Y-147339260D01*
X162656068Y-147626158D01*
X162768010Y-147896411D01*
X162930525Y-148139632D01*
X163137368Y-148346475D01*
X163380589Y-148508990D01*
X163650842Y-148620932D01*
X163937740Y-148678000D01*
X164230260Y-148678000D01*
X164517158Y-148620932D01*
X164787411Y-148508990D01*
X165030632Y-148346475D01*
X165237475Y-148139632D01*
X165399990Y-147896411D01*
X165511932Y-147626158D01*
X165569000Y-147339260D01*
X165569000Y-147046740D01*
X165511932Y-146759842D01*
X165399990Y-146489589D01*
X165237475Y-146246368D01*
X165030632Y-146039525D01*
X164856240Y-145923000D01*
X165030632Y-145806475D01*
X165237475Y-145599632D01*
X165399990Y-145356411D01*
X165511932Y-145086158D01*
X165569000Y-144799260D01*
X165569000Y-144506740D01*
X165511932Y-144219842D01*
X165399990Y-143949589D01*
X165237475Y-143706368D01*
X165105620Y-143574513D01*
X165178180Y-143552502D01*
X165288494Y-143493537D01*
X165385185Y-143414185D01*
X165464537Y-143317494D01*
X165523502Y-143207180D01*
X165559812Y-143087482D01*
X165572072Y-142963000D01*
X165572072Y-141948000D01*
X174456928Y-141948000D01*
X174456928Y-143548000D01*
X174469188Y-143672482D01*
X174505498Y-143792180D01*
X174564463Y-143902494D01*
X174643815Y-143999185D01*
X174740506Y-144078537D01*
X174850820Y-144137502D01*
X174970518Y-144173812D01*
X175095000Y-144186072D01*
X176695000Y-144186072D01*
X176819482Y-144173812D01*
X176939180Y-144137502D01*
X177049494Y-144078537D01*
X177146185Y-143999185D01*
X177225537Y-143902494D01*
X177284502Y-143792180D01*
X177320812Y-143672482D01*
X177321643Y-143664039D01*
X177520241Y-143862637D01*
X177755273Y-144019680D01*
X178016426Y-144127853D01*
X178293665Y-144183000D01*
X178576335Y-144183000D01*
X178853574Y-144127853D01*
X179114727Y-144019680D01*
X179349759Y-143862637D01*
X179549637Y-143662759D01*
X179705000Y-143430241D01*
X179860363Y-143662759D01*
X180060241Y-143862637D01*
X180295273Y-144019680D01*
X180556426Y-144127853D01*
X180833665Y-144183000D01*
X181116335Y-144183000D01*
X181393574Y-144127853D01*
X181654727Y-144019680D01*
X181889759Y-143862637D01*
X182089637Y-143662759D01*
X182245000Y-143430241D01*
X182400363Y-143662759D01*
X182600241Y-143862637D01*
X182835273Y-144019680D01*
X183096426Y-144127853D01*
X183373665Y-144183000D01*
X183656335Y-144183000D01*
X183933574Y-144127853D01*
X184194727Y-144019680D01*
X184429759Y-143862637D01*
X184629637Y-143662759D01*
X184786680Y-143427727D01*
X184894853Y-143166574D01*
X184950000Y-142889335D01*
X184950000Y-142606665D01*
X184894853Y-142329426D01*
X184786680Y-142068273D01*
X184629637Y-141833241D01*
X184429759Y-141633363D01*
X184194727Y-141476320D01*
X183933574Y-141368147D01*
X183656335Y-141313000D01*
X183373665Y-141313000D01*
X183096426Y-141368147D01*
X182835273Y-141476320D01*
X182600241Y-141633363D01*
X182400363Y-141833241D01*
X182245000Y-142065759D01*
X182089637Y-141833241D01*
X181889759Y-141633363D01*
X181654727Y-141476320D01*
X181393574Y-141368147D01*
X181116335Y-141313000D01*
X180833665Y-141313000D01*
X180556426Y-141368147D01*
X180295273Y-141476320D01*
X180060241Y-141633363D01*
X179860363Y-141833241D01*
X179705000Y-142065759D01*
X179549637Y-141833241D01*
X179349759Y-141633363D01*
X179114727Y-141476320D01*
X178853574Y-141368147D01*
X178576335Y-141313000D01*
X178293665Y-141313000D01*
X178016426Y-141368147D01*
X177755273Y-141476320D01*
X177520241Y-141633363D01*
X177321643Y-141831961D01*
X177320812Y-141823518D01*
X177284502Y-141703820D01*
X177225537Y-141593506D01*
X177146185Y-141496815D01*
X177049494Y-141417463D01*
X176939180Y-141358498D01*
X176819482Y-141322188D01*
X176695000Y-141309928D01*
X175095000Y-141309928D01*
X174970518Y-141322188D01*
X174850820Y-141358498D01*
X174740506Y-141417463D01*
X174643815Y-141496815D01*
X174564463Y-141593506D01*
X174505498Y-141703820D01*
X174469188Y-141823518D01*
X174456928Y-141948000D01*
X165572072Y-141948000D01*
X165572072Y-141263000D01*
X165559812Y-141138518D01*
X165523502Y-141018820D01*
X165464537Y-140908506D01*
X165385185Y-140811815D01*
X165288494Y-140732463D01*
X165178180Y-140673498D01*
X165058482Y-140637188D01*
X164934000Y-140624928D01*
X163234000Y-140624928D01*
X163109518Y-140637188D01*
X162989820Y-140673498D01*
X162879506Y-140732463D01*
X162782815Y-140811815D01*
X162703463Y-140908506D01*
X162644498Y-141018820D01*
X162608188Y-141138518D01*
X162595928Y-141263000D01*
X161889072Y-141263000D01*
X161876812Y-141138518D01*
X161840502Y-141018820D01*
X161781537Y-140908506D01*
X161702185Y-140811815D01*
X161605494Y-140732463D01*
X161495180Y-140673498D01*
X161375482Y-140637188D01*
X161251000Y-140624928D01*
X159551000Y-140624928D01*
X159426518Y-140637188D01*
X159306820Y-140673498D01*
X159196506Y-140732463D01*
X159099815Y-140811815D01*
X159020463Y-140908506D01*
X158961498Y-141018820D01*
X158925188Y-141138518D01*
X158912928Y-141263000D01*
X149235925Y-141263000D01*
X149235823Y-141262990D01*
X149235812Y-141262990D01*
X149198490Y-141259314D01*
X149161168Y-141262990D01*
X135006211Y-141262990D01*
X134962274Y-141219053D01*
X134792756Y-141105785D01*
X134604398Y-141027764D01*
X134404439Y-140987990D01*
X134200561Y-140987990D01*
X134000602Y-141027764D01*
X133812244Y-141105785D01*
X133642726Y-141219053D01*
X133498563Y-141363216D01*
X133385295Y-141532734D01*
X133307274Y-141721092D01*
X133267500Y-141921051D01*
X133267500Y-141988000D01*
X132434825Y-141988000D01*
X132397500Y-141984324D01*
X132360175Y-141988000D01*
X132360167Y-141988000D01*
X132248514Y-141998997D01*
X132105253Y-142042454D01*
X131973224Y-142113026D01*
X131857499Y-142207999D01*
X131833696Y-142237003D01*
X131695998Y-142374701D01*
X131667000Y-142398499D01*
X131643202Y-142427497D01*
X131643201Y-142427498D01*
X131572026Y-142514224D01*
X131501454Y-142646254D01*
X131478193Y-142722939D01*
X131464623Y-142767676D01*
X131457998Y-142789515D01*
X131443324Y-142938500D01*
X131447001Y-142975832D01*
X131447000Y-143766698D01*
X123319699Y-151894000D01*
X99184302Y-151894000D01*
X98364502Y-151074201D01*
X98277776Y-151003026D01*
X98174769Y-150947967D01*
X97139763Y-149912962D01*
X97153593Y-149924312D01*
X97272594Y-149987919D01*
X97401717Y-150027088D01*
X97536000Y-150040314D01*
X97670282Y-150027088D01*
X97720021Y-150012000D01*
X101669979Y-150012000D01*
X101719718Y-150027088D01*
X101854000Y-150040314D01*
X101988283Y-150027088D01*
X102117406Y-149987919D01*
X102236407Y-149924312D01*
X102340711Y-149838711D01*
X102426312Y-149734407D01*
X102489919Y-149615406D01*
X102529088Y-149486283D01*
X102539000Y-149385647D01*
X102539000Y-146337647D01*
X102542314Y-146304000D01*
X102529088Y-146169717D01*
X102489919Y-146040594D01*
X102426312Y-145921593D01*
X102340711Y-145817289D01*
X102236407Y-145731688D01*
X102117406Y-145668081D01*
X101988283Y-145628912D01*
X101887647Y-145619000D01*
X101854000Y-145615686D01*
X101820353Y-145619000D01*
X97569647Y-145619000D01*
X97536000Y-145615686D01*
X97502353Y-145619000D01*
X97401717Y-145628912D01*
X97272594Y-145668081D01*
X97153593Y-145731688D01*
X97049289Y-145817289D01*
X96963688Y-145921593D01*
X96910022Y-146021996D01*
X96910022Y-137421918D01*
X97193088Y-137539168D01*
X97508967Y-137602000D01*
X97831033Y-137602000D01*
X98075504Y-137553372D01*
X98108569Y-137586437D01*
X98108574Y-137586441D01*
X98733001Y-138210869D01*
X98733000Y-140928981D01*
X98728960Y-140970000D01*
X98733000Y-141011018D01*
X98745082Y-141133688D01*
X98792828Y-141291086D01*
X98870364Y-141436145D01*
X98974709Y-141563291D01*
X99006579Y-141589446D01*
X99325211Y-141908078D01*
X99272063Y-141961226D01*
X99158795Y-142130744D01*
X99080774Y-142319102D01*
X99041000Y-142519061D01*
X99041000Y-142722939D01*
X99080774Y-142922898D01*
X99158795Y-143111256D01*
X99272063Y-143280774D01*
X99416226Y-143424937D01*
X99585744Y-143538205D01*
X99774102Y-143616226D01*
X99974061Y-143656000D01*
X100177939Y-143656000D01*
X100377503Y-143616304D01*
X107278200Y-150517002D01*
X107301998Y-150546000D01*
X107417723Y-150640973D01*
X107549752Y-150711545D01*
X107693013Y-150755002D01*
X107804666Y-150765999D01*
X107804674Y-150765999D01*
X107841999Y-150769675D01*
X107879324Y-150765999D01*
X116129156Y-150765999D01*
X116166478Y-150769675D01*
X116203800Y-150765999D01*
X116203811Y-150765999D01*
X116315464Y-150755002D01*
X116458725Y-150711545D01*
X116590754Y-150640973D01*
X116706479Y-150546000D01*
X116730282Y-150516996D01*
X130537578Y-136709701D01*
X130524500Y-136775450D01*
X130524500Y-137036550D01*
X130575438Y-137292634D01*
X130675357Y-137533860D01*
X130820417Y-137750957D01*
X131005043Y-137935583D01*
X131222140Y-138080643D01*
X131463366Y-138180562D01*
X131719450Y-138231500D01*
X131980550Y-138231500D01*
X132236634Y-138180562D01*
X132477860Y-138080643D01*
X132694957Y-137935583D01*
X132879583Y-137750957D01*
X133024643Y-137533860D01*
X133124562Y-137292634D01*
X133175500Y-137036550D01*
X133175500Y-136775450D01*
X133524500Y-136775450D01*
X133524500Y-137036550D01*
X133575438Y-137292634D01*
X133675357Y-137533860D01*
X133820417Y-137750957D01*
X134005043Y-137935583D01*
X134222140Y-138080643D01*
X134463366Y-138180562D01*
X134719450Y-138231500D01*
X134980550Y-138231500D01*
X135236634Y-138180562D01*
X135477860Y-138080643D01*
X135694957Y-137935583D01*
X135879583Y-137750957D01*
X136024643Y-137533860D01*
X136124562Y-137292634D01*
X136175500Y-137036550D01*
X136175500Y-136775450D01*
X136124562Y-136519366D01*
X136024643Y-136278140D01*
X135879583Y-136061043D01*
X135694957Y-135876417D01*
X135477860Y-135731357D01*
X135236634Y-135631438D01*
X134980550Y-135580500D01*
X134719450Y-135580500D01*
X134463366Y-135631438D01*
X134222140Y-135731357D01*
X134005043Y-135876417D01*
X133820417Y-136061043D01*
X133675357Y-136278140D01*
X133575438Y-136519366D01*
X133524500Y-136775450D01*
X133175500Y-136775450D01*
X133124562Y-136519366D01*
X133024643Y-136278140D01*
X132879583Y-136061043D01*
X132808626Y-135990086D01*
X132883937Y-135914774D01*
X132997205Y-135745256D01*
X133075226Y-135556898D01*
X133115000Y-135356939D01*
X133115000Y-135153061D01*
X133075226Y-134953102D01*
X132997205Y-134764744D01*
X132883937Y-134595226D01*
X132739774Y-134451063D01*
X132570256Y-134337795D01*
X132381898Y-134259774D01*
X132181939Y-134220000D01*
X131978061Y-134220000D01*
X131778102Y-134259774D01*
X131589744Y-134337795D01*
X131420226Y-134451063D01*
X131376289Y-134495000D01*
X130954800Y-134495000D01*
X130917477Y-134491324D01*
X130880154Y-134495000D01*
X130880144Y-134495000D01*
X130768491Y-134505997D01*
X130625230Y-134549454D01*
X130493201Y-134620026D01*
X130377476Y-134714999D01*
X130353678Y-134743997D01*
X121739000Y-143358676D01*
X121739000Y-134026018D01*
X121743040Y-133985000D01*
X121730532Y-133858001D01*
X121726918Y-133821311D01*
X121679172Y-133663913D01*
X121601636Y-133518854D01*
X121546770Y-133452000D01*
X121523439Y-133423570D01*
X121523437Y-133423568D01*
X121497291Y-133391709D01*
X121465433Y-133365564D01*
X119456869Y-131357000D01*
X158912928Y-131357000D01*
X158912928Y-133057000D01*
X158925188Y-133181482D01*
X158961498Y-133301180D01*
X159020463Y-133411494D01*
X159099815Y-133508185D01*
X159196506Y-133587537D01*
X159306820Y-133646502D01*
X159379380Y-133668513D01*
X159247525Y-133800368D01*
X159085010Y-134043589D01*
X158973068Y-134313842D01*
X158916000Y-134600740D01*
X158916000Y-134893260D01*
X158973068Y-135180158D01*
X159085010Y-135450411D01*
X159247525Y-135693632D01*
X159454368Y-135900475D01*
X159697589Y-136062990D01*
X159967842Y-136174932D01*
X160254740Y-136232000D01*
X160547260Y-136232000D01*
X160834158Y-136174932D01*
X161104411Y-136062990D01*
X161347632Y-135900475D01*
X161554475Y-135693632D01*
X161716990Y-135450411D01*
X161828932Y-135180158D01*
X161886000Y-134893260D01*
X161886000Y-134600740D01*
X161828932Y-134313842D01*
X161716990Y-134043589D01*
X161554475Y-133800368D01*
X161422620Y-133668513D01*
X161495180Y-133646502D01*
X161605494Y-133587537D01*
X161702185Y-133508185D01*
X161781537Y-133411494D01*
X161840502Y-133301180D01*
X161876812Y-133181482D01*
X161889072Y-133057000D01*
X161889072Y-131357000D01*
X162595928Y-131357000D01*
X162595928Y-133057000D01*
X162608188Y-133181482D01*
X162644498Y-133301180D01*
X162703463Y-133411494D01*
X162782815Y-133508185D01*
X162879506Y-133587537D01*
X162989820Y-133646502D01*
X163062380Y-133668513D01*
X162930525Y-133800368D01*
X162768010Y-134043589D01*
X162656068Y-134313842D01*
X162599000Y-134600740D01*
X162599000Y-134893260D01*
X162656068Y-135180158D01*
X162768010Y-135450411D01*
X162930525Y-135693632D01*
X163137368Y-135900475D01*
X163311760Y-136017000D01*
X163137368Y-136133525D01*
X162930525Y-136340368D01*
X162768010Y-136583589D01*
X162656068Y-136853842D01*
X162599000Y-137140740D01*
X162599000Y-137433260D01*
X162656068Y-137720158D01*
X162768010Y-137990411D01*
X162930525Y-138233632D01*
X163137368Y-138440475D01*
X163380589Y-138602990D01*
X163650842Y-138714932D01*
X163937740Y-138772000D01*
X164230260Y-138772000D01*
X164517158Y-138714932D01*
X164787411Y-138602990D01*
X165030632Y-138440475D01*
X165237475Y-138233632D01*
X165399990Y-137990411D01*
X165511932Y-137720158D01*
X165569000Y-137433260D01*
X165569000Y-137140740D01*
X165511932Y-136853842D01*
X165399990Y-136583589D01*
X165237475Y-136340368D01*
X165030632Y-136133525D01*
X164856240Y-136017000D01*
X165030632Y-135900475D01*
X165237475Y-135693632D01*
X165399990Y-135450411D01*
X165511932Y-135180158D01*
X165550420Y-134986665D01*
X174460000Y-134986665D01*
X174460000Y-135269335D01*
X174515147Y-135546574D01*
X174623320Y-135807727D01*
X174780363Y-136042759D01*
X174980241Y-136242637D01*
X175215273Y-136399680D01*
X175476426Y-136507853D01*
X175753665Y-136563000D01*
X176036335Y-136563000D01*
X176313574Y-136507853D01*
X176574727Y-136399680D01*
X176809759Y-136242637D01*
X177009637Y-136042759D01*
X177165000Y-135810241D01*
X177320363Y-136042759D01*
X177520241Y-136242637D01*
X177755273Y-136399680D01*
X178016426Y-136507853D01*
X178293665Y-136563000D01*
X178576335Y-136563000D01*
X178853574Y-136507853D01*
X179114727Y-136399680D01*
X179349759Y-136242637D01*
X179549637Y-136042759D01*
X179706680Y-135807727D01*
X179814853Y-135546574D01*
X179870000Y-135269335D01*
X179870000Y-134986665D01*
X182080000Y-134986665D01*
X182080000Y-135269335D01*
X182135147Y-135546574D01*
X182243320Y-135807727D01*
X182400363Y-136042759D01*
X182600241Y-136242637D01*
X182835273Y-136399680D01*
X183096426Y-136507853D01*
X183373665Y-136563000D01*
X183656335Y-136563000D01*
X183933574Y-136507853D01*
X184194727Y-136399680D01*
X184429759Y-136242637D01*
X184629637Y-136042759D01*
X184786680Y-135807727D01*
X184894853Y-135546574D01*
X184950000Y-135269335D01*
X184950000Y-134986665D01*
X184894853Y-134709426D01*
X184786680Y-134448273D01*
X184629637Y-134213241D01*
X184429759Y-134013363D01*
X184194727Y-133856320D01*
X183933574Y-133748147D01*
X183656335Y-133693000D01*
X183373665Y-133693000D01*
X183096426Y-133748147D01*
X182835273Y-133856320D01*
X182600241Y-134013363D01*
X182400363Y-134213241D01*
X182243320Y-134448273D01*
X182135147Y-134709426D01*
X182080000Y-134986665D01*
X179870000Y-134986665D01*
X179814853Y-134709426D01*
X179706680Y-134448273D01*
X179549637Y-134213241D01*
X179349759Y-134013363D01*
X179114727Y-133856320D01*
X178853574Y-133748147D01*
X178576335Y-133693000D01*
X178293665Y-133693000D01*
X178016426Y-133748147D01*
X177755273Y-133856320D01*
X177520241Y-134013363D01*
X177320363Y-134213241D01*
X177165000Y-134445759D01*
X177009637Y-134213241D01*
X176809759Y-134013363D01*
X176574727Y-133856320D01*
X176313574Y-133748147D01*
X176036335Y-133693000D01*
X175753665Y-133693000D01*
X175476426Y-133748147D01*
X175215273Y-133856320D01*
X174980241Y-134013363D01*
X174780363Y-134213241D01*
X174623320Y-134448273D01*
X174515147Y-134709426D01*
X174460000Y-134986665D01*
X165550420Y-134986665D01*
X165569000Y-134893260D01*
X165569000Y-134600740D01*
X165511932Y-134313842D01*
X165399990Y-134043589D01*
X165237475Y-133800368D01*
X165105620Y-133668513D01*
X165178180Y-133646502D01*
X165288494Y-133587537D01*
X165385185Y-133508185D01*
X165464537Y-133411494D01*
X165523502Y-133301180D01*
X165559812Y-133181482D01*
X165572072Y-133057000D01*
X165572072Y-131357000D01*
X165559812Y-131232518D01*
X165523502Y-131112820D01*
X165464537Y-131002506D01*
X165385185Y-130905815D01*
X165288494Y-130826463D01*
X165178180Y-130767498D01*
X165058482Y-130731188D01*
X164934000Y-130718928D01*
X163234000Y-130718928D01*
X163109518Y-130731188D01*
X162989820Y-130767498D01*
X162879506Y-130826463D01*
X162782815Y-130905815D01*
X162703463Y-131002506D01*
X162644498Y-131112820D01*
X162608188Y-131232518D01*
X162595928Y-131357000D01*
X161889072Y-131357000D01*
X161876812Y-131232518D01*
X161840502Y-131112820D01*
X161781537Y-131002506D01*
X161702185Y-130905815D01*
X161605494Y-130826463D01*
X161495180Y-130767498D01*
X161375482Y-130731188D01*
X161251000Y-130718928D01*
X159551000Y-130718928D01*
X159426518Y-130731188D01*
X159306820Y-130767498D01*
X159196506Y-130826463D01*
X159099815Y-130905815D01*
X159020463Y-131002506D01*
X158961498Y-131112820D01*
X158925188Y-131232518D01*
X158912928Y-131357000D01*
X119456869Y-131357000D01*
X117781303Y-129681435D01*
X117830600Y-129433599D01*
X117830600Y-129138401D01*
X117773010Y-128848875D01*
X117660042Y-128576147D01*
X117496039Y-128330698D01*
X117287302Y-128121961D01*
X117128719Y-128016000D01*
X117287302Y-127910039D01*
X117496039Y-127701302D01*
X117660042Y-127455853D01*
X117773010Y-127183125D01*
X117830600Y-126893599D01*
X117830600Y-126598401D01*
X117773010Y-126308875D01*
X117660042Y-126036147D01*
X117496039Y-125790698D01*
X117287302Y-125581961D01*
X117128719Y-125476000D01*
X117287302Y-125370039D01*
X117496039Y-125161302D01*
X117660042Y-124915853D01*
X117773010Y-124643125D01*
X117830600Y-124353599D01*
X117830600Y-124058401D01*
X117773010Y-123768875D01*
X117660042Y-123496147D01*
X117496039Y-123250698D01*
X117287302Y-123041961D01*
X117128719Y-122936000D01*
X117287302Y-122830039D01*
X117496039Y-122621302D01*
X117660042Y-122375853D01*
X117773010Y-122103125D01*
X117830600Y-121813599D01*
X117830600Y-121518401D01*
X117773010Y-121228875D01*
X117660042Y-120956147D01*
X117496039Y-120710698D01*
X117287302Y-120501961D01*
X117128719Y-120396000D01*
X117287302Y-120290039D01*
X117496039Y-120081302D01*
X117660042Y-119835853D01*
X117773010Y-119563125D01*
X117830600Y-119273599D01*
X117830600Y-118978401D01*
X117773010Y-118688875D01*
X117660042Y-118416147D01*
X117496039Y-118170698D01*
X117287302Y-117961961D01*
X117128719Y-117856000D01*
X117287302Y-117750039D01*
X117496039Y-117541302D01*
X117660042Y-117295853D01*
X117773010Y-117023125D01*
X117830600Y-116733599D01*
X117830600Y-116438401D01*
X117773010Y-116148875D01*
X117660042Y-115876147D01*
X117496039Y-115630698D01*
X117287302Y-115421961D01*
X117128719Y-115316000D01*
X117287302Y-115210039D01*
X117496039Y-115001302D01*
X117660042Y-114755853D01*
X117773010Y-114483125D01*
X117830600Y-114193599D01*
X117830600Y-113898401D01*
X117773010Y-113608875D01*
X117660042Y-113336147D01*
X117496039Y-113090698D01*
X117287302Y-112881961D01*
X117128719Y-112776000D01*
X117287302Y-112670039D01*
X117496039Y-112461302D01*
X117660042Y-112215853D01*
X117773010Y-111943125D01*
X117830600Y-111653599D01*
X117830600Y-111358401D01*
X117773010Y-111068875D01*
X117660042Y-110796147D01*
X117496039Y-110550698D01*
X117287302Y-110341961D01*
X117128719Y-110236000D01*
X117287302Y-110130039D01*
X117496039Y-109921302D01*
X117660042Y-109675853D01*
X117773010Y-109403125D01*
X117830600Y-109113599D01*
X117830600Y-108818401D01*
X117773010Y-108528875D01*
X117660042Y-108256147D01*
X117496039Y-108010698D01*
X117287302Y-107801961D01*
X117128719Y-107696000D01*
X117287302Y-107590039D01*
X117496039Y-107381302D01*
X117660042Y-107135853D01*
X117773010Y-106863125D01*
X117830600Y-106573599D01*
X117830600Y-106278401D01*
X117773010Y-105988875D01*
X117660042Y-105716147D01*
X117496039Y-105470698D01*
X117287302Y-105261961D01*
X117128719Y-105156000D01*
X117287302Y-105050039D01*
X117496039Y-104841302D01*
X117660042Y-104595853D01*
X117773010Y-104323125D01*
X117830600Y-104033599D01*
X117830600Y-103738401D01*
X117773010Y-103448875D01*
X117660042Y-103176147D01*
X117496039Y-102930698D01*
X117287302Y-102721961D01*
X117128719Y-102616000D01*
X117287302Y-102510039D01*
X117496039Y-102301302D01*
X117660042Y-102055853D01*
X117773010Y-101783125D01*
X117830600Y-101493599D01*
X117830600Y-101198401D01*
X117773010Y-100908875D01*
X117660042Y-100636147D01*
X117496039Y-100390698D01*
X117287302Y-100181961D01*
X117128719Y-100076000D01*
X117287302Y-99970039D01*
X117496039Y-99761302D01*
X117660042Y-99515853D01*
X117773010Y-99243125D01*
X117830600Y-98953599D01*
X117830600Y-98658401D01*
X117773010Y-98368875D01*
X117660042Y-98096147D01*
X117496039Y-97850698D01*
X117287302Y-97641961D01*
X117041853Y-97477958D01*
X116769125Y-97364990D01*
X116479599Y-97307400D01*
X116184401Y-97307400D01*
X115894875Y-97364990D01*
X115622147Y-97477958D01*
X115376698Y-97641961D01*
X115262636Y-97756023D01*
X115245102Y-97698220D01*
X115186137Y-97587906D01*
X115106785Y-97491215D01*
X115010094Y-97411863D01*
X114899780Y-97352898D01*
X114780082Y-97316588D01*
X114655600Y-97304328D01*
X112928400Y-97304328D01*
X112803918Y-97316588D01*
X112684220Y-97352898D01*
X112573906Y-97411863D01*
X112477215Y-97491215D01*
X112397863Y-97587906D01*
X112338898Y-97698220D01*
X112302588Y-97817918D01*
X112290328Y-97942400D01*
X112290328Y-99490562D01*
X112138903Y-99444627D01*
X111887000Y-99419818D01*
X111635097Y-99444627D01*
X111392873Y-99518106D01*
X111169639Y-99637426D01*
X110973972Y-99798006D01*
X110813392Y-99993673D01*
X110694072Y-100216907D01*
X110620593Y-100459131D01*
X110595784Y-100711034D01*
X110620593Y-100962937D01*
X110694072Y-101205161D01*
X110813392Y-101428395D01*
X110933734Y-101575031D01*
X111568699Y-102209996D01*
X111608938Y-102259028D01*
X111804604Y-102419608D01*
X111852091Y-102444990D01*
X112027838Y-102538929D01*
X112226419Y-102599168D01*
X112270062Y-102612407D01*
X112458843Y-102631000D01*
X112458850Y-102631000D01*
X112521966Y-102637216D01*
X112585082Y-102631000D01*
X112972831Y-102631000D01*
X112836698Y-102721961D01*
X112627961Y-102930698D01*
X112463958Y-103176147D01*
X112350990Y-103448875D01*
X112293400Y-103738401D01*
X112293400Y-104033599D01*
X112350990Y-104323125D01*
X112369164Y-104367000D01*
X107495173Y-104367000D01*
X107339987Y-104134748D01*
X107112252Y-103907013D01*
X106844463Y-103728082D01*
X106546912Y-103604832D01*
X106231033Y-103542000D01*
X105908967Y-103542000D01*
X105593088Y-103604832D01*
X105295537Y-103728082D01*
X105027748Y-103907013D01*
X104800013Y-104134748D01*
X104621082Y-104402537D01*
X104497832Y-104700088D01*
X104435000Y-105015967D01*
X104435000Y-105338033D01*
X104497832Y-105653912D01*
X104621082Y-105951463D01*
X104800013Y-106219252D01*
X105027748Y-106446987D01*
X105295537Y-106625918D01*
X105593088Y-106749168D01*
X105908967Y-106812000D01*
X106231033Y-106812000D01*
X106546912Y-106749168D01*
X106844463Y-106625918D01*
X107112252Y-106446987D01*
X107339987Y-106219252D01*
X107495173Y-105987000D01*
X112351767Y-105987000D01*
X112350990Y-105988875D01*
X112293400Y-106278401D01*
X112293400Y-106573599D01*
X112350990Y-106863125D01*
X112463958Y-107135853D01*
X112507087Y-107200400D01*
X112010488Y-107697000D01*
X107495173Y-107697000D01*
X107339987Y-107464748D01*
X107112252Y-107237013D01*
X106844463Y-107058082D01*
X106546912Y-106934832D01*
X106231033Y-106872000D01*
X105908967Y-106872000D01*
X105593088Y-106934832D01*
X105295537Y-107058082D01*
X105027748Y-107237013D01*
X104800013Y-107464748D01*
X104621082Y-107732537D01*
X104497832Y-108030088D01*
X104435000Y-108345967D01*
X104435000Y-108668033D01*
X104497832Y-108983912D01*
X104621082Y-109281463D01*
X104800013Y-109549252D01*
X105027748Y-109776987D01*
X105295537Y-109955918D01*
X105593088Y-110079168D01*
X105908967Y-110142000D01*
X106231033Y-110142000D01*
X106546912Y-110079168D01*
X106844463Y-109955918D01*
X107112252Y-109776987D01*
X107339987Y-109549252D01*
X107495173Y-109317000D01*
X112306212Y-109317000D01*
X112334411Y-109319778D01*
X112350990Y-109403125D01*
X112369647Y-109448168D01*
X112327913Y-109460828D01*
X112182854Y-109538364D01*
X112055709Y-109642709D01*
X112029563Y-109674568D01*
X110702133Y-111002000D01*
X107478468Y-111002000D01*
X107339987Y-110794748D01*
X107112252Y-110567013D01*
X106844463Y-110388082D01*
X106546912Y-110264832D01*
X106231033Y-110202000D01*
X105908967Y-110202000D01*
X105593088Y-110264832D01*
X105295537Y-110388082D01*
X105027748Y-110567013D01*
X104800013Y-110794748D01*
X104621082Y-111062537D01*
X104497832Y-111360088D01*
X104435000Y-111675967D01*
X104435000Y-111998033D01*
X104497832Y-112313912D01*
X104621082Y-112611463D01*
X104800013Y-112879252D01*
X105027748Y-113106987D01*
X105295537Y-113285918D01*
X105593088Y-113409168D01*
X105908967Y-113472000D01*
X106231033Y-113472000D01*
X106546912Y-113409168D01*
X106717712Y-113338420D01*
X106475504Y-113580628D01*
X106231033Y-113532000D01*
X105908967Y-113532000D01*
X105593088Y-113594832D01*
X105295537Y-113718082D01*
X105027748Y-113897013D01*
X104800013Y-114124748D01*
X104621082Y-114392537D01*
X104497832Y-114690088D01*
X104435000Y-115005967D01*
X104435000Y-115328033D01*
X104497832Y-115643912D01*
X104621082Y-115941463D01*
X104800013Y-116209252D01*
X105027748Y-116436987D01*
X105295537Y-116615918D01*
X105593088Y-116739168D01*
X105908967Y-116802000D01*
X106231033Y-116802000D01*
X106546912Y-116739168D01*
X106844463Y-116615918D01*
X107112252Y-116436987D01*
X107339987Y-116209252D01*
X107518918Y-115941463D01*
X107642168Y-115643912D01*
X107705000Y-115328033D01*
X107705000Y-115005967D01*
X107656372Y-114761496D01*
X107958326Y-114459542D01*
X112099982Y-114459542D01*
X112141000Y-114463582D01*
X112182018Y-114459542D01*
X112182019Y-114459542D01*
X112304689Y-114447460D01*
X112341665Y-114436244D01*
X112350990Y-114483125D01*
X112463958Y-114755853D01*
X112627961Y-115001302D01*
X112836698Y-115210039D01*
X112995281Y-115316000D01*
X112836698Y-115421961D01*
X112627961Y-115630698D01*
X112463958Y-115876147D01*
X112350990Y-116148875D01*
X112293400Y-116438401D01*
X112293400Y-116733599D01*
X112350990Y-117023125D01*
X112463958Y-117295853D01*
X112627961Y-117541302D01*
X112836698Y-117750039D01*
X113082147Y-117914042D01*
X113354875Y-118027010D01*
X113644401Y-118084600D01*
X113939599Y-118084600D01*
X114229125Y-118027010D01*
X114501853Y-117914042D01*
X114747302Y-117750039D01*
X114956039Y-117541302D01*
X115062000Y-117382719D01*
X115167961Y-117541302D01*
X115376698Y-117750039D01*
X115535281Y-117856000D01*
X115376698Y-117961961D01*
X115167961Y-118170698D01*
X115003958Y-118416147D01*
X114890990Y-118688875D01*
X114833400Y-118978401D01*
X114833400Y-119273599D01*
X114861627Y-119415506D01*
X114722532Y-119554601D01*
X110918406Y-119554601D01*
X110877398Y-119550562D01*
X110836390Y-119554601D01*
X110836380Y-119554601D01*
X110713710Y-119566683D01*
X110556312Y-119614429D01*
X110411253Y-119691965D01*
X110284108Y-119796310D01*
X110257960Y-119828172D01*
X108404579Y-121681554D01*
X108372709Y-121707709D01*
X108285808Y-121813599D01*
X108268364Y-121834855D01*
X108190828Y-121979914D01*
X108143082Y-122137312D01*
X108126960Y-122301000D01*
X108131000Y-122342019D01*
X108131001Y-131876588D01*
X107591603Y-132415987D01*
X107642168Y-132293912D01*
X107705000Y-131978033D01*
X107705000Y-131655967D01*
X107642168Y-131340088D01*
X107518918Y-131042537D01*
X107339987Y-130774748D01*
X107112252Y-130547013D01*
X106844463Y-130368082D01*
X106546912Y-130244832D01*
X106231033Y-130182000D01*
X105908967Y-130182000D01*
X105593088Y-130244832D01*
X105295537Y-130368082D01*
X105027748Y-130547013D01*
X104800013Y-130774748D01*
X104621082Y-131042537D01*
X104497832Y-131340088D01*
X104435000Y-131655967D01*
X104435000Y-131978033D01*
X104497832Y-132293912D01*
X104621082Y-132591463D01*
X104800013Y-132859252D01*
X104963761Y-133023000D01*
X104020007Y-133023000D01*
X103978999Y-133018961D01*
X103937991Y-133023000D01*
X103937981Y-133023000D01*
X103815311Y-133035082D01*
X103657913Y-133082828D01*
X103512854Y-133160364D01*
X103385709Y-133264709D01*
X103359561Y-133296571D01*
X102308574Y-134347559D01*
X102308569Y-134347563D01*
X102275504Y-134380628D01*
X102031033Y-134332000D01*
X101708967Y-134332000D01*
X101393088Y-134394832D01*
X101095537Y-134518082D01*
X100827748Y-134697013D01*
X100600013Y-134924748D01*
X100421082Y-135192537D01*
X100297832Y-135490088D01*
X100235000Y-135805967D01*
X100235000Y-136128033D01*
X100297832Y-136443912D01*
X100421082Y-136741463D01*
X100600013Y-137009252D01*
X100827748Y-137236987D01*
X101095537Y-137415918D01*
X101393088Y-137539168D01*
X101708967Y-137602000D01*
X102031033Y-137602000D01*
X102346912Y-137539168D01*
X102644463Y-137415918D01*
X102912252Y-137236987D01*
X103139987Y-137009252D01*
X103318918Y-136741463D01*
X103442168Y-136443912D01*
X103505000Y-136128033D01*
X103505000Y-135805967D01*
X103456372Y-135561496D01*
X103489437Y-135528431D01*
X103489441Y-135528426D01*
X104324868Y-134693000D01*
X105033754Y-134693000D01*
X105027748Y-134697013D01*
X104800013Y-134924748D01*
X104621082Y-135192537D01*
X104497832Y-135490088D01*
X104435000Y-135805967D01*
X104435000Y-136128033D01*
X104497832Y-136443912D01*
X104621082Y-136741463D01*
X104800013Y-137009252D01*
X105027748Y-137236987D01*
X105295537Y-137415918D01*
X105593088Y-137539168D01*
X105908967Y-137602000D01*
X106231033Y-137602000D01*
X106546912Y-137539168D01*
X106844463Y-137415918D01*
X107112252Y-137236987D01*
X107339987Y-137009252D01*
X107518918Y-136741463D01*
X107642168Y-136443912D01*
X107705000Y-136128033D01*
X107705000Y-135805967D01*
X107656372Y-135561495D01*
X110163001Y-133054867D01*
X110163000Y-138338132D01*
X109890132Y-138611000D01*
X103598007Y-138611000D01*
X103556999Y-138606961D01*
X103515991Y-138611000D01*
X103515981Y-138611000D01*
X103393311Y-138623082D01*
X103235913Y-138670828D01*
X103090854Y-138748364D01*
X102963709Y-138852709D01*
X102937561Y-138884571D01*
X102275504Y-139546628D01*
X102031033Y-139498000D01*
X101708967Y-139498000D01*
X101393088Y-139560832D01*
X101095537Y-139684082D01*
X100827748Y-139863013D01*
X100600013Y-140090748D01*
X100421082Y-140358537D01*
X100403000Y-140402191D01*
X100403000Y-137906018D01*
X100407040Y-137864999D01*
X100390918Y-137701311D01*
X100343172Y-137543913D01*
X100265636Y-137398854D01*
X100219900Y-137343125D01*
X100161291Y-137271709D01*
X100129426Y-137245558D01*
X99289441Y-136405574D01*
X99289437Y-136405569D01*
X99256372Y-136372504D01*
X99305000Y-136128033D01*
X99305000Y-135805967D01*
X99242168Y-135490088D01*
X99118918Y-135192537D01*
X98939987Y-134924748D01*
X98712252Y-134697013D01*
X98444463Y-134518082D01*
X98146912Y-134394832D01*
X97831033Y-134332000D01*
X97508967Y-134332000D01*
X97193088Y-134394832D01*
X96910022Y-134512082D01*
X96910022Y-133271918D01*
X97193088Y-133389168D01*
X97508967Y-133452000D01*
X97831033Y-133452000D01*
X98146912Y-133389168D01*
X98444463Y-133265918D01*
X98712252Y-133086987D01*
X98939987Y-132859252D01*
X99118918Y-132591463D01*
X99242168Y-132293912D01*
X99305000Y-131978033D01*
X99305000Y-131655967D01*
X100235000Y-131655967D01*
X100235000Y-131978033D01*
X100297832Y-132293912D01*
X100421082Y-132591463D01*
X100600013Y-132859252D01*
X100827748Y-133086987D01*
X101095537Y-133265918D01*
X101393088Y-133389168D01*
X101708967Y-133452000D01*
X102031033Y-133452000D01*
X102346912Y-133389168D01*
X102644463Y-133265918D01*
X102912252Y-133086987D01*
X103139987Y-132859252D01*
X103318918Y-132591463D01*
X103442168Y-132293912D01*
X103505000Y-131978033D01*
X103505000Y-131655967D01*
X103442168Y-131340088D01*
X103318918Y-131042537D01*
X103139987Y-130774748D01*
X102912252Y-130547013D01*
X102644463Y-130368082D01*
X102346912Y-130244832D01*
X102031033Y-130182000D01*
X101708967Y-130182000D01*
X101393088Y-130244832D01*
X101095537Y-130368082D01*
X100827748Y-130547013D01*
X100600013Y-130774748D01*
X100421082Y-131042537D01*
X100297832Y-131340088D01*
X100235000Y-131655967D01*
X99305000Y-131655967D01*
X99242168Y-131340088D01*
X99118918Y-131042537D01*
X98939987Y-130774748D01*
X98712252Y-130547013D01*
X98444463Y-130368082D01*
X98146912Y-130244832D01*
X97831033Y-130182000D01*
X97508967Y-130182000D01*
X97193088Y-130244832D01*
X96910022Y-130362082D01*
X96910022Y-130321779D01*
X97178624Y-130053177D01*
X97193088Y-130059168D01*
X97508967Y-130122000D01*
X97831033Y-130122000D01*
X98146912Y-130059168D01*
X98444463Y-129935918D01*
X98712252Y-129756987D01*
X98939987Y-129529252D01*
X99118918Y-129261463D01*
X99242168Y-128963912D01*
X99305000Y-128648033D01*
X99305000Y-128325967D01*
X100235000Y-128325967D01*
X100235000Y-128648033D01*
X100297832Y-128963912D01*
X100421082Y-129261463D01*
X100600013Y-129529252D01*
X100827748Y-129756987D01*
X101095537Y-129935918D01*
X101393088Y-130059168D01*
X101708967Y-130122000D01*
X102031033Y-130122000D01*
X102346912Y-130059168D01*
X102644463Y-129935918D01*
X102912252Y-129756987D01*
X103139987Y-129529252D01*
X103318918Y-129261463D01*
X103442168Y-128963912D01*
X103505000Y-128648033D01*
X103505000Y-128325967D01*
X104435000Y-128325967D01*
X104435000Y-128648033D01*
X104497832Y-128963912D01*
X104621082Y-129261463D01*
X104800013Y-129529252D01*
X105027748Y-129756987D01*
X105295537Y-129935918D01*
X105593088Y-130059168D01*
X105908967Y-130122000D01*
X106231033Y-130122000D01*
X106546912Y-130059168D01*
X106844463Y-129935918D01*
X107112252Y-129756987D01*
X107339987Y-129529252D01*
X107518918Y-129261463D01*
X107642168Y-128963912D01*
X107705000Y-128648033D01*
X107705000Y-128325967D01*
X107642168Y-128010088D01*
X107518918Y-127712537D01*
X107339987Y-127444748D01*
X107112252Y-127217013D01*
X106844463Y-127038082D01*
X106546912Y-126914832D01*
X106231033Y-126852000D01*
X105908967Y-126852000D01*
X105593088Y-126914832D01*
X105295537Y-127038082D01*
X105027748Y-127217013D01*
X104800013Y-127444748D01*
X104621082Y-127712537D01*
X104497832Y-128010088D01*
X104435000Y-128325967D01*
X103505000Y-128325967D01*
X103442168Y-128010088D01*
X103318918Y-127712537D01*
X103139987Y-127444748D01*
X102912252Y-127217013D01*
X102644463Y-127038082D01*
X102346912Y-126914832D01*
X102031033Y-126852000D01*
X101708967Y-126852000D01*
X101393088Y-126914832D01*
X101095537Y-127038082D01*
X100827748Y-127217013D01*
X100600013Y-127444748D01*
X100421082Y-127712537D01*
X100297832Y-128010088D01*
X100235000Y-128325967D01*
X99305000Y-128325967D01*
X99242168Y-128010088D01*
X99118918Y-127712537D01*
X98939987Y-127444748D01*
X98712252Y-127217013D01*
X98444463Y-127038082D01*
X98146912Y-126914832D01*
X97831033Y-126852000D01*
X97508967Y-126852000D01*
X97193088Y-126914832D01*
X96895537Y-127038082D01*
X96799649Y-127102152D01*
X97178624Y-126723177D01*
X97193088Y-126729168D01*
X97508967Y-126792000D01*
X97831033Y-126792000D01*
X98146912Y-126729168D01*
X98444463Y-126605918D01*
X98712252Y-126426987D01*
X98939987Y-126199252D01*
X99118918Y-125931463D01*
X99242168Y-125633912D01*
X99305000Y-125318033D01*
X99305000Y-124995967D01*
X100235000Y-124995967D01*
X100235000Y-125318033D01*
X100297832Y-125633912D01*
X100421082Y-125931463D01*
X100600013Y-126199252D01*
X100827748Y-126426987D01*
X101095537Y-126605918D01*
X101393088Y-126729168D01*
X101708967Y-126792000D01*
X102031033Y-126792000D01*
X102346912Y-126729168D01*
X102644463Y-126605918D01*
X102912252Y-126426987D01*
X103139987Y-126199252D01*
X103318918Y-125931463D01*
X103442168Y-125633912D01*
X103505000Y-125318033D01*
X103505000Y-124995967D01*
X104435000Y-124995967D01*
X104435000Y-125318033D01*
X104497832Y-125633912D01*
X104621082Y-125931463D01*
X104800013Y-126199252D01*
X105027748Y-126426987D01*
X105295537Y-126605918D01*
X105593088Y-126729168D01*
X105908967Y-126792000D01*
X106231033Y-126792000D01*
X106546912Y-126729168D01*
X106844463Y-126605918D01*
X107112252Y-126426987D01*
X107339987Y-126199252D01*
X107518918Y-125931463D01*
X107642168Y-125633912D01*
X107705000Y-125318033D01*
X107705000Y-124995967D01*
X107642168Y-124680088D01*
X107518918Y-124382537D01*
X107339987Y-124114748D01*
X107112252Y-123887013D01*
X106844463Y-123708082D01*
X106546912Y-123584832D01*
X106231033Y-123522000D01*
X105908967Y-123522000D01*
X105593088Y-123584832D01*
X105295537Y-123708082D01*
X105027748Y-123887013D01*
X104800013Y-124114748D01*
X104621082Y-124382537D01*
X104497832Y-124680088D01*
X104435000Y-124995967D01*
X103505000Y-124995967D01*
X103442168Y-124680088D01*
X103318918Y-124382537D01*
X103139987Y-124114748D01*
X102912252Y-123887013D01*
X102644463Y-123708082D01*
X102346912Y-123584832D01*
X102031033Y-123522000D01*
X101708967Y-123522000D01*
X101393088Y-123584832D01*
X101095537Y-123708082D01*
X100827748Y-123887013D01*
X100600013Y-124114748D01*
X100421082Y-124382537D01*
X100297832Y-124680088D01*
X100235000Y-124995967D01*
X99305000Y-124995967D01*
X99242168Y-124680088D01*
X99118918Y-124382537D01*
X98939987Y-124114748D01*
X98712252Y-123887013D01*
X98444463Y-123708082D01*
X98146912Y-123584832D01*
X97831033Y-123522000D01*
X97508967Y-123522000D01*
X97193088Y-123584832D01*
X96895537Y-123708082D01*
X96799649Y-123772152D01*
X97178625Y-123393177D01*
X97193088Y-123399168D01*
X97508967Y-123462000D01*
X97831033Y-123462000D01*
X98146912Y-123399168D01*
X98444463Y-123275918D01*
X98712252Y-123096987D01*
X98939987Y-122869252D01*
X99118918Y-122601463D01*
X99242168Y-122303912D01*
X99305000Y-121988033D01*
X99305000Y-121665967D01*
X100235000Y-121665967D01*
X100235000Y-121988033D01*
X100297832Y-122303912D01*
X100421082Y-122601463D01*
X100600013Y-122869252D01*
X100827748Y-123096987D01*
X101095537Y-123275918D01*
X101393088Y-123399168D01*
X101708967Y-123462000D01*
X102031033Y-123462000D01*
X102346912Y-123399168D01*
X102644463Y-123275918D01*
X102912252Y-123096987D01*
X103139987Y-122869252D01*
X103318918Y-122601463D01*
X103442168Y-122303912D01*
X103505000Y-121988033D01*
X103505000Y-121665967D01*
X104435000Y-121665967D01*
X104435000Y-121988033D01*
X104497832Y-122303912D01*
X104621082Y-122601463D01*
X104800013Y-122869252D01*
X105027748Y-123096987D01*
X105295537Y-123275918D01*
X105593088Y-123399168D01*
X105908967Y-123462000D01*
X106231033Y-123462000D01*
X106546912Y-123399168D01*
X106844463Y-123275918D01*
X107112252Y-123096987D01*
X107339987Y-122869252D01*
X107518918Y-122601463D01*
X107642168Y-122303912D01*
X107705000Y-121988033D01*
X107705000Y-121665967D01*
X107642168Y-121350088D01*
X107518918Y-121052537D01*
X107339987Y-120784748D01*
X107112252Y-120557013D01*
X106844463Y-120378082D01*
X106546912Y-120254832D01*
X106231033Y-120192000D01*
X105908967Y-120192000D01*
X105593088Y-120254832D01*
X105295537Y-120378082D01*
X105027748Y-120557013D01*
X104800013Y-120784748D01*
X104621082Y-121052537D01*
X104497832Y-121350088D01*
X104435000Y-121665967D01*
X103505000Y-121665967D01*
X103442168Y-121350088D01*
X103318918Y-121052537D01*
X103139987Y-120784748D01*
X102912252Y-120557013D01*
X102644463Y-120378082D01*
X102346912Y-120254832D01*
X102031033Y-120192000D01*
X101708967Y-120192000D01*
X101393088Y-120254832D01*
X101095537Y-120378082D01*
X100827748Y-120557013D01*
X100600013Y-120784748D01*
X100421082Y-121052537D01*
X100297832Y-121350088D01*
X100235000Y-121665967D01*
X99305000Y-121665967D01*
X99242168Y-121350088D01*
X99118918Y-121052537D01*
X98939987Y-120784748D01*
X98712252Y-120557013D01*
X98444463Y-120378082D01*
X98146912Y-120254832D01*
X97831033Y-120192000D01*
X97508967Y-120192000D01*
X97193088Y-120254832D01*
X96895537Y-120378082D01*
X96627748Y-120557013D01*
X96400013Y-120784748D01*
X96221082Y-121052537D01*
X96097832Y-121350088D01*
X96035000Y-121665967D01*
X96035000Y-121988033D01*
X96097832Y-122303912D01*
X96103823Y-122318375D01*
X95377000Y-123045199D01*
X95377000Y-118335967D01*
X96035000Y-118335967D01*
X96035000Y-118658033D01*
X96097832Y-118973912D01*
X96221082Y-119271463D01*
X96400013Y-119539252D01*
X96627748Y-119766987D01*
X96895537Y-119945918D01*
X97193088Y-120069168D01*
X97508967Y-120132000D01*
X97831033Y-120132000D01*
X98146912Y-120069168D01*
X98444463Y-119945918D01*
X98712252Y-119766987D01*
X98939987Y-119539252D01*
X99118918Y-119271463D01*
X99242168Y-118973912D01*
X99305000Y-118658033D01*
X99305000Y-118335967D01*
X100235000Y-118335967D01*
X100235000Y-118658033D01*
X100297832Y-118973912D01*
X100421082Y-119271463D01*
X100600013Y-119539252D01*
X100827748Y-119766987D01*
X101095537Y-119945918D01*
X101393088Y-120069168D01*
X101708967Y-120132000D01*
X102031033Y-120132000D01*
X102346912Y-120069168D01*
X102644463Y-119945918D01*
X102912252Y-119766987D01*
X103139987Y-119539252D01*
X103318918Y-119271463D01*
X103442168Y-118973912D01*
X103505000Y-118658033D01*
X103505000Y-118335967D01*
X104435000Y-118335967D01*
X104435000Y-118658033D01*
X104497832Y-118973912D01*
X104621082Y-119271463D01*
X104800013Y-119539252D01*
X105027748Y-119766987D01*
X105295537Y-119945918D01*
X105593088Y-120069168D01*
X105908967Y-120132000D01*
X106231033Y-120132000D01*
X106546912Y-120069168D01*
X106844463Y-119945918D01*
X107112252Y-119766987D01*
X107339987Y-119539252D01*
X107518918Y-119271463D01*
X107642168Y-118973912D01*
X107705000Y-118658033D01*
X107705000Y-118335967D01*
X107642168Y-118020088D01*
X107518918Y-117722537D01*
X107339987Y-117454748D01*
X107112252Y-117227013D01*
X106844463Y-117048082D01*
X106546912Y-116924832D01*
X106231033Y-116862000D01*
X105908967Y-116862000D01*
X105593088Y-116924832D01*
X105295537Y-117048082D01*
X105027748Y-117227013D01*
X104800013Y-117454748D01*
X104621082Y-117722537D01*
X104497832Y-118020088D01*
X104435000Y-118335967D01*
X103505000Y-118335967D01*
X103442168Y-118020088D01*
X103318918Y-117722537D01*
X103139987Y-117454748D01*
X102912252Y-117227013D01*
X102644463Y-117048082D01*
X102346912Y-116924832D01*
X102031033Y-116862000D01*
X101708967Y-116862000D01*
X101393088Y-116924832D01*
X101095537Y-117048082D01*
X100827748Y-117227013D01*
X100600013Y-117454748D01*
X100421082Y-117722537D01*
X100297832Y-118020088D01*
X100235000Y-118335967D01*
X99305000Y-118335967D01*
X99242168Y-118020088D01*
X99118918Y-117722537D01*
X98939987Y-117454748D01*
X98712252Y-117227013D01*
X98444463Y-117048082D01*
X98146912Y-116924832D01*
X97831033Y-116862000D01*
X97508967Y-116862000D01*
X97193088Y-116924832D01*
X96895537Y-117048082D01*
X96627748Y-117227013D01*
X96400013Y-117454748D01*
X96221082Y-117722537D01*
X96097832Y-118020088D01*
X96035000Y-118335967D01*
X95377000Y-118335967D01*
X95377000Y-115005967D01*
X96035000Y-115005967D01*
X96035000Y-115328033D01*
X96097832Y-115643912D01*
X96221082Y-115941463D01*
X96400013Y-116209252D01*
X96627748Y-116436987D01*
X96895537Y-116615918D01*
X97193088Y-116739168D01*
X97508967Y-116802000D01*
X97831033Y-116802000D01*
X98146912Y-116739168D01*
X98444463Y-116615918D01*
X98712252Y-116436987D01*
X98939987Y-116209252D01*
X99118918Y-115941463D01*
X99242168Y-115643912D01*
X99305000Y-115328033D01*
X99305000Y-115005967D01*
X100235000Y-115005967D01*
X100235000Y-115328033D01*
X100297832Y-115643912D01*
X100421082Y-115941463D01*
X100600013Y-116209252D01*
X100827748Y-116436987D01*
X101095537Y-116615918D01*
X101393088Y-116739168D01*
X101708967Y-116802000D01*
X102031033Y-116802000D01*
X102346912Y-116739168D01*
X102644463Y-116615918D01*
X102912252Y-116436987D01*
X103139987Y-116209252D01*
X103318918Y-115941463D01*
X103442168Y-115643912D01*
X103505000Y-115328033D01*
X103505000Y-115005967D01*
X103442168Y-114690088D01*
X103318918Y-114392537D01*
X103139987Y-114124748D01*
X102912252Y-113897013D01*
X102644463Y-113718082D01*
X102346912Y-113594832D01*
X102031033Y-113532000D01*
X101708967Y-113532000D01*
X101393088Y-113594832D01*
X101095537Y-113718082D01*
X100827748Y-113897013D01*
X100600013Y-114124748D01*
X100421082Y-114392537D01*
X100297832Y-114690088D01*
X100235000Y-115005967D01*
X99305000Y-115005967D01*
X99242168Y-114690088D01*
X99118918Y-114392537D01*
X98939987Y-114124748D01*
X98712252Y-113897013D01*
X98444463Y-113718082D01*
X98146912Y-113594832D01*
X97831033Y-113532000D01*
X97508967Y-113532000D01*
X97193088Y-113594832D01*
X96895537Y-113718082D01*
X96627748Y-113897013D01*
X96400013Y-114124748D01*
X96221082Y-114392537D01*
X96097832Y-114690088D01*
X96035000Y-115005967D01*
X95377000Y-115005967D01*
X95377000Y-111675967D01*
X96035000Y-111675967D01*
X96035000Y-111998033D01*
X96097832Y-112313912D01*
X96221082Y-112611463D01*
X96400013Y-112879252D01*
X96627748Y-113106987D01*
X96895537Y-113285918D01*
X97193088Y-113409168D01*
X97508967Y-113472000D01*
X97831033Y-113472000D01*
X98146912Y-113409168D01*
X98444463Y-113285918D01*
X98712252Y-113106987D01*
X98939987Y-112879252D01*
X99118918Y-112611463D01*
X99242168Y-112313912D01*
X99305000Y-111998033D01*
X99305000Y-111675967D01*
X100235000Y-111675967D01*
X100235000Y-111998033D01*
X100297832Y-112313912D01*
X100421082Y-112611463D01*
X100600013Y-112879252D01*
X100827748Y-113106987D01*
X101095537Y-113285918D01*
X101393088Y-113409168D01*
X101708967Y-113472000D01*
X102031033Y-113472000D01*
X102346912Y-113409168D01*
X102644463Y-113285918D01*
X102912252Y-113106987D01*
X103139987Y-112879252D01*
X103318918Y-112611463D01*
X103442168Y-112313912D01*
X103505000Y-111998033D01*
X103505000Y-111675967D01*
X103442168Y-111360088D01*
X103318918Y-111062537D01*
X103139987Y-110794748D01*
X102912252Y-110567013D01*
X102644463Y-110388082D01*
X102346912Y-110264832D01*
X102031033Y-110202000D01*
X101708967Y-110202000D01*
X101393088Y-110264832D01*
X101095537Y-110388082D01*
X100827748Y-110567013D01*
X100600013Y-110794748D01*
X100421082Y-111062537D01*
X100297832Y-111360088D01*
X100235000Y-111675967D01*
X99305000Y-111675967D01*
X99242168Y-111360088D01*
X99118918Y-111062537D01*
X98939987Y-110794748D01*
X98712252Y-110567013D01*
X98444463Y-110388082D01*
X98146912Y-110264832D01*
X97831033Y-110202000D01*
X97508967Y-110202000D01*
X97193088Y-110264832D01*
X96895537Y-110388082D01*
X96627748Y-110567013D01*
X96400013Y-110794748D01*
X96221082Y-111062537D01*
X96097832Y-111360088D01*
X96035000Y-111675967D01*
X95377000Y-111675967D01*
X95377000Y-108345967D01*
X96035000Y-108345967D01*
X96035000Y-108668033D01*
X96097832Y-108983912D01*
X96221082Y-109281463D01*
X96400013Y-109549252D01*
X96627748Y-109776987D01*
X96895537Y-109955918D01*
X97193088Y-110079168D01*
X97508967Y-110142000D01*
X97831033Y-110142000D01*
X98146912Y-110079168D01*
X98444463Y-109955918D01*
X98712252Y-109776987D01*
X98939987Y-109549252D01*
X99118918Y-109281463D01*
X99242168Y-108983912D01*
X99305000Y-108668033D01*
X99305000Y-108345967D01*
X100235000Y-108345967D01*
X100235000Y-108668033D01*
X100297832Y-108983912D01*
X100421082Y-109281463D01*
X100600013Y-109549252D01*
X100827748Y-109776987D01*
X101095537Y-109955918D01*
X101393088Y-110079168D01*
X101708967Y-110142000D01*
X102031033Y-110142000D01*
X102346912Y-110079168D01*
X102644463Y-109955918D01*
X102912252Y-109776987D01*
X103139987Y-109549252D01*
X103318918Y-109281463D01*
X103442168Y-108983912D01*
X103505000Y-108668033D01*
X103505000Y-108345967D01*
X103442168Y-108030088D01*
X103318918Y-107732537D01*
X103139987Y-107464748D01*
X102912252Y-107237013D01*
X102644463Y-107058082D01*
X102346912Y-106934832D01*
X102031033Y-106872000D01*
X101708967Y-106872000D01*
X101393088Y-106934832D01*
X101095537Y-107058082D01*
X100827748Y-107237013D01*
X100600013Y-107464748D01*
X100421082Y-107732537D01*
X100297832Y-108030088D01*
X100235000Y-108345967D01*
X99305000Y-108345967D01*
X99242168Y-108030088D01*
X99118918Y-107732537D01*
X98939987Y-107464748D01*
X98712252Y-107237013D01*
X98444463Y-107058082D01*
X98146912Y-106934832D01*
X97831033Y-106872000D01*
X97508967Y-106872000D01*
X97193088Y-106934832D01*
X96895537Y-107058082D01*
X96627748Y-107237013D01*
X96400013Y-107464748D01*
X96221082Y-107732537D01*
X96097832Y-108030088D01*
X96035000Y-108345967D01*
X95377000Y-108345967D01*
X95377000Y-105015967D01*
X96035000Y-105015967D01*
X96035000Y-105338033D01*
X96097832Y-105653912D01*
X96221082Y-105951463D01*
X96400013Y-106219252D01*
X96627748Y-106446987D01*
X96895537Y-106625918D01*
X97193088Y-106749168D01*
X97508967Y-106812000D01*
X97831033Y-106812000D01*
X98146912Y-106749168D01*
X98444463Y-106625918D01*
X98712252Y-106446987D01*
X98939987Y-106219252D01*
X99118918Y-105951463D01*
X99242168Y-105653912D01*
X99305000Y-105338033D01*
X99305000Y-105015967D01*
X100235000Y-105015967D01*
X100235000Y-105338033D01*
X100297832Y-105653912D01*
X100421082Y-105951463D01*
X100600013Y-106219252D01*
X100827748Y-106446987D01*
X101095537Y-106625918D01*
X101393088Y-106749168D01*
X101708967Y-106812000D01*
X102031033Y-106812000D01*
X102346912Y-106749168D01*
X102644463Y-106625918D01*
X102912252Y-106446987D01*
X103139987Y-106219252D01*
X103318918Y-105951463D01*
X103442168Y-105653912D01*
X103505000Y-105338033D01*
X103505000Y-105015967D01*
X103442168Y-104700088D01*
X103318918Y-104402537D01*
X103139987Y-104134748D01*
X102912252Y-103907013D01*
X102644463Y-103728082D01*
X102346912Y-103604832D01*
X102031033Y-103542000D01*
X101708967Y-103542000D01*
X101393088Y-103604832D01*
X101095537Y-103728082D01*
X100827748Y-103907013D01*
X100600013Y-104134748D01*
X100421082Y-104402537D01*
X100297832Y-104700088D01*
X100235000Y-105015967D01*
X99305000Y-105015967D01*
X99242168Y-104700088D01*
X99118918Y-104402537D01*
X98939987Y-104134748D01*
X98712252Y-103907013D01*
X98444463Y-103728082D01*
X98146912Y-103604832D01*
X97831033Y-103542000D01*
X97508967Y-103542000D01*
X97193088Y-103604832D01*
X96895537Y-103728082D01*
X96627748Y-103907013D01*
X96400013Y-104134748D01*
X96221082Y-104402537D01*
X96097832Y-104700088D01*
X96035000Y-105015967D01*
X95377000Y-105015967D01*
X95377000Y-100865967D01*
X96035000Y-100865967D01*
X96035000Y-101188033D01*
X96097832Y-101503912D01*
X96221082Y-101801463D01*
X96400013Y-102069252D01*
X96627748Y-102296987D01*
X96895537Y-102475918D01*
X97193088Y-102599168D01*
X97508967Y-102662000D01*
X97831033Y-102662000D01*
X98146912Y-102599168D01*
X98444463Y-102475918D01*
X98712252Y-102296987D01*
X98939987Y-102069252D01*
X99118918Y-101801463D01*
X99242168Y-101503912D01*
X99305000Y-101188033D01*
X99305000Y-100865967D01*
X100235000Y-100865967D01*
X100235000Y-101188033D01*
X100297832Y-101503912D01*
X100421082Y-101801463D01*
X100600013Y-102069252D01*
X100827748Y-102296987D01*
X101095537Y-102475918D01*
X101393088Y-102599168D01*
X101708967Y-102662000D01*
X102031033Y-102662000D01*
X102346912Y-102599168D01*
X102644463Y-102475918D01*
X102912252Y-102296987D01*
X103139987Y-102069252D01*
X103318918Y-101801463D01*
X103442168Y-101503912D01*
X103505000Y-101188033D01*
X103505000Y-100865967D01*
X104435000Y-100865967D01*
X104435000Y-101188033D01*
X104497832Y-101503912D01*
X104621082Y-101801463D01*
X104800013Y-102069252D01*
X105027748Y-102296987D01*
X105295537Y-102475918D01*
X105593088Y-102599168D01*
X105908967Y-102662000D01*
X106231033Y-102662000D01*
X106546912Y-102599168D01*
X106844463Y-102475918D01*
X107112252Y-102296987D01*
X107339987Y-102069252D01*
X107518918Y-101801463D01*
X107642168Y-101503912D01*
X107705000Y-101188033D01*
X107705000Y-100865967D01*
X107642168Y-100550088D01*
X107518918Y-100252537D01*
X107339987Y-99984748D01*
X107112252Y-99757013D01*
X106844463Y-99578082D01*
X106546912Y-99454832D01*
X106231033Y-99392000D01*
X105908967Y-99392000D01*
X105593088Y-99454832D01*
X105295537Y-99578082D01*
X105027748Y-99757013D01*
X104800013Y-99984748D01*
X104621082Y-100252537D01*
X104497832Y-100550088D01*
X104435000Y-100865967D01*
X103505000Y-100865967D01*
X103442168Y-100550088D01*
X103318918Y-100252537D01*
X103139987Y-99984748D01*
X102912252Y-99757013D01*
X102644463Y-99578082D01*
X102346912Y-99454832D01*
X102031033Y-99392000D01*
X101708967Y-99392000D01*
X101393088Y-99454832D01*
X101095537Y-99578082D01*
X100827748Y-99757013D01*
X100600013Y-99984748D01*
X100421082Y-100252537D01*
X100297832Y-100550088D01*
X100235000Y-100865967D01*
X99305000Y-100865967D01*
X99242168Y-100550088D01*
X99118918Y-100252537D01*
X98939987Y-99984748D01*
X98712252Y-99757013D01*
X98444463Y-99578082D01*
X98146912Y-99454832D01*
X97831033Y-99392000D01*
X97508967Y-99392000D01*
X97193088Y-99454832D01*
X96895537Y-99578082D01*
X96627748Y-99757013D01*
X96400013Y-99984748D01*
X96221082Y-100252537D01*
X96097832Y-100550088D01*
X96035000Y-100865967D01*
X95377000Y-100865967D01*
X95377000Y-88519000D01*
X96085686Y-88519000D01*
X96089001Y-88552657D01*
X96089000Y-92041353D01*
X96085686Y-92075000D01*
X96098912Y-92209283D01*
X96138081Y-92338406D01*
X96201688Y-92457407D01*
X96287289Y-92561711D01*
X96379188Y-92637131D01*
X96391593Y-92647312D01*
X96510594Y-92710919D01*
X96639717Y-92750088D01*
X96774000Y-92763314D01*
X96807647Y-92760000D01*
X103090353Y-92760000D01*
X103124000Y-92763314D01*
X103258283Y-92750088D01*
X103387406Y-92710919D01*
X103409001Y-92699376D01*
X103409001Y-92928999D01*
X102098567Y-94239433D01*
X102031033Y-94226000D01*
X101708967Y-94226000D01*
X101393088Y-94288832D01*
X101095537Y-94412082D01*
X100827748Y-94591013D01*
X100600013Y-94818748D01*
X100421082Y-95086537D01*
X100297832Y-95384088D01*
X100235000Y-95699967D01*
X100235000Y-96022033D01*
X100297832Y-96337912D01*
X100421082Y-96635463D01*
X100600013Y-96903252D01*
X100827748Y-97130987D01*
X101095537Y-97309918D01*
X101393088Y-97433168D01*
X101708967Y-97496000D01*
X102031033Y-97496000D01*
X102346912Y-97433168D01*
X102644463Y-97309918D01*
X102912252Y-97130987D01*
X103139987Y-96903252D01*
X103318918Y-96635463D01*
X103442168Y-96337912D01*
X103505000Y-96022033D01*
X103505000Y-95699967D01*
X104435000Y-95699967D01*
X104435000Y-96022033D01*
X104497832Y-96337912D01*
X104621082Y-96635463D01*
X104800013Y-96903252D01*
X105027748Y-97130987D01*
X105295537Y-97309918D01*
X105593088Y-97433168D01*
X105908967Y-97496000D01*
X106231033Y-97496000D01*
X106546912Y-97433168D01*
X106844463Y-97309918D01*
X107112252Y-97130987D01*
X107339987Y-96903252D01*
X107518918Y-96635463D01*
X107642168Y-96337912D01*
X107705000Y-96022033D01*
X107705000Y-95699967D01*
X107642168Y-95384088D01*
X107518918Y-95086537D01*
X107339987Y-94818748D01*
X107112252Y-94591013D01*
X106844463Y-94412082D01*
X106546912Y-94288832D01*
X106231033Y-94226000D01*
X105908967Y-94226000D01*
X105593088Y-94288832D01*
X105295537Y-94412082D01*
X105027748Y-94591013D01*
X104800013Y-94818748D01*
X104621082Y-95086537D01*
X104497832Y-95384088D01*
X104435000Y-95699967D01*
X103505000Y-95699967D01*
X103491567Y-95632433D01*
X105056284Y-94067716D01*
X105093870Y-94036870D01*
X105216960Y-93886884D01*
X105308424Y-93715767D01*
X105364747Y-93530094D01*
X105379000Y-93385380D01*
X105383765Y-93337001D01*
X105379000Y-93288621D01*
X105379000Y-83424665D01*
X114135000Y-83424665D01*
X114135000Y-83707335D01*
X114190147Y-83984574D01*
X114298320Y-84245727D01*
X114455363Y-84480759D01*
X114655241Y-84680637D01*
X114890273Y-84837680D01*
X115151426Y-84945853D01*
X115428665Y-85001000D01*
X115711335Y-85001000D01*
X115988574Y-84945853D01*
X116249727Y-84837680D01*
X116484759Y-84680637D01*
X116684637Y-84480759D01*
X116840000Y-84248241D01*
X116995363Y-84480759D01*
X117195241Y-84680637D01*
X117430273Y-84837680D01*
X117691426Y-84945853D01*
X117968665Y-85001000D01*
X118251335Y-85001000D01*
X118528574Y-84945853D01*
X118789727Y-84837680D01*
X119024759Y-84680637D01*
X119224637Y-84480759D01*
X119380000Y-84248241D01*
X119535363Y-84480759D01*
X119735241Y-84680637D01*
X119970273Y-84837680D01*
X120231426Y-84945853D01*
X120508665Y-85001000D01*
X120791335Y-85001000D01*
X121068574Y-84945853D01*
X121329727Y-84837680D01*
X121564759Y-84680637D01*
X121764637Y-84480759D01*
X121920000Y-84248241D01*
X122075363Y-84480759D01*
X122275241Y-84680637D01*
X122510273Y-84837680D01*
X122771426Y-84945853D01*
X123048665Y-85001000D01*
X123331335Y-85001000D01*
X123608574Y-84945853D01*
X123869727Y-84837680D01*
X124104759Y-84680637D01*
X124304637Y-84480759D01*
X124460000Y-84248241D01*
X124615363Y-84480759D01*
X124815241Y-84680637D01*
X125050273Y-84837680D01*
X125311426Y-84945853D01*
X125588665Y-85001000D01*
X125871335Y-85001000D01*
X126148574Y-84945853D01*
X126409727Y-84837680D01*
X126644759Y-84680637D01*
X126844637Y-84480759D01*
X127001680Y-84245727D01*
X127109853Y-83984574D01*
X127165000Y-83707335D01*
X127165000Y-83424665D01*
X127109853Y-83147426D01*
X127001680Y-82886273D01*
X126844637Y-82651241D01*
X126644759Y-82451363D01*
X126409727Y-82294320D01*
X126148574Y-82186147D01*
X125871335Y-82131000D01*
X125588665Y-82131000D01*
X125311426Y-82186147D01*
X125050273Y-82294320D01*
X124815241Y-82451363D01*
X124615363Y-82651241D01*
X124460000Y-82883759D01*
X124304637Y-82651241D01*
X124104759Y-82451363D01*
X123869727Y-82294320D01*
X123608574Y-82186147D01*
X123331335Y-82131000D01*
X123048665Y-82131000D01*
X122771426Y-82186147D01*
X122510273Y-82294320D01*
X122275241Y-82451363D01*
X122075363Y-82651241D01*
X121920000Y-82883759D01*
X121764637Y-82651241D01*
X121564759Y-82451363D01*
X121329727Y-82294320D01*
X121068574Y-82186147D01*
X120791335Y-82131000D01*
X120508665Y-82131000D01*
X120231426Y-82186147D01*
X119970273Y-82294320D01*
X119735241Y-82451363D01*
X119535363Y-82651241D01*
X119380000Y-82883759D01*
X119224637Y-82651241D01*
X119024759Y-82451363D01*
X118789727Y-82294320D01*
X118528574Y-82186147D01*
X118251335Y-82131000D01*
X117968665Y-82131000D01*
X117691426Y-82186147D01*
X117430273Y-82294320D01*
X117195241Y-82451363D01*
X116995363Y-82651241D01*
X116840000Y-82883759D01*
X116684637Y-82651241D01*
X116484759Y-82451363D01*
X116249727Y-82294320D01*
X115988574Y-82186147D01*
X115711335Y-82131000D01*
X115428665Y-82131000D01*
X115151426Y-82186147D01*
X114890273Y-82294320D01*
X114655241Y-82451363D01*
X114455363Y-82651241D01*
X114298320Y-82886273D01*
X114190147Y-83147426D01*
X114135000Y-83424665D01*
X105379000Y-83424665D01*
X105379000Y-80672000D01*
X105959336Y-80091664D01*
X114156001Y-80091664D01*
X114156001Y-80374334D01*
X114211148Y-80651573D01*
X114319321Y-80912726D01*
X114476364Y-81147758D01*
X114676242Y-81347636D01*
X114911274Y-81504679D01*
X115172427Y-81612852D01*
X115449666Y-81667999D01*
X115732336Y-81667999D01*
X116009575Y-81612852D01*
X116270728Y-81504679D01*
X116505760Y-81347636D01*
X116705638Y-81147758D01*
X116861001Y-80915240D01*
X117016364Y-81147758D01*
X117216242Y-81347636D01*
X117451274Y-81504679D01*
X117712427Y-81612852D01*
X117989666Y-81667999D01*
X118272336Y-81667999D01*
X118549575Y-81612852D01*
X118810728Y-81504679D01*
X119045760Y-81347636D01*
X119245638Y-81147758D01*
X119401001Y-80915240D01*
X119556364Y-81147758D01*
X119756242Y-81347636D01*
X119991274Y-81504679D01*
X120252427Y-81612852D01*
X120529666Y-81667999D01*
X120812336Y-81667999D01*
X121089575Y-81612852D01*
X121350728Y-81504679D01*
X121585760Y-81347636D01*
X121785638Y-81147758D01*
X121941001Y-80915240D01*
X122096364Y-81147758D01*
X122296242Y-81347636D01*
X122531274Y-81504679D01*
X122792427Y-81612852D01*
X123069666Y-81667999D01*
X123352336Y-81667999D01*
X123629575Y-81612852D01*
X123890728Y-81504679D01*
X124125760Y-81347636D01*
X124325638Y-81147758D01*
X124481001Y-80915240D01*
X124636364Y-81147758D01*
X124836242Y-81347636D01*
X125071274Y-81504679D01*
X125332427Y-81612852D01*
X125609666Y-81667999D01*
X125892336Y-81667999D01*
X126169575Y-81612852D01*
X126430728Y-81504679D01*
X126665760Y-81347636D01*
X126865638Y-81147758D01*
X127022681Y-80912726D01*
X127027068Y-80902134D01*
X127138616Y-81088130D01*
X127327587Y-81296518D01*
X127553581Y-81464036D01*
X127807914Y-81584245D01*
X127941962Y-81624903D01*
X128164001Y-81502914D01*
X128164001Y-80359999D01*
X128144001Y-80359999D01*
X128144001Y-80105999D01*
X128164001Y-80105999D01*
X128164001Y-78963084D01*
X127941962Y-78841095D01*
X127807914Y-78881753D01*
X127553581Y-79001962D01*
X127327587Y-79169480D01*
X127138616Y-79377868D01*
X127027068Y-79563864D01*
X127022681Y-79553272D01*
X126865638Y-79318240D01*
X126665760Y-79118362D01*
X126430728Y-78961319D01*
X126169575Y-78853146D01*
X125892336Y-78797999D01*
X125609666Y-78797999D01*
X125332427Y-78853146D01*
X125071274Y-78961319D01*
X124836242Y-79118362D01*
X124636364Y-79318240D01*
X124481001Y-79550758D01*
X124325638Y-79318240D01*
X124125760Y-79118362D01*
X123890728Y-78961319D01*
X123629575Y-78853146D01*
X123352336Y-78797999D01*
X123069666Y-78797999D01*
X122792427Y-78853146D01*
X122531274Y-78961319D01*
X122296242Y-79118362D01*
X122096364Y-79318240D01*
X121941001Y-79550758D01*
X121785638Y-79318240D01*
X121585760Y-79118362D01*
X121350728Y-78961319D01*
X121089575Y-78853146D01*
X120812336Y-78797999D01*
X120529666Y-78797999D01*
X120252427Y-78853146D01*
X119991274Y-78961319D01*
X119756242Y-79118362D01*
X119556364Y-79318240D01*
X119401001Y-79550758D01*
X119245638Y-79318240D01*
X119045760Y-79118362D01*
X118810728Y-78961319D01*
X118549575Y-78853146D01*
X118272336Y-78797999D01*
X117989666Y-78797999D01*
X117712427Y-78853146D01*
X117451274Y-78961319D01*
X117216242Y-79118362D01*
X117016364Y-79318240D01*
X116861001Y-79550758D01*
X116705638Y-79318240D01*
X116505760Y-79118362D01*
X116270728Y-78961319D01*
X116009575Y-78853146D01*
X115732336Y-78797999D01*
X115449666Y-78797999D01*
X115172427Y-78853146D01*
X114911274Y-78961319D01*
X114676242Y-79118362D01*
X114476364Y-79318240D01*
X114319321Y-79553272D01*
X114211148Y-79814425D01*
X114156001Y-80091664D01*
X105959336Y-80091664D01*
X109628001Y-76423000D01*
X128624000Y-76423000D01*
X129846002Y-77645003D01*
X129846001Y-79188603D01*
X129716364Y-79318240D01*
X129559321Y-79553272D01*
X129554934Y-79563864D01*
X129443386Y-79377868D01*
X129254415Y-79169480D01*
X129028421Y-79001962D01*
X128774088Y-78881753D01*
X128640040Y-78841095D01*
X128418001Y-78963084D01*
X128418001Y-80105999D01*
X128438001Y-80105999D01*
X128438001Y-80359999D01*
X128418001Y-80359999D01*
X128418001Y-81502914D01*
X128640040Y-81624903D01*
X128774088Y-81584245D01*
X129028421Y-81464036D01*
X129254415Y-81296518D01*
X129443386Y-81088130D01*
X129554934Y-80902134D01*
X129559321Y-80912726D01*
X129716364Y-81147758D01*
X129825001Y-81256395D01*
X129825000Y-82521604D01*
X129695363Y-82651241D01*
X129538320Y-82886273D01*
X129430147Y-83147426D01*
X129375000Y-83424665D01*
X129375000Y-83707335D01*
X129430147Y-83984574D01*
X129538320Y-84245727D01*
X129695363Y-84480759D01*
X129895241Y-84680637D01*
X130130273Y-84837680D01*
X130391426Y-84945853D01*
X130668665Y-85001000D01*
X130951335Y-85001000D01*
X131228574Y-84945853D01*
X131489727Y-84837680D01*
X131724759Y-84680637D01*
X131924637Y-84480759D01*
X132081680Y-84245727D01*
X132189853Y-83984574D01*
X132245000Y-83707335D01*
X132245000Y-83424665D01*
X132189853Y-83147426D01*
X132081680Y-82886273D01*
X131924637Y-82651241D01*
X131795000Y-82521604D01*
X131795000Y-81298396D01*
X131945638Y-81147758D01*
X132102681Y-80912726D01*
X132210854Y-80651573D01*
X132266001Y-80374334D01*
X132266001Y-80091664D01*
X132210854Y-79814425D01*
X132102681Y-79553272D01*
X131945638Y-79318240D01*
X131816001Y-79188603D01*
X131816001Y-77285381D01*
X131820766Y-77237001D01*
X131801748Y-77043907D01*
X131745425Y-76858234D01*
X131653961Y-76687117D01*
X131561711Y-76574710D01*
X131530871Y-76537131D01*
X131493291Y-76506290D01*
X129762716Y-74775716D01*
X129731870Y-74738130D01*
X129581884Y-74615040D01*
X129410767Y-74523576D01*
X129225094Y-74467253D01*
X129080380Y-74453000D01*
X129032000Y-74448235D01*
X128983620Y-74453000D01*
X109268380Y-74453000D01*
X109220000Y-74448235D01*
X109171620Y-74453000D01*
X109026906Y-74467253D01*
X108841233Y-74523576D01*
X108670116Y-74615040D01*
X108520130Y-74738130D01*
X108489289Y-74775710D01*
X103731716Y-79533284D01*
X103694130Y-79564130D01*
X103571040Y-79714116D01*
X103479577Y-79885233D01*
X103479576Y-79885234D01*
X103423253Y-80070907D01*
X103404235Y-80264000D01*
X103409000Y-80312380D01*
X103409001Y-87894623D01*
X103387406Y-87883081D01*
X103258283Y-87843912D01*
X103157647Y-87834000D01*
X103124000Y-87830686D01*
X103090353Y-87834000D01*
X96807647Y-87834000D01*
X96774000Y-87830686D01*
X96740353Y-87834000D01*
X96639717Y-87843912D01*
X96510594Y-87883081D01*
X96391593Y-87946688D01*
X96287289Y-88032289D01*
X96201688Y-88136593D01*
X96138081Y-88255594D01*
X96098912Y-88384717D01*
X96085686Y-88519000D01*
X95377000Y-88519000D01*
X95377000Y-70724665D01*
X111595000Y-70724665D01*
X111595000Y-71007335D01*
X111650147Y-71284574D01*
X111758320Y-71545727D01*
X111915363Y-71780759D01*
X112115241Y-71980637D01*
X112350273Y-72137680D01*
X112611426Y-72245853D01*
X112888665Y-72301000D01*
X113171335Y-72301000D01*
X113448574Y-72245853D01*
X113709727Y-72137680D01*
X113944759Y-71980637D01*
X114144637Y-71780759D01*
X114300000Y-71548241D01*
X114455363Y-71780759D01*
X114655241Y-71980637D01*
X114890273Y-72137680D01*
X115151426Y-72245853D01*
X115428665Y-72301000D01*
X115711335Y-72301000D01*
X115988574Y-72245853D01*
X116249727Y-72137680D01*
X116484759Y-71980637D01*
X116684637Y-71780759D01*
X116840000Y-71548241D01*
X116995363Y-71780759D01*
X117195241Y-71980637D01*
X117430273Y-72137680D01*
X117691426Y-72245853D01*
X117968665Y-72301000D01*
X118251335Y-72301000D01*
X118528574Y-72245853D01*
X118789727Y-72137680D01*
X119024759Y-71980637D01*
X119224637Y-71780759D01*
X119380000Y-71548241D01*
X119535363Y-71780759D01*
X119735241Y-71980637D01*
X119970273Y-72137680D01*
X120231426Y-72245853D01*
X120508665Y-72301000D01*
X120791335Y-72301000D01*
X121068574Y-72245853D01*
X121329727Y-72137680D01*
X121564759Y-71980637D01*
X121764637Y-71780759D01*
X121920000Y-71548241D01*
X122075363Y-71780759D01*
X122275241Y-71980637D01*
X122510273Y-72137680D01*
X122771426Y-72245853D01*
X123048665Y-72301000D01*
X123331335Y-72301000D01*
X123608574Y-72245853D01*
X123869727Y-72137680D01*
X124104759Y-71980637D01*
X124304637Y-71780759D01*
X124460000Y-71548241D01*
X124615363Y-71780759D01*
X124815241Y-71980637D01*
X125050273Y-72137680D01*
X125311426Y-72245853D01*
X125588665Y-72301000D01*
X125871335Y-72301000D01*
X126148574Y-72245853D01*
X126409727Y-72137680D01*
X126644759Y-71980637D01*
X126844637Y-71780759D01*
X127000000Y-71548241D01*
X127155363Y-71780759D01*
X127355241Y-71980637D01*
X127590273Y-72137680D01*
X127851426Y-72245853D01*
X128128665Y-72301000D01*
X128411335Y-72301000D01*
X128688574Y-72245853D01*
X128949727Y-72137680D01*
X129184759Y-71980637D01*
X129384637Y-71780759D01*
X129540000Y-71548241D01*
X129695363Y-71780759D01*
X129895241Y-71980637D01*
X130130273Y-72137680D01*
X130391426Y-72245853D01*
X130668665Y-72301000D01*
X130951335Y-72301000D01*
X131228574Y-72245853D01*
X131489727Y-72137680D01*
X131724759Y-71980637D01*
X131924637Y-71780759D01*
X132081680Y-71545727D01*
X132189853Y-71284574D01*
X132245000Y-71007335D01*
X132245000Y-70724665D01*
X132189853Y-70447426D01*
X132081680Y-70186273D01*
X131924637Y-69951241D01*
X131724759Y-69751363D01*
X131489727Y-69594320D01*
X131228574Y-69486147D01*
X130951335Y-69431000D01*
X130668665Y-69431000D01*
X130391426Y-69486147D01*
X130130273Y-69594320D01*
X129895241Y-69751363D01*
X129695363Y-69951241D01*
X129540000Y-70183759D01*
X129384637Y-69951241D01*
X129184759Y-69751363D01*
X128949727Y-69594320D01*
X128688574Y-69486147D01*
X128411335Y-69431000D01*
X128128665Y-69431000D01*
X127851426Y-69486147D01*
X127590273Y-69594320D01*
X127355241Y-69751363D01*
X127155363Y-69951241D01*
X127000000Y-70183759D01*
X126844637Y-69951241D01*
X126644759Y-69751363D01*
X126409727Y-69594320D01*
X126148574Y-69486147D01*
X125871335Y-69431000D01*
X125588665Y-69431000D01*
X125311426Y-69486147D01*
X125050273Y-69594320D01*
X124815241Y-69751363D01*
X124615363Y-69951241D01*
X124460000Y-70183759D01*
X124304637Y-69951241D01*
X124104759Y-69751363D01*
X123869727Y-69594320D01*
X123608574Y-69486147D01*
X123331335Y-69431000D01*
X123048665Y-69431000D01*
X122771426Y-69486147D01*
X122510273Y-69594320D01*
X122275241Y-69751363D01*
X122075363Y-69951241D01*
X121920000Y-70183759D01*
X121764637Y-69951241D01*
X121564759Y-69751363D01*
X121329727Y-69594320D01*
X121068574Y-69486147D01*
X120791335Y-69431000D01*
X120508665Y-69431000D01*
X120231426Y-69486147D01*
X119970273Y-69594320D01*
X119735241Y-69751363D01*
X119535363Y-69951241D01*
X119380000Y-70183759D01*
X119224637Y-69951241D01*
X119024759Y-69751363D01*
X118789727Y-69594320D01*
X118528574Y-69486147D01*
X118251335Y-69431000D01*
X117968665Y-69431000D01*
X117691426Y-69486147D01*
X117430273Y-69594320D01*
X117195241Y-69751363D01*
X116995363Y-69951241D01*
X116840000Y-70183759D01*
X116684637Y-69951241D01*
X116484759Y-69751363D01*
X116249727Y-69594320D01*
X115988574Y-69486147D01*
X115711335Y-69431000D01*
X115428665Y-69431000D01*
X115151426Y-69486147D01*
X114890273Y-69594320D01*
X114655241Y-69751363D01*
X114455363Y-69951241D01*
X114300000Y-70183759D01*
X114144637Y-69951241D01*
X113944759Y-69751363D01*
X113709727Y-69594320D01*
X113448574Y-69486147D01*
X113171335Y-69431000D01*
X112888665Y-69431000D01*
X112611426Y-69486147D01*
X112350273Y-69594320D01*
X112115241Y-69751363D01*
X111915363Y-69951241D01*
X111758320Y-70186273D01*
X111650147Y-70447426D01*
X111595000Y-70724665D01*
X95377000Y-70724665D01*
X95377000Y-67391664D01*
X111616001Y-67391664D01*
X111616001Y-67674334D01*
X111671148Y-67951573D01*
X111779321Y-68212726D01*
X111936364Y-68447758D01*
X112136242Y-68647636D01*
X112371274Y-68804679D01*
X112632427Y-68912852D01*
X112909666Y-68967999D01*
X113192336Y-68967999D01*
X113469575Y-68912852D01*
X113730728Y-68804679D01*
X113965760Y-68647636D01*
X114165638Y-68447758D01*
X114321001Y-68215240D01*
X114476364Y-68447758D01*
X114676242Y-68647636D01*
X114911274Y-68804679D01*
X115172427Y-68912852D01*
X115449666Y-68967999D01*
X115732336Y-68967999D01*
X116009575Y-68912852D01*
X116270728Y-68804679D01*
X116505760Y-68647636D01*
X116705638Y-68447758D01*
X116861001Y-68215240D01*
X117016364Y-68447758D01*
X117216242Y-68647636D01*
X117451274Y-68804679D01*
X117712427Y-68912852D01*
X117989666Y-68967999D01*
X118272336Y-68967999D01*
X118549575Y-68912852D01*
X118810728Y-68804679D01*
X119045760Y-68647636D01*
X119245638Y-68447758D01*
X119401001Y-68215240D01*
X119556364Y-68447758D01*
X119756242Y-68647636D01*
X119991274Y-68804679D01*
X120252427Y-68912852D01*
X120529666Y-68967999D01*
X120812336Y-68967999D01*
X121089575Y-68912852D01*
X121350728Y-68804679D01*
X121585760Y-68647636D01*
X121785638Y-68447758D01*
X121941001Y-68215240D01*
X122096364Y-68447758D01*
X122296242Y-68647636D01*
X122531274Y-68804679D01*
X122792427Y-68912852D01*
X123069666Y-68967999D01*
X123352336Y-68967999D01*
X123629575Y-68912852D01*
X123890728Y-68804679D01*
X124125760Y-68647636D01*
X124325638Y-68447758D01*
X124481001Y-68215240D01*
X124636364Y-68447758D01*
X124836242Y-68647636D01*
X125071274Y-68804679D01*
X125332427Y-68912852D01*
X125609666Y-68967999D01*
X125892336Y-68967999D01*
X126169575Y-68912852D01*
X126430728Y-68804679D01*
X126665760Y-68647636D01*
X126865638Y-68447758D01*
X127021001Y-68215240D01*
X127176364Y-68447758D01*
X127376242Y-68647636D01*
X127611274Y-68804679D01*
X127872427Y-68912852D01*
X128149666Y-68967999D01*
X128432336Y-68967999D01*
X128709575Y-68912852D01*
X128970728Y-68804679D01*
X129205760Y-68647636D01*
X129405638Y-68447758D01*
X129561001Y-68215240D01*
X129716364Y-68447758D01*
X129916242Y-68647636D01*
X130151274Y-68804679D01*
X130412427Y-68912852D01*
X130689666Y-68967999D01*
X130972336Y-68967999D01*
X131249575Y-68912852D01*
X131510728Y-68804679D01*
X131745760Y-68647636D01*
X131945638Y-68447758D01*
X132102681Y-68212726D01*
X132210854Y-67951573D01*
X132266001Y-67674334D01*
X132266001Y-67391664D01*
X132210854Y-67114425D01*
X132102681Y-66853272D01*
X131945638Y-66618240D01*
X131745760Y-66418362D01*
X131510728Y-66261319D01*
X131249575Y-66153146D01*
X130972336Y-66097999D01*
X130689666Y-66097999D01*
X130412427Y-66153146D01*
X130151274Y-66261319D01*
X129916242Y-66418362D01*
X129716364Y-66618240D01*
X129561001Y-66850758D01*
X129405638Y-66618240D01*
X129205760Y-66418362D01*
X128970728Y-66261319D01*
X128709575Y-66153146D01*
X128432336Y-66097999D01*
X128149666Y-66097999D01*
X127872427Y-66153146D01*
X127611274Y-66261319D01*
X127376242Y-66418362D01*
X127176364Y-66618240D01*
X127021001Y-66850758D01*
X126865638Y-66618240D01*
X126665760Y-66418362D01*
X126430728Y-66261319D01*
X126169575Y-66153146D01*
X125892336Y-66097999D01*
X125609666Y-66097999D01*
X125332427Y-66153146D01*
X125071274Y-66261319D01*
X124836242Y-66418362D01*
X124636364Y-66618240D01*
X124481001Y-66850758D01*
X124325638Y-66618240D01*
X124125760Y-66418362D01*
X123890728Y-66261319D01*
X123629575Y-66153146D01*
X123352336Y-66097999D01*
X123069666Y-66097999D01*
X122792427Y-66153146D01*
X122531274Y-66261319D01*
X122296242Y-66418362D01*
X122096364Y-66618240D01*
X121941001Y-66850758D01*
X121785638Y-66618240D01*
X121585760Y-66418362D01*
X121350728Y-66261319D01*
X121089575Y-66153146D01*
X120812336Y-66097999D01*
X120529666Y-66097999D01*
X120252427Y-66153146D01*
X119991274Y-66261319D01*
X119756242Y-66418362D01*
X119556364Y-66618240D01*
X119401001Y-66850758D01*
X119245638Y-66618240D01*
X119045760Y-66418362D01*
X118810728Y-66261319D01*
X118549575Y-66153146D01*
X118272336Y-66097999D01*
X117989666Y-66097999D01*
X117712427Y-66153146D01*
X117451274Y-66261319D01*
X117216242Y-66418362D01*
X117016364Y-66618240D01*
X116861001Y-66850758D01*
X116705638Y-66618240D01*
X116505760Y-66418362D01*
X116270728Y-66261319D01*
X116009575Y-66153146D01*
X115732336Y-66097999D01*
X115449666Y-66097999D01*
X115172427Y-66153146D01*
X114911274Y-66261319D01*
X114676242Y-66418362D01*
X114476364Y-66618240D01*
X114321001Y-66850758D01*
X114165638Y-66618240D01*
X113965760Y-66418362D01*
X113730728Y-66261319D01*
X113469575Y-66153146D01*
X113192336Y-66097999D01*
X112909666Y-66097999D01*
X112632427Y-66153146D01*
X112371274Y-66261319D01*
X112136242Y-66418362D01*
X111936364Y-66618240D01*
X111779321Y-66853272D01*
X111671148Y-67114425D01*
X111616001Y-67391664D01*
X95377000Y-67391664D01*
X95377000Y-58547000D01*
X168148000Y-58547000D01*
X168148000Y-81153000D01*
G37*
G04 #@! TD.AperFunction*
D24*
X104621082Y-140358537D02*
X104497832Y-140656088D01*
X104435000Y-140971967D01*
X104435000Y-141294033D01*
X104497832Y-141609912D01*
X104621082Y-141907463D01*
X104800013Y-142175252D01*
X105027748Y-142402987D01*
X105295537Y-142581918D01*
X105593088Y-142705168D01*
X105908967Y-142768000D01*
X106231033Y-142768000D01*
X106546912Y-142705168D01*
X106844463Y-142581918D01*
X107112252Y-142402987D01*
X107339987Y-142175252D01*
X107478468Y-141968000D01*
X111301982Y-141968000D01*
X111343000Y-141972040D01*
X111384018Y-141968000D01*
X111384019Y-141968000D01*
X111506689Y-141955918D01*
X111664087Y-141908172D01*
X111809146Y-141830636D01*
X111936291Y-141726291D01*
X111962446Y-141694422D01*
X112575426Y-141081442D01*
X112607291Y-141055291D01*
X112711636Y-140928146D01*
X112789172Y-140783087D01*
X112836918Y-140625689D01*
X112838351Y-140611143D01*
X112995281Y-140716000D01*
X112836698Y-140821961D01*
X112627961Y-141030698D01*
X112463958Y-141276147D01*
X112350990Y-141548875D01*
X112293400Y-141838401D01*
X112293400Y-142133599D01*
X112350990Y-142423125D01*
X112463958Y-142695853D01*
X112627961Y-142941302D01*
X112836698Y-143150039D01*
X112995281Y-143256000D01*
X112836698Y-143361961D01*
X112627961Y-143570698D01*
X112463958Y-143816147D01*
X112350990Y-144088875D01*
X112293400Y-144378401D01*
X112293400Y-144673599D01*
X112350990Y-144963125D01*
X112463958Y-145235853D01*
X112627961Y-145481302D01*
X112836698Y-145690039D01*
X112995281Y-145796000D01*
X112836698Y-145901961D01*
X112627961Y-146110698D01*
X112463958Y-146356147D01*
X112350990Y-146628875D01*
X112293400Y-146918401D01*
X112293400Y-147213599D01*
X112350990Y-147503125D01*
X112463958Y-147775853D01*
X112627961Y-148021302D01*
X112836698Y-148230039D01*
X113082147Y-148394042D01*
X113354875Y-148507010D01*
X113644401Y-148564600D01*
X113939599Y-148564600D01*
X114229125Y-148507010D01*
X114501853Y-148394042D01*
X114747302Y-148230039D01*
X114956039Y-148021302D01*
X115062000Y-147862719D01*
X115167961Y-148021302D01*
X115376698Y-148230039D01*
X115622147Y-148394042D01*
X115786863Y-148462270D01*
X115622144Y-148626989D01*
X108405858Y-148626989D01*
X102443873Y-142665005D01*
X102644463Y-142581918D01*
X102912252Y-142402987D01*
X103139987Y-142175252D01*
X103318918Y-141907463D01*
X103442168Y-141609912D01*
X103505000Y-141294033D01*
X103505000Y-140971967D01*
X103456372Y-140727496D01*
X103902868Y-140281000D01*
X104672891Y-140281000D01*
X104621082Y-140358537D01*
G04 #@! TA.AperFunction,Conductor*
D25*
G36*
X104621082Y-140358537D02*
G01*
X104497832Y-140656088D01*
X104435000Y-140971967D01*
X104435000Y-141294033D01*
X104497832Y-141609912D01*
X104621082Y-141907463D01*
X104800013Y-142175252D01*
X105027748Y-142402987D01*
X105295537Y-142581918D01*
X105593088Y-142705168D01*
X105908967Y-142768000D01*
X106231033Y-142768000D01*
X106546912Y-142705168D01*
X106844463Y-142581918D01*
X107112252Y-142402987D01*
X107339987Y-142175252D01*
X107478468Y-141968000D01*
X111301982Y-141968000D01*
X111343000Y-141972040D01*
X111384018Y-141968000D01*
X111384019Y-141968000D01*
X111506689Y-141955918D01*
X111664087Y-141908172D01*
X111809146Y-141830636D01*
X111936291Y-141726291D01*
X111962446Y-141694422D01*
X112575426Y-141081442D01*
X112607291Y-141055291D01*
X112711636Y-140928146D01*
X112789172Y-140783087D01*
X112836918Y-140625689D01*
X112838351Y-140611143D01*
X112995281Y-140716000D01*
X112836698Y-140821961D01*
X112627961Y-141030698D01*
X112463958Y-141276147D01*
X112350990Y-141548875D01*
X112293400Y-141838401D01*
X112293400Y-142133599D01*
X112350990Y-142423125D01*
X112463958Y-142695853D01*
X112627961Y-142941302D01*
X112836698Y-143150039D01*
X112995281Y-143256000D01*
X112836698Y-143361961D01*
X112627961Y-143570698D01*
X112463958Y-143816147D01*
X112350990Y-144088875D01*
X112293400Y-144378401D01*
X112293400Y-144673599D01*
X112350990Y-144963125D01*
X112463958Y-145235853D01*
X112627961Y-145481302D01*
X112836698Y-145690039D01*
X112995281Y-145796000D01*
X112836698Y-145901961D01*
X112627961Y-146110698D01*
X112463958Y-146356147D01*
X112350990Y-146628875D01*
X112293400Y-146918401D01*
X112293400Y-147213599D01*
X112350990Y-147503125D01*
X112463958Y-147775853D01*
X112627961Y-148021302D01*
X112836698Y-148230039D01*
X113082147Y-148394042D01*
X113354875Y-148507010D01*
X113644401Y-148564600D01*
X113939599Y-148564600D01*
X114229125Y-148507010D01*
X114501853Y-148394042D01*
X114747302Y-148230039D01*
X114956039Y-148021302D01*
X115062000Y-147862719D01*
X115167961Y-148021302D01*
X115376698Y-148230039D01*
X115622147Y-148394042D01*
X115786863Y-148462270D01*
X115622144Y-148626989D01*
X108405858Y-148626989D01*
X102443873Y-142665005D01*
X102644463Y-142581918D01*
X102912252Y-142402987D01*
X103139987Y-142175252D01*
X103318918Y-141907463D01*
X103442168Y-141609912D01*
X103505000Y-141294033D01*
X103505000Y-140971967D01*
X103456372Y-140727496D01*
X103902868Y-140281000D01*
X104672891Y-140281000D01*
X104621082Y-140358537D01*
G37*
G04 #@! TD.AperFunction*
D24*
X120069000Y-134330869D02*
X120069001Y-144180130D01*
X117728270Y-146520862D01*
X117660042Y-146356147D01*
X117496039Y-146110698D01*
X117287302Y-145901961D01*
X117128719Y-145796000D01*
X117287302Y-145690039D01*
X117496039Y-145481302D01*
X117660042Y-145235853D01*
X117773010Y-144963125D01*
X117830600Y-144673599D01*
X117830600Y-144378401D01*
X117773010Y-144088875D01*
X117660042Y-143816147D01*
X117496039Y-143570698D01*
X117287302Y-143361961D01*
X117041853Y-143197958D01*
X116769125Y-143084990D01*
X116479599Y-143027400D01*
X116184401Y-143027400D01*
X115894875Y-143084990D01*
X115622147Y-143197958D01*
X115376698Y-143361961D01*
X115167961Y-143570698D01*
X115062000Y-143729281D01*
X114956039Y-143570698D01*
X114747302Y-143361961D01*
X114588719Y-143256000D01*
X114747302Y-143150039D01*
X114956039Y-142941302D01*
X115120042Y-142695853D01*
X115233010Y-142423125D01*
X115290600Y-142133599D01*
X115290600Y-141838401D01*
X115233010Y-141548875D01*
X115120042Y-141276147D01*
X114956039Y-141030698D01*
X114747302Y-140821961D01*
X114588719Y-140716000D01*
X114747302Y-140610039D01*
X114956039Y-140401302D01*
X115062000Y-140242719D01*
X115167961Y-140401302D01*
X115376698Y-140610039D01*
X115622147Y-140774042D01*
X115894875Y-140887010D01*
X116184401Y-140944600D01*
X116479599Y-140944600D01*
X116769125Y-140887010D01*
X117041853Y-140774042D01*
X117287302Y-140610039D01*
X117496039Y-140401302D01*
X117660042Y-140155853D01*
X117773010Y-139883125D01*
X117830600Y-139593599D01*
X117830600Y-139298401D01*
X117773010Y-139008875D01*
X117660042Y-138736147D01*
X117496039Y-138490698D01*
X117287302Y-138281961D01*
X117128719Y-138176000D01*
X117287302Y-138070039D01*
X117496039Y-137861302D01*
X117660042Y-137615853D01*
X117773010Y-137343125D01*
X117830600Y-137053599D01*
X117830600Y-136758401D01*
X117773010Y-136468875D01*
X117660042Y-136196147D01*
X117496039Y-135950698D01*
X117287302Y-135741961D01*
X117128719Y-135636000D01*
X117287302Y-135530039D01*
X117496039Y-135321302D01*
X117660042Y-135075853D01*
X117773010Y-134803125D01*
X117830600Y-134513599D01*
X117830600Y-134218401D01*
X117773010Y-133928875D01*
X117660042Y-133656147D01*
X117496039Y-133410698D01*
X117287302Y-133201961D01*
X117128719Y-133096000D01*
X117287302Y-132990039D01*
X117496039Y-132781302D01*
X117660042Y-132535853D01*
X117773010Y-132263125D01*
X117810878Y-132072746D01*
X120069000Y-134330869D01*
G04 #@! TA.AperFunction,Conductor*
D25*
G36*
X120069000Y-134330869D02*
G01*
X120069001Y-144180130D01*
X117728270Y-146520862D01*
X117660042Y-146356147D01*
X117496039Y-146110698D01*
X117287302Y-145901961D01*
X117128719Y-145796000D01*
X117287302Y-145690039D01*
X117496039Y-145481302D01*
X117660042Y-145235853D01*
X117773010Y-144963125D01*
X117830600Y-144673599D01*
X117830600Y-144378401D01*
X117773010Y-144088875D01*
X117660042Y-143816147D01*
X117496039Y-143570698D01*
X117287302Y-143361961D01*
X117041853Y-143197958D01*
X116769125Y-143084990D01*
X116479599Y-143027400D01*
X116184401Y-143027400D01*
X115894875Y-143084990D01*
X115622147Y-143197958D01*
X115376698Y-143361961D01*
X115167961Y-143570698D01*
X115062000Y-143729281D01*
X114956039Y-143570698D01*
X114747302Y-143361961D01*
X114588719Y-143256000D01*
X114747302Y-143150039D01*
X114956039Y-142941302D01*
X115120042Y-142695853D01*
X115233010Y-142423125D01*
X115290600Y-142133599D01*
X115290600Y-141838401D01*
X115233010Y-141548875D01*
X115120042Y-141276147D01*
X114956039Y-141030698D01*
X114747302Y-140821961D01*
X114588719Y-140716000D01*
X114747302Y-140610039D01*
X114956039Y-140401302D01*
X115062000Y-140242719D01*
X115167961Y-140401302D01*
X115376698Y-140610039D01*
X115622147Y-140774042D01*
X115894875Y-140887010D01*
X116184401Y-140944600D01*
X116479599Y-140944600D01*
X116769125Y-140887010D01*
X117041853Y-140774042D01*
X117287302Y-140610039D01*
X117496039Y-140401302D01*
X117660042Y-140155853D01*
X117773010Y-139883125D01*
X117830600Y-139593599D01*
X117830600Y-139298401D01*
X117773010Y-139008875D01*
X117660042Y-138736147D01*
X117496039Y-138490698D01*
X117287302Y-138281961D01*
X117128719Y-138176000D01*
X117287302Y-138070039D01*
X117496039Y-137861302D01*
X117660042Y-137615853D01*
X117773010Y-137343125D01*
X117830600Y-137053599D01*
X117830600Y-136758401D01*
X117773010Y-136468875D01*
X117660042Y-136196147D01*
X117496039Y-135950698D01*
X117287302Y-135741961D01*
X117128719Y-135636000D01*
X117287302Y-135530039D01*
X117496039Y-135321302D01*
X117660042Y-135075853D01*
X117773010Y-134803125D01*
X117830600Y-134513599D01*
X117830600Y-134218401D01*
X117773010Y-133928875D01*
X117660042Y-133656147D01*
X117496039Y-133410698D01*
X117287302Y-133201961D01*
X117128719Y-133096000D01*
X117287302Y-132990039D01*
X117496039Y-132781302D01*
X117660042Y-132535853D01*
X117773010Y-132263125D01*
X117810878Y-132072746D01*
X120069000Y-134330869D01*
G37*
G04 #@! TD.AperFunction*
D24*
X114833400Y-126598401D02*
X114833400Y-126893599D01*
X114861627Y-127035506D01*
X114716133Y-127181000D01*
X114214018Y-127181000D01*
X114173000Y-127176960D01*
X114131982Y-127181000D01*
X114131981Y-127181000D01*
X114067011Y-127187399D01*
X113226489Y-127187399D01*
X113185470Y-127183359D01*
X113144452Y-127187399D01*
X113021782Y-127199481D01*
X112864384Y-127247227D01*
X112719325Y-127324763D01*
X112592180Y-127429108D01*
X112566032Y-127460970D01*
X111833000Y-128194003D01*
X111833000Y-127853867D01*
X113375869Y-126311000D01*
X114890567Y-126311000D01*
X114833400Y-126598401D01*
G04 #@! TA.AperFunction,Conductor*
D25*
G36*
X114833400Y-126598401D02*
G01*
X114833400Y-126893599D01*
X114861627Y-127035506D01*
X114716133Y-127181000D01*
X114214018Y-127181000D01*
X114173000Y-127176960D01*
X114131982Y-127181000D01*
X114131981Y-127181000D01*
X114067011Y-127187399D01*
X113226489Y-127187399D01*
X113185470Y-127183359D01*
X113144452Y-127187399D01*
X113021782Y-127199481D01*
X112864384Y-127247227D01*
X112719325Y-127324763D01*
X112592180Y-127429108D01*
X112566032Y-127460970D01*
X111833000Y-128194003D01*
X111833000Y-127853867D01*
X113375869Y-126311000D01*
X114890567Y-126311000D01*
X114833400Y-126598401D01*
G37*
G04 #@! TD.AperFunction*
D24*
X114890990Y-121228875D02*
X114833400Y-121518401D01*
X114833400Y-121813599D01*
X114861627Y-121955506D01*
X114716133Y-122101000D01*
X113198018Y-122101000D01*
X113156999Y-122096960D01*
X112993311Y-122113082D01*
X112835913Y-122160828D01*
X112690854Y-122238364D01*
X112563709Y-122342709D01*
X112537561Y-122374571D01*
X109801000Y-125111133D01*
X109801000Y-122646867D01*
X111223267Y-121224601D01*
X114892760Y-121224601D01*
X114890990Y-121228875D01*
G04 #@! TA.AperFunction,Conductor*
D25*
G36*
X114890990Y-121228875D02*
G01*
X114833400Y-121518401D01*
X114833400Y-121813599D01*
X114861627Y-121955506D01*
X114716133Y-122101000D01*
X113198018Y-122101000D01*
X113156999Y-122096960D01*
X112993311Y-122113082D01*
X112835913Y-122160828D01*
X112690854Y-122238364D01*
X112563709Y-122342709D01*
X112537561Y-122374571D01*
X109801000Y-125111133D01*
X109801000Y-122646867D01*
X111223267Y-121224601D01*
X114892760Y-121224601D01*
X114890990Y-121228875D01*
G37*
G04 #@! TD.AperFunction*
M02*
