G04 #@! TF.GenerationSoftware,KiCad,Pcbnew,(5.1.9-0-10_14)*
G04 #@! TF.CreationDate,2021-05-12T23:54:49+10:00*
G04 #@! TF.ProjectId,Shield,53686965-6c64-42e6-9b69-6361645f7063,rev?*
G04 #@! TF.SameCoordinates,Original*
G04 #@! TF.FileFunction,Legend,Top*
G04 #@! TF.FilePolarity,Positive*
%FSLAX46Y46*%
G04 Gerber Fmt 4.6, Leading zero omitted, Abs format (unit mm)*
G04 Created by KiCad (PCBNEW (5.1.9-0-10_14)) date 2021-05-12 23:54:49*
%MOMM*%
%LPD*%
G01*
G04 APERTURE LIST*
%ADD10C,0.120000*%
%ADD11C,0.150000*%
%ADD12C,0.300000*%
%ADD13C,0.010000*%
%ADD14C,0.100000*%
%ADD15C,0.200000*%
G04 APERTURE END LIST*
D10*
X123952000Y-141478000D02*
X124460000Y-141478000D01*
X123952000Y-152908000D02*
X123952000Y-141478000D01*
X139192000Y-152908000D02*
X123952000Y-152908000D01*
X139192000Y-141478000D02*
X139192000Y-152908000D01*
X123952000Y-129794000D02*
X139192000Y-129794000D01*
X139192000Y-141478000D02*
X139192000Y-129794000D01*
X124460000Y-141478000D02*
X139192000Y-141478000D01*
X123952000Y-129794000D02*
X123952000Y-141478000D01*
D11*
X137628380Y-147137333D02*
X138628380Y-146804000D01*
X137628380Y-146470666D01*
X138628380Y-145565904D02*
X138152190Y-145899238D01*
X138628380Y-146137333D02*
X137628380Y-146137333D01*
X137628380Y-145756380D01*
X137676000Y-145661142D01*
X137723619Y-145613523D01*
X137818857Y-145565904D01*
X137961714Y-145565904D01*
X138056952Y-145613523D01*
X138104571Y-145661142D01*
X138152190Y-145756380D01*
X138152190Y-146137333D01*
X137374380Y-137485333D02*
X138374380Y-137152000D01*
X137374380Y-136818666D01*
X138374380Y-135913904D02*
X137898190Y-136247238D01*
X138374380Y-136485333D02*
X137374380Y-136485333D01*
X137374380Y-136104380D01*
X137422000Y-136009142D01*
X137469619Y-135961523D01*
X137564857Y-135913904D01*
X137707714Y-135913904D01*
X137802952Y-135961523D01*
X137850571Y-136009142D01*
X137898190Y-136104380D01*
X137898190Y-136485333D01*
X128468380Y-137913904D02*
X127468380Y-137913904D01*
X127944571Y-137913904D02*
X127944571Y-137342476D01*
X128468380Y-137342476D02*
X127468380Y-137342476D01*
X128468380Y-136437714D02*
X127944571Y-136437714D01*
X127849333Y-136485333D01*
X127801714Y-136580571D01*
X127801714Y-136771047D01*
X127849333Y-136866285D01*
X128420761Y-136437714D02*
X128468380Y-136532952D01*
X128468380Y-136771047D01*
X128420761Y-136866285D01*
X128325523Y-136913904D01*
X128230285Y-136913904D01*
X128135047Y-136866285D01*
X128087428Y-136771047D01*
X128087428Y-136532952D01*
X128039809Y-136437714D01*
X128468380Y-135818666D02*
X128420761Y-135913904D01*
X128325523Y-135961523D01*
X127468380Y-135961523D01*
X128468380Y-135294857D02*
X128420761Y-135390095D01*
X128325523Y-135437714D01*
X127468380Y-135437714D01*
X128468380Y-147819904D02*
X127468380Y-147819904D01*
X127944571Y-147819904D02*
X127944571Y-147248476D01*
X128468380Y-147248476D02*
X127468380Y-147248476D01*
X128468380Y-146343714D02*
X127944571Y-146343714D01*
X127849333Y-146391333D01*
X127801714Y-146486571D01*
X127801714Y-146677047D01*
X127849333Y-146772285D01*
X128420761Y-146343714D02*
X128468380Y-146438952D01*
X128468380Y-146677047D01*
X128420761Y-146772285D01*
X128325523Y-146819904D01*
X128230285Y-146819904D01*
X128135047Y-146772285D01*
X128087428Y-146677047D01*
X128087428Y-146438952D01*
X128039809Y-146343714D01*
X128468380Y-145724666D02*
X128420761Y-145819904D01*
X128325523Y-145867523D01*
X127468380Y-145867523D01*
X128468380Y-145200857D02*
X128420761Y-145296095D01*
X128325523Y-145343714D01*
X127468380Y-145343714D01*
X132794476Y-131167142D02*
X132746857Y-131214761D01*
X132604000Y-131262380D01*
X132508761Y-131262380D01*
X132365904Y-131214761D01*
X132270666Y-131119523D01*
X132223047Y-131024285D01*
X132175428Y-130833809D01*
X132175428Y-130690952D01*
X132223047Y-130500476D01*
X132270666Y-130405238D01*
X132365904Y-130310000D01*
X132508761Y-130262380D01*
X132604000Y-130262380D01*
X132746857Y-130310000D01*
X132794476Y-130357619D01*
X133651619Y-131262380D02*
X133651619Y-130738571D01*
X133604000Y-130643333D01*
X133508761Y-130595714D01*
X133318285Y-130595714D01*
X133223047Y-130643333D01*
X133651619Y-131214761D02*
X133556380Y-131262380D01*
X133318285Y-131262380D01*
X133223047Y-131214761D01*
X133175428Y-131119523D01*
X133175428Y-131024285D01*
X133223047Y-130929047D01*
X133318285Y-130881428D01*
X133556380Y-130881428D01*
X133651619Y-130833809D01*
X134127809Y-131262380D02*
X134127809Y-130595714D01*
X134127809Y-130690952D02*
X134175428Y-130643333D01*
X134270666Y-130595714D01*
X134413523Y-130595714D01*
X134508761Y-130643333D01*
X134556380Y-130738571D01*
X134556380Y-131262380D01*
X134556380Y-130738571D02*
X134604000Y-130643333D01*
X134699238Y-130595714D01*
X134842095Y-130595714D01*
X134937333Y-130643333D01*
X134984952Y-130738571D01*
X134984952Y-131262380D01*
X132040476Y-152757142D02*
X131992857Y-152804761D01*
X131850000Y-152852380D01*
X131754761Y-152852380D01*
X131611904Y-152804761D01*
X131516666Y-152709523D01*
X131469047Y-152614285D01*
X131421428Y-152423809D01*
X131421428Y-152280952D01*
X131469047Y-152090476D01*
X131516666Y-151995238D01*
X131611904Y-151900000D01*
X131754761Y-151852380D01*
X131850000Y-151852380D01*
X131992857Y-151900000D01*
X132040476Y-151947619D01*
X132469047Y-152852380D02*
X132469047Y-152185714D01*
X132469047Y-152376190D02*
X132516666Y-152280952D01*
X132564285Y-152233333D01*
X132659523Y-152185714D01*
X132754761Y-152185714D01*
X133516666Y-152852380D02*
X133516666Y-152328571D01*
X133469047Y-152233333D01*
X133373809Y-152185714D01*
X133183333Y-152185714D01*
X133088095Y-152233333D01*
X133516666Y-152804761D02*
X133421428Y-152852380D01*
X133183333Y-152852380D01*
X133088095Y-152804761D01*
X133040476Y-152709523D01*
X133040476Y-152614285D01*
X133088095Y-152519047D01*
X133183333Y-152471428D01*
X133421428Y-152471428D01*
X133516666Y-152423809D01*
X133992857Y-152185714D02*
X133992857Y-152852380D01*
X133992857Y-152280952D02*
X134040476Y-152233333D01*
X134135714Y-152185714D01*
X134278571Y-152185714D01*
X134373809Y-152233333D01*
X134421428Y-152328571D01*
X134421428Y-152852380D01*
X134897619Y-152852380D02*
X134897619Y-151852380D01*
X134992857Y-152471428D02*
X135278571Y-152852380D01*
X135278571Y-152185714D02*
X134897619Y-152566666D01*
D12*
X141193857Y-107999571D02*
X141551000Y-108999571D01*
X141908142Y-107999571D01*
X142765285Y-107499571D02*
X142908142Y-107499571D01*
X143051000Y-107571000D01*
X143122428Y-107642428D01*
X143193857Y-107785285D01*
X143265285Y-108071000D01*
X143265285Y-108428142D01*
X143193857Y-108713857D01*
X143122428Y-108856714D01*
X143051000Y-108928142D01*
X142908142Y-108999571D01*
X142765285Y-108999571D01*
X142622428Y-108928142D01*
X142551000Y-108856714D01*
X142479571Y-108713857D01*
X142408142Y-108428142D01*
X142408142Y-108071000D01*
X142479571Y-107785285D01*
X142551000Y-107642428D01*
X142622428Y-107571000D01*
X142765285Y-107499571D01*
X143908142Y-108856714D02*
X143979571Y-108928142D01*
X143908142Y-108999571D01*
X143836714Y-108928142D01*
X143908142Y-108856714D01*
X143908142Y-108999571D01*
X145265285Y-107999571D02*
X145265285Y-108999571D01*
X144908142Y-107428142D02*
X144551000Y-108499571D01*
X145479571Y-108499571D01*
X146051000Y-108856714D02*
X146122428Y-108928142D01*
X146051000Y-108999571D01*
X145979571Y-108928142D01*
X146051000Y-108856714D01*
X146051000Y-108999571D01*
X146622428Y-107499571D02*
X147551000Y-107499571D01*
X147051000Y-108071000D01*
X147265285Y-108071000D01*
X147408142Y-108142428D01*
X147479571Y-108213857D01*
X147551000Y-108356714D01*
X147551000Y-108713857D01*
X147479571Y-108856714D01*
X147408142Y-108928142D01*
X147265285Y-108999571D01*
X146836714Y-108999571D01*
X146693857Y-108928142D01*
X146622428Y-108856714D01*
X149265285Y-107428142D02*
X147979571Y-109356714D01*
X150408142Y-107999571D02*
X150408142Y-108999571D01*
X150051000Y-107428142D02*
X149693857Y-108499571D01*
X150622428Y-108499571D01*
X151622428Y-109571000D02*
X151551000Y-109499571D01*
X151408142Y-109285285D01*
X151336714Y-109142428D01*
X151265285Y-108928142D01*
X151193857Y-108571000D01*
X151193857Y-108285285D01*
X151265285Y-107928142D01*
X151336714Y-107713857D01*
X151408142Y-107571000D01*
X151551000Y-107356714D01*
X151622428Y-107285285D01*
X152836714Y-108999571D02*
X152836714Y-107499571D01*
X152836714Y-108928142D02*
X152693857Y-108999571D01*
X152408142Y-108999571D01*
X152265285Y-108928142D01*
X152193857Y-108856714D01*
X152122428Y-108713857D01*
X152122428Y-108285285D01*
X152193857Y-108142428D01*
X152265285Y-108071000D01*
X152408142Y-107999571D01*
X152693857Y-107999571D01*
X152836714Y-108071000D01*
X153551000Y-108428142D02*
X154693857Y-108428142D01*
X154122428Y-108999571D02*
X154122428Y-107856714D01*
X155265285Y-109571000D02*
X155336714Y-109499571D01*
X155479571Y-109285285D01*
X155551000Y-109142428D01*
X155622428Y-108928142D01*
X155693857Y-108571000D01*
X155693857Y-108285285D01*
X155622428Y-107928142D01*
X155551000Y-107713857D01*
X155479571Y-107571000D01*
X155336714Y-107356714D01*
X155265285Y-107285285D01*
X157551000Y-108999571D02*
X157551000Y-107499571D01*
X158265285Y-107999571D02*
X158265285Y-108999571D01*
X158265285Y-108142428D02*
X158336714Y-108071000D01*
X158479571Y-107999571D01*
X158693857Y-107999571D01*
X158836714Y-108071000D01*
X158908142Y-108213857D01*
X158908142Y-108999571D01*
X159408142Y-107999571D02*
X159979571Y-107999571D01*
X159622428Y-107499571D02*
X159622428Y-108785285D01*
X159693857Y-108928142D01*
X159836714Y-108999571D01*
X159979571Y-108999571D01*
X161051000Y-108928142D02*
X160908142Y-108999571D01*
X160622428Y-108999571D01*
X160479571Y-108928142D01*
X160408142Y-108785285D01*
X160408142Y-108213857D01*
X160479571Y-108071000D01*
X160622428Y-107999571D01*
X160908142Y-107999571D01*
X161051000Y-108071000D01*
X161122428Y-108213857D01*
X161122428Y-108356714D01*
X160408142Y-108499571D01*
X161765285Y-108999571D02*
X161765285Y-107999571D01*
X161765285Y-108285285D02*
X161836714Y-108142428D01*
X161908142Y-108071000D01*
X162051000Y-107999571D01*
X162193857Y-107999571D01*
X162479571Y-107999571D02*
X163051000Y-107999571D01*
X162693857Y-108999571D02*
X162693857Y-107713857D01*
X162765285Y-107571000D01*
X162908142Y-107499571D01*
X163051000Y-107499571D01*
X164193857Y-108999571D02*
X164193857Y-108213857D01*
X164122428Y-108071000D01*
X163979571Y-107999571D01*
X163693857Y-107999571D01*
X163551000Y-108071000D01*
X164193857Y-108928142D02*
X164051000Y-108999571D01*
X163693857Y-108999571D01*
X163551000Y-108928142D01*
X163479571Y-108785285D01*
X163479571Y-108642428D01*
X163551000Y-108499571D01*
X163693857Y-108428142D01*
X164051000Y-108428142D01*
X164193857Y-108356714D01*
X165551000Y-108928142D02*
X165408142Y-108999571D01*
X165122428Y-108999571D01*
X164979571Y-108928142D01*
X164908142Y-108856714D01*
X164836714Y-108713857D01*
X164836714Y-108285285D01*
X164908142Y-108142428D01*
X164979571Y-108071000D01*
X165122428Y-107999571D01*
X165408142Y-107999571D01*
X165551000Y-108071000D01*
X166765285Y-108928142D02*
X166622428Y-108999571D01*
X166336714Y-108999571D01*
X166193857Y-108928142D01*
X166122428Y-108785285D01*
X166122428Y-108213857D01*
X166193857Y-108071000D01*
X166336714Y-107999571D01*
X166622428Y-107999571D01*
X166765285Y-108071000D01*
X166836714Y-108213857D01*
X166836714Y-108356714D01*
X166122428Y-108499571D01*
X147586714Y-110049571D02*
X147586714Y-111121000D01*
X147515285Y-111335285D01*
X147372428Y-111478142D01*
X147158142Y-111549571D01*
X147015285Y-111549571D01*
X148515285Y-111549571D02*
X148372428Y-111478142D01*
X148301000Y-111406714D01*
X148229571Y-111263857D01*
X148229571Y-110835285D01*
X148301000Y-110692428D01*
X148372428Y-110621000D01*
X148515285Y-110549571D01*
X148729571Y-110549571D01*
X148872428Y-110621000D01*
X148943857Y-110692428D01*
X149015285Y-110835285D01*
X149015285Y-111263857D01*
X148943857Y-111406714D01*
X148872428Y-111478142D01*
X148729571Y-111549571D01*
X148515285Y-111549571D01*
X149586714Y-111478142D02*
X149729571Y-111549571D01*
X150015285Y-111549571D01*
X150158142Y-111478142D01*
X150229571Y-111335285D01*
X150229571Y-111263857D01*
X150158142Y-111121000D01*
X150015285Y-111049571D01*
X149801000Y-111049571D01*
X149658142Y-110978142D01*
X149586714Y-110835285D01*
X149586714Y-110763857D01*
X149658142Y-110621000D01*
X149801000Y-110549571D01*
X150015285Y-110549571D01*
X150158142Y-110621000D01*
X150872428Y-111549571D02*
X150872428Y-110049571D01*
X151515285Y-111549571D02*
X151515285Y-110763857D01*
X151443857Y-110621000D01*
X151301000Y-110549571D01*
X151086714Y-110549571D01*
X150943857Y-110621000D01*
X150872428Y-110692428D01*
X153301000Y-111478142D02*
X153515285Y-111549571D01*
X153872428Y-111549571D01*
X154015285Y-111478142D01*
X154086714Y-111406714D01*
X154158142Y-111263857D01*
X154158142Y-111121000D01*
X154086714Y-110978142D01*
X154015285Y-110906714D01*
X153872428Y-110835285D01*
X153586714Y-110763857D01*
X153443857Y-110692428D01*
X153372428Y-110621000D01*
X153301000Y-110478142D01*
X153301000Y-110335285D01*
X153372428Y-110192428D01*
X153443857Y-110121000D01*
X153586714Y-110049571D01*
X153943857Y-110049571D01*
X154158142Y-110121000D01*
X154586714Y-110549571D02*
X155158142Y-110549571D01*
X154801000Y-110049571D02*
X154801000Y-111335285D01*
X154872428Y-111478142D01*
X155015285Y-111549571D01*
X155158142Y-111549571D01*
X156229571Y-111478142D02*
X156086714Y-111549571D01*
X155801000Y-111549571D01*
X155658142Y-111478142D01*
X155586714Y-111335285D01*
X155586714Y-110763857D01*
X155658142Y-110621000D01*
X155801000Y-110549571D01*
X156086714Y-110549571D01*
X156229571Y-110621000D01*
X156301000Y-110763857D01*
X156301000Y-110906714D01*
X155586714Y-111049571D01*
X156801000Y-110549571D02*
X157086714Y-111549571D01*
X157372428Y-110835285D01*
X157658142Y-111549571D01*
X157943857Y-110549571D01*
X159158142Y-111549571D02*
X159158142Y-110763857D01*
X159086714Y-110621000D01*
X158943857Y-110549571D01*
X158658142Y-110549571D01*
X158515285Y-110621000D01*
X159158142Y-111478142D02*
X159015285Y-111549571D01*
X158658142Y-111549571D01*
X158515285Y-111478142D01*
X158443857Y-111335285D01*
X158443857Y-111192428D01*
X158515285Y-111049571D01*
X158658142Y-110978142D01*
X159015285Y-110978142D01*
X159158142Y-110906714D01*
X159872428Y-111549571D02*
X159872428Y-110549571D01*
X159872428Y-110835285D02*
X159943857Y-110692428D01*
X160015285Y-110621000D01*
X160158142Y-110549571D01*
X160301000Y-110549571D01*
X160586714Y-110549571D02*
X161158142Y-110549571D01*
X160801000Y-110049571D02*
X160801000Y-111335285D01*
X160872428Y-111478142D01*
X161015285Y-111549571D01*
X161158142Y-111549571D01*
X151908142Y-113099571D02*
X152265285Y-114099571D01*
X152622428Y-113099571D01*
X153979571Y-114099571D02*
X153122428Y-114099571D01*
X153551000Y-114099571D02*
X153551000Y-112599571D01*
X153408142Y-112813857D01*
X153265285Y-112956714D01*
X153122428Y-113028142D01*
X154622428Y-113956714D02*
X154693857Y-114028142D01*
X154622428Y-114099571D01*
X154551000Y-114028142D01*
X154622428Y-113956714D01*
X154622428Y-114099571D01*
X155265285Y-112742428D02*
X155336714Y-112671000D01*
X155479571Y-112599571D01*
X155836714Y-112599571D01*
X155979571Y-112671000D01*
X156051000Y-112742428D01*
X156122428Y-112885285D01*
X156122428Y-113028142D01*
X156051000Y-113242428D01*
X155193857Y-114099571D01*
X156122428Y-114099571D01*
D10*
X97218500Y-91256500D02*
X94234000Y-91256500D01*
D13*
G36*
X166306500Y-106362500D02*
G01*
X142303500Y-106362500D01*
X142303500Y-105124199D01*
X142990421Y-105124199D01*
X143044507Y-105231094D01*
X143154836Y-105310731D01*
X143322192Y-105363836D01*
X143414750Y-105379066D01*
X143499797Y-105386131D01*
X143635659Y-105392709D01*
X143809648Y-105398401D01*
X144009078Y-105402808D01*
X144221262Y-105405530D01*
X144264062Y-105405837D01*
X144938750Y-105410000D01*
X144938750Y-105298875D01*
X144941909Y-105283507D01*
X145070435Y-105283507D01*
X145071925Y-105351474D01*
X145079863Y-105449957D01*
X145095655Y-105501844D01*
X145129115Y-105524010D01*
X145176875Y-105531871D01*
X145260956Y-105551591D01*
X145316623Y-105579496D01*
X145368628Y-105596004D01*
X145478055Y-105609882D01*
X145638860Y-105620570D01*
X145829836Y-105627169D01*
X146011061Y-105631644D01*
X146138734Y-105636519D01*
X146222788Y-105643572D01*
X146273157Y-105654581D01*
X146299775Y-105671323D01*
X146312574Y-105695577D01*
X146317755Y-105714482D01*
X146354104Y-105778680D01*
X146411306Y-105784208D01*
X146460368Y-105751312D01*
X146498047Y-105727546D01*
X146516989Y-105751312D01*
X146553680Y-105770933D01*
X146634201Y-105784240D01*
X146739165Y-105790926D01*
X146849187Y-105790684D01*
X146944881Y-105783208D01*
X147006862Y-105768189D01*
X147018375Y-105759250D01*
X147061419Y-105736126D01*
X147128851Y-105727500D01*
X147197678Y-105739447D01*
X147231576Y-105788131D01*
X147240200Y-105820816D01*
X147263499Y-105883180D01*
X147310266Y-105919309D01*
X147398038Y-105940552D01*
X147432712Y-105945426D01*
X147482032Y-105929220D01*
X147504150Y-105911650D01*
X147538340Y-105850297D01*
X147542450Y-105824337D01*
X147567948Y-105776526D01*
X147629858Y-105725668D01*
X147637700Y-105721039D01*
X147702056Y-105672572D01*
X147732399Y-105626401D01*
X147732750Y-105622370D01*
X147748270Y-105600824D01*
X147800390Y-105583481D01*
X147897444Y-105568687D01*
X148047770Y-105554793D01*
X148089937Y-105551611D01*
X148247133Y-105540658D01*
X148392673Y-105531524D01*
X148507835Y-105525330D01*
X148563473Y-105523280D01*
X148645859Y-105516351D01*
X148697905Y-105502100D01*
X148701834Y-105499181D01*
X148742483Y-105496421D01*
X148784891Y-105515056D01*
X148838462Y-105536256D01*
X148872731Y-105509766D01*
X148874298Y-105507291D01*
X148905753Y-105478267D01*
X148949108Y-105500288D01*
X148952705Y-105503241D01*
X149003631Y-105528749D01*
X149051720Y-105504133D01*
X149102637Y-105480290D01*
X149137445Y-105500245D01*
X149193059Y-105533436D01*
X149255977Y-105518114D01*
X149331772Y-105458877D01*
X149417680Y-105401792D01*
X149523773Y-105383291D01*
X149550721Y-105383271D01*
X149595255Y-105383578D01*
X149700261Y-105383999D01*
X149862711Y-105384525D01*
X150079577Y-105385150D01*
X150347831Y-105385867D01*
X150664445Y-105386669D01*
X151026391Y-105387549D01*
X151430640Y-105388501D01*
X151874166Y-105389516D01*
X152353940Y-105390589D01*
X152866934Y-105391713D01*
X153410119Y-105392879D01*
X153980469Y-105394082D01*
X154574955Y-105395315D01*
X155190549Y-105396569D01*
X155824223Y-105397840D01*
X156289375Y-105398759D01*
X157126936Y-105400247D01*
X157914578Y-105401325D01*
X158651312Y-105401996D01*
X159336149Y-105402262D01*
X159968100Y-105402127D01*
X160546176Y-105401593D01*
X161069388Y-105400662D01*
X161536747Y-105399337D01*
X161947265Y-105397621D01*
X162299951Y-105395517D01*
X162593817Y-105393026D01*
X162827875Y-105390153D01*
X163001134Y-105386898D01*
X163112607Y-105383266D01*
X163154440Y-105380373D01*
X163411526Y-105332203D01*
X163621727Y-105256064D01*
X163779875Y-105154049D01*
X163825471Y-105108681D01*
X163882258Y-105028036D01*
X163947531Y-104911627D01*
X164008009Y-104783341D01*
X164013033Y-104771378D01*
X164060857Y-104653159D01*
X164125122Y-104489795D01*
X164203586Y-104287288D01*
X164294008Y-104051639D01*
X164394145Y-103788851D01*
X164501757Y-103504925D01*
X164614601Y-103205861D01*
X164730436Y-102897663D01*
X164847020Y-102586331D01*
X164962112Y-102277866D01*
X165073469Y-101978271D01*
X165178851Y-101693547D01*
X165276015Y-101429695D01*
X165362720Y-101192717D01*
X165436725Y-100988615D01*
X165495787Y-100823390D01*
X165537664Y-100703043D01*
X165560117Y-100633576D01*
X165563189Y-100621182D01*
X165568584Y-100505487D01*
X165539588Y-100415048D01*
X165470549Y-100346313D01*
X165355820Y-100295728D01*
X165189750Y-100259739D01*
X164966691Y-100234795D01*
X164946263Y-100233174D01*
X164767689Y-100221914D01*
X164563275Y-100213289D01*
X164342212Y-100207254D01*
X164113689Y-100203762D01*
X163886896Y-100202765D01*
X163671022Y-100204218D01*
X163475258Y-100208073D01*
X163308793Y-100214283D01*
X163180817Y-100222802D01*
X163100520Y-100233583D01*
X163077413Y-100242687D01*
X163050548Y-100292648D01*
X163012132Y-100380940D01*
X162980516Y-100461907D01*
X162913731Y-100641439D01*
X163617928Y-100653742D01*
X163863403Y-100658928D01*
X164053829Y-100665287D01*
X164197656Y-100673476D01*
X164303334Y-100684153D01*
X164379311Y-100697975D01*
X164434037Y-100715601D01*
X164438717Y-100717621D01*
X164565112Y-100798664D01*
X164634351Y-100906283D01*
X164648332Y-101043705D01*
X164645467Y-101069417D01*
X164630470Y-101126168D01*
X164594948Y-101235273D01*
X164541466Y-101389930D01*
X164472588Y-101583341D01*
X164390877Y-101808704D01*
X164298898Y-102059220D01*
X164199215Y-102328089D01*
X164094392Y-102608509D01*
X163986993Y-102893682D01*
X163879582Y-103176806D01*
X163774723Y-103451081D01*
X163674980Y-103709708D01*
X163582918Y-103945885D01*
X163501100Y-104152814D01*
X163432090Y-104323693D01*
X163378453Y-104451722D01*
X163342753Y-104530101D01*
X163335448Y-104543736D01*
X163235895Y-104680926D01*
X163111813Y-104786981D01*
X162954368Y-104866044D01*
X162754729Y-104922256D01*
X162504060Y-104959758D01*
X162433488Y-104966598D01*
X162366201Y-104969746D01*
X162238254Y-104972796D01*
X162052487Y-104975737D01*
X161811740Y-104978554D01*
X161518852Y-104981234D01*
X161176664Y-104983765D01*
X160788016Y-104986132D01*
X160355747Y-104988323D01*
X159882697Y-104990324D01*
X159371707Y-104992121D01*
X158825615Y-104993703D01*
X158247263Y-104995054D01*
X157639490Y-104996162D01*
X157005135Y-104997014D01*
X156347039Y-104997597D01*
X155758010Y-104997873D01*
X149415420Y-104999649D01*
X149344022Y-104932455D01*
X149260353Y-104882352D01*
X149173183Y-104881026D01*
X149093190Y-104882166D01*
X149039802Y-104862849D01*
X149039591Y-104862641D01*
X148993750Y-104847317D01*
X148956470Y-104869133D01*
X148905236Y-104893661D01*
X148859875Y-104870250D01*
X148799038Y-104848847D01*
X148772562Y-104859661D01*
X148720304Y-104875029D01*
X148635276Y-104882696D01*
X148547889Y-104881303D01*
X148494750Y-104872080D01*
X148458562Y-104868434D01*
X148372189Y-104862783D01*
X148248882Y-104855922D01*
X148113750Y-104849203D01*
X147939268Y-104837858D01*
X147815335Y-104822991D01*
X147747109Y-104805333D01*
X147735447Y-104795553D01*
X147705044Y-104751428D01*
X147646697Y-104688755D01*
X147632260Y-104674949D01*
X147573702Y-104607897D01*
X147543405Y-104549199D01*
X147542250Y-104540011D01*
X147526576Y-104507239D01*
X147470769Y-104491991D01*
X147398581Y-104489250D01*
X147309233Y-104492769D01*
X147263686Y-104510984D01*
X147242323Y-104555377D01*
X147235862Y-104584500D01*
X147211215Y-104653337D01*
X147161625Y-104677966D01*
X147127405Y-104679750D01*
X147055573Y-104669545D01*
X147018375Y-104648000D01*
X146977517Y-104630994D01*
X146893288Y-104620620D01*
X146785459Y-104616772D01*
X146673800Y-104619341D01*
X146578080Y-104628221D01*
X146518071Y-104643304D01*
X146508665Y-104650766D01*
X146476965Y-104668112D01*
X146452816Y-104650766D01*
X146390537Y-104617546D01*
X146339713Y-104644218D01*
X146317037Y-104695625D01*
X146284044Y-104756658D01*
X146244995Y-104778449D01*
X146193991Y-104780515D01*
X146094107Y-104783565D01*
X145959949Y-104787181D01*
X145811875Y-104790812D01*
X145618665Y-104796214D01*
X145479936Y-104804317D01*
X145386674Y-104818654D01*
X145329865Y-104842757D01*
X145300495Y-104880158D01*
X145289549Y-104934390D01*
X145288000Y-104996101D01*
X145282476Y-105093713D01*
X145260630Y-105148885D01*
X145216562Y-105181145D01*
X145145125Y-105215995D01*
X145216562Y-105237325D01*
X145268820Y-105269569D01*
X145287287Y-105336374D01*
X145288000Y-105362681D01*
X145271053Y-105449605D01*
X145226987Y-105487637D01*
X145165958Y-105470570D01*
X145143191Y-105451155D01*
X145105379Y-105371808D01*
X145105229Y-105308232D01*
X145106235Y-105237095D01*
X145090444Y-105199264D01*
X145076551Y-105217656D01*
X145070435Y-105283507D01*
X144941909Y-105283507D01*
X144959658Y-105197186D01*
X145012914Y-105112835D01*
X145084308Y-105065196D01*
X145113375Y-105060750D01*
X145155660Y-105045986D01*
X145161000Y-105033476D01*
X145131217Y-105021859D01*
X145049645Y-105009192D01*
X144927949Y-104996845D01*
X144777794Y-104986186D01*
X144740312Y-104984109D01*
X144514628Y-104969856D01*
X144342026Y-104952305D01*
X144212094Y-104928977D01*
X144114419Y-104897394D01*
X144038590Y-104855081D01*
X143977143Y-104802527D01*
X143916757Y-104732612D01*
X143895103Y-104667650D01*
X143901142Y-104574527D01*
X143901143Y-104574522D01*
X143915357Y-104522458D01*
X143949854Y-104417888D01*
X144002108Y-104267569D01*
X144069592Y-104078259D01*
X144149780Y-103856713D01*
X144154002Y-103845171D01*
X144472923Y-103845171D01*
X144475156Y-103874608D01*
X144506139Y-103903878D01*
X144510125Y-103906990D01*
X144684631Y-104005583D01*
X144893851Y-104063599D01*
X145122382Y-104079451D01*
X145354816Y-104051552D01*
X145468546Y-104018513D01*
X146378585Y-104018513D01*
X146402293Y-104035296D01*
X146464727Y-104042916D01*
X146578083Y-104044749D01*
X146582058Y-104044750D01*
X146800896Y-104044750D01*
X146817644Y-104005895D01*
X148420981Y-104005895D01*
X148427293Y-104020296D01*
X148454762Y-104030622D01*
X148510908Y-104037547D01*
X148603247Y-104041746D01*
X148739301Y-104043894D01*
X148926586Y-104044666D01*
X149074681Y-104044750D01*
X149752096Y-104044750D01*
X150241800Y-104044750D01*
X151599355Y-104044750D01*
X151608882Y-104020937D01*
X152091233Y-104020937D01*
X152113730Y-104032749D01*
X152188082Y-104040620D01*
X152302783Y-104044786D01*
X152446323Y-104045487D01*
X152607196Y-104042959D01*
X152773896Y-104037442D01*
X152934913Y-104029173D01*
X153078742Y-104018390D01*
X153193875Y-104005332D01*
X153241375Y-103997145D01*
X153486929Y-103924225D01*
X153741101Y-103811306D01*
X153979777Y-103670768D01*
X154089247Y-103585271D01*
X154899263Y-103585271D01*
X154921542Y-103757262D01*
X154995447Y-103894700D01*
X155118326Y-103995987D01*
X155287527Y-104059526D01*
X155500399Y-104083720D01*
X155708599Y-104072747D01*
X155832691Y-104047679D01*
X158245877Y-104047679D01*
X158441835Y-104038277D01*
X158637792Y-104028875D01*
X159008674Y-103155750D01*
X159103297Y-102933723D01*
X159190981Y-102729372D01*
X159268383Y-102550382D01*
X159332155Y-102404441D01*
X159378952Y-102299238D01*
X159405429Y-102242458D01*
X159408991Y-102235887D01*
X159428756Y-102229586D01*
X159451543Y-102274334D01*
X159479532Y-102375180D01*
X159491347Y-102426387D01*
X159515974Y-102528425D01*
X159554666Y-102678494D01*
X159603946Y-102863599D01*
X159660342Y-103070739D01*
X159720380Y-103286918D01*
X159739316Y-103354187D01*
X159934363Y-104044750D01*
X160267086Y-104044750D01*
X160395229Y-103751062D01*
X160471359Y-103576109D01*
X160558508Y-103375031D01*
X160605012Y-103267427D01*
X161171666Y-103267427D01*
X161188518Y-103498547D01*
X161256733Y-103707393D01*
X161325461Y-103822584D01*
X161419723Y-103931100D01*
X161526656Y-104005260D01*
X161658962Y-104049656D01*
X161829341Y-104068879D01*
X162007266Y-104069052D01*
X162160764Y-104062627D01*
X162272817Y-104050954D01*
X162365481Y-104029011D01*
X162460810Y-103991778D01*
X162564969Y-103942108D01*
X162841605Y-103771923D01*
X163096010Y-103549411D01*
X163319515Y-103284280D01*
X163503450Y-102986239D01*
X163593239Y-102790625D01*
X163647372Y-102633319D01*
X163679338Y-102476072D01*
X163695394Y-102287837D01*
X163695639Y-102282625D01*
X163700476Y-102141303D01*
X163696983Y-102042335D01*
X163681630Y-101964755D01*
X163650886Y-101887596D01*
X163618132Y-101822250D01*
X163502465Y-101661120D01*
X163348331Y-101549873D01*
X163154844Y-101488027D01*
X162974994Y-101473776D01*
X162702613Y-101494595D01*
X162455139Y-101558163D01*
X162221882Y-101669363D01*
X161992149Y-101833078D01*
X161796869Y-102011966D01*
X161583042Y-102254063D01*
X161411866Y-102507351D01*
X161285083Y-102765136D01*
X161204435Y-103020725D01*
X161171666Y-103267427D01*
X160605012Y-103267427D01*
X160653556Y-103155107D01*
X160753378Y-102923618D01*
X160854852Y-102687842D01*
X160954857Y-102455059D01*
X161050268Y-102232549D01*
X161137963Y-102027592D01*
X161214820Y-101847466D01*
X161277716Y-101699452D01*
X161323528Y-101590829D01*
X161349134Y-101528877D01*
X161353500Y-101517146D01*
X161324681Y-101510535D01*
X161249938Y-101506038D01*
X161167697Y-101504750D01*
X160981895Y-101504750D01*
X160590409Y-102425500D01*
X160493828Y-102650988D01*
X160404454Y-102856475D01*
X160325434Y-103034971D01*
X160259916Y-103179486D01*
X160211047Y-103283032D01*
X160181976Y-103338618D01*
X160175752Y-103346250D01*
X160156922Y-103318157D01*
X160136834Y-103247456D01*
X160129913Y-103211312D01*
X160115766Y-103146937D01*
X160087032Y-103031395D01*
X160046391Y-102874628D01*
X159996523Y-102686577D01*
X159940108Y-102477183D01*
X159879827Y-102256387D01*
X159818359Y-102034130D01*
X159758385Y-101820353D01*
X159702583Y-101624997D01*
X159697649Y-101607937D01*
X159675341Y-101546210D01*
X159642109Y-101515803D01*
X159578057Y-101505680D01*
X159511624Y-101504750D01*
X159406136Y-101511556D01*
X159346561Y-101535356D01*
X159324663Y-101562338D01*
X159305756Y-101603169D01*
X159264547Y-101695885D01*
X159203847Y-101834043D01*
X159126465Y-102011206D01*
X159035211Y-102220932D01*
X158932897Y-102456781D01*
X158822332Y-102712314D01*
X158769860Y-102833803D01*
X158245877Y-104047679D01*
X155832691Y-104047679D01*
X155835157Y-104047181D01*
X155842992Y-104044750D01*
X157107302Y-104044750D01*
X157333338Y-104044243D01*
X157559375Y-104043736D01*
X158025858Y-102956805D01*
X158135314Y-102701923D01*
X158240111Y-102458181D01*
X158336830Y-102233509D01*
X158422055Y-102035833D01*
X158492367Y-101873083D01*
X158544348Y-101753186D01*
X158573763Y-101685917D01*
X158655183Y-101501959D01*
X158426544Y-101511292D01*
X158197906Y-101520625D01*
X157652604Y-102782687D01*
X157107302Y-104044750D01*
X155842992Y-104044750D01*
X155982257Y-104001541D01*
X156098293Y-103954432D01*
X156336123Y-103808377D01*
X156545553Y-103607210D01*
X156723545Y-103354038D01*
X156771148Y-103266875D01*
X156810303Y-103186732D01*
X156867018Y-103065301D01*
X156937397Y-102911406D01*
X157017543Y-102733870D01*
X157103560Y-102541519D01*
X157191552Y-102343175D01*
X157277623Y-102147662D01*
X157357876Y-101963805D01*
X157428416Y-101800428D01*
X157485346Y-101666355D01*
X157524770Y-101570409D01*
X157542791Y-101521414D01*
X157543500Y-101517678D01*
X157514656Y-101510770D01*
X157439474Y-101508613D01*
X157346835Y-101511172D01*
X157150170Y-101520625D01*
X156813393Y-102298500D01*
X156695602Y-102569894D01*
X156599170Y-102789782D01*
X156520574Y-102965079D01*
X156456289Y-103102699D01*
X156402790Y-103209559D01*
X156356554Y-103292572D01*
X156314055Y-103358654D01*
X156271770Y-103414719D01*
X156226173Y-103467684D01*
X156206484Y-103489261D01*
X156056487Y-103623739D01*
X155900660Y-103702206D01*
X155724569Y-103731565D01*
X155698671Y-103732141D01*
X155549580Y-103713102D01*
X155448424Y-103653080D01*
X155395046Y-103551739D01*
X155389290Y-103408744D01*
X155431000Y-103223759D01*
X155444037Y-103184532D01*
X155473562Y-103106648D01*
X155524131Y-102981168D01*
X155591341Y-102818676D01*
X155670791Y-102629756D01*
X155758078Y-102424991D01*
X155812567Y-102298500D01*
X155898989Y-102098570D01*
X155977436Y-101916852D01*
X156044251Y-101761839D01*
X156095773Y-101642025D01*
X156128344Y-101565905D01*
X156137990Y-101542966D01*
X156132573Y-101521438D01*
X156088070Y-101510601D01*
X155994869Y-101509007D01*
X155927186Y-101511216D01*
X155699950Y-101520625D01*
X155445611Y-102108000D01*
X155309134Y-102424676D01*
X155196691Y-102689414D01*
X155106101Y-102908112D01*
X155035181Y-103086668D01*
X154981751Y-103230980D01*
X154943629Y-103346947D01*
X154918635Y-103440465D01*
X154904586Y-103517434D01*
X154899301Y-103583752D01*
X154899263Y-103585271D01*
X154089247Y-103585271D01*
X154176780Y-103516908D01*
X154370172Y-103311468D01*
X154530620Y-103087793D01*
X154656122Y-102853811D01*
X154744679Y-102617448D01*
X154794291Y-102386633D01*
X154802956Y-102169294D01*
X154768674Y-101973356D01*
X154689445Y-101806750D01*
X154627252Y-101731752D01*
X154553155Y-101665190D01*
X154474618Y-101614431D01*
X154381438Y-101577029D01*
X154263412Y-101550537D01*
X154110337Y-101532510D01*
X153912009Y-101520502D01*
X153717625Y-101513691D01*
X153177875Y-101498240D01*
X152640794Y-102747682D01*
X152526948Y-103012411D01*
X152420756Y-103259114D01*
X152324859Y-103481671D01*
X152241900Y-103673962D01*
X152174520Y-103829865D01*
X152125361Y-103943260D01*
X152097065Y-104008025D01*
X152091233Y-104020937D01*
X151608882Y-104020937D01*
X151650427Y-103917107D01*
X151681694Y-103835753D01*
X151699741Y-103782584D01*
X151701500Y-103774232D01*
X151671679Y-103768664D01*
X151589928Y-103764009D01*
X151467816Y-103760677D01*
X151316912Y-103759080D01*
X151272875Y-103759000D01*
X151076687Y-103756537D01*
X150939031Y-103749240D01*
X150861661Y-103737247D01*
X150844250Y-103725359D01*
X150856359Y-103685440D01*
X150889606Y-103598964D01*
X150939363Y-103477415D01*
X151001005Y-103332275D01*
X151023297Y-103280859D01*
X151202345Y-102870000D01*
X151942846Y-102870000D01*
X152012673Y-102726275D01*
X152052733Y-102641083D01*
X152077990Y-102582107D01*
X152082500Y-102567525D01*
X152052840Y-102561609D01*
X151972217Y-102556790D01*
X151853164Y-102553583D01*
X151717375Y-102552500D01*
X151573623Y-102551010D01*
X151456514Y-102546963D01*
X151378583Y-102540985D01*
X151352250Y-102534168D01*
X151364127Y-102499500D01*
X151396454Y-102418729D01*
X151444276Y-102303949D01*
X151501865Y-102169043D01*
X151651481Y-101822250D01*
X152037382Y-101822250D01*
X152423283Y-101822249D01*
X152489257Y-101663499D01*
X152555230Y-101504749D01*
X151945802Y-101505114D01*
X151336375Y-101505479D01*
X150869885Y-102592552D01*
X150760467Y-102847377D01*
X150655736Y-103090996D01*
X150559105Y-103315494D01*
X150473985Y-103512954D01*
X150403788Y-103675462D01*
X150351927Y-103795102D01*
X150322597Y-103862187D01*
X150241800Y-104044750D01*
X149752096Y-104044750D01*
X149890924Y-103759000D01*
X149446837Y-103759000D01*
X149287163Y-103757399D01*
X149152960Y-103753002D01*
X149055593Y-103746420D01*
X149006429Y-103738262D01*
X149002713Y-103735187D01*
X149014571Y-103698938D01*
X149047190Y-103615473D01*
X149096099Y-103495845D01*
X149156825Y-103351110D01*
X149182556Y-103290687D01*
X149362436Y-102870000D01*
X150111028Y-102870000D01*
X150176014Y-102723088D01*
X150213151Y-102636996D01*
X150236673Y-102578355D01*
X150241000Y-102564338D01*
X150211332Y-102559693D01*
X150130655Y-102555903D01*
X150011457Y-102553372D01*
X149873229Y-102552500D01*
X149730192Y-102550410D01*
X149615004Y-102544725D01*
X149539675Y-102536322D01*
X149516041Y-102526432D01*
X149531772Y-102488245D01*
X149566528Y-102404157D01*
X149615031Y-102286933D01*
X149667044Y-102161307D01*
X149807463Y-101822250D01*
X150582154Y-101822250D01*
X150647465Y-101671437D01*
X150712776Y-101520625D01*
X150122009Y-101511966D01*
X149934190Y-101510492D01*
X149768374Y-101511620D01*
X149634956Y-101515080D01*
X149544335Y-101520604D01*
X149506984Y-101527841D01*
X149489541Y-101561453D01*
X149449891Y-101647147D01*
X149390815Y-101778628D01*
X149315095Y-101949602D01*
X149225512Y-102153775D01*
X149124849Y-102384851D01*
X149015887Y-102636537D01*
X148971039Y-102740557D01*
X148859082Y-103000194D01*
X148754070Y-103243078D01*
X148658846Y-103462684D01*
X148576249Y-103652488D01*
X148509123Y-103805965D01*
X148460308Y-103916591D01*
X148432647Y-103977840D01*
X148428309Y-103986744D01*
X148420981Y-104005895D01*
X146817644Y-104005895D01*
X147276489Y-102941437D01*
X147752081Y-101838125D01*
X147890681Y-101828098D01*
X148034542Y-101826928D01*
X148132483Y-101851940D01*
X148198641Y-101908691D01*
X148229413Y-101961232D01*
X148256303Y-102026838D01*
X148263447Y-102085814D01*
X148250634Y-102162242D01*
X148226908Y-102248577D01*
X148147071Y-102426478D01*
X148024964Y-102577699D01*
X147872805Y-102692273D01*
X147702814Y-102760238D01*
X147581701Y-102774750D01*
X147526399Y-102798638D01*
X147477590Y-102875800D01*
X147466322Y-102902392D01*
X147434967Y-102984921D01*
X147416949Y-103040413D01*
X147415250Y-103049677D01*
X147443386Y-103061921D01*
X147517410Y-103060589D01*
X147621744Y-103048052D01*
X147740811Y-103026682D01*
X147859033Y-102998848D01*
X147960835Y-102966922D01*
X147962136Y-102966432D01*
X148085841Y-102909592D01*
X148225108Y-102830667D01*
X148332027Y-102759293D01*
X148504896Y-102597112D01*
X148633498Y-102402836D01*
X148711058Y-102189194D01*
X148731816Y-102008174D01*
X148713505Y-101843365D01*
X148653285Y-101719020D01*
X148543223Y-101621958D01*
X148476826Y-101584427D01*
X148417719Y-101558705D01*
X148351143Y-101540910D01*
X148264372Y-101529648D01*
X148144678Y-101523524D01*
X147979335Y-101521144D01*
X147897422Y-101520927D01*
X147442970Y-101520625D01*
X146921281Y-102727125D01*
X146808414Y-102988469D01*
X146703069Y-103233006D01*
X146608001Y-103454297D01*
X146525963Y-103645905D01*
X146459710Y-103801392D01*
X146411996Y-103914319D01*
X146385574Y-103978250D01*
X146381406Y-103989187D01*
X146378585Y-104018513D01*
X145468546Y-104018513D01*
X145501121Y-104009050D01*
X145651181Y-103932911D01*
X145799780Y-103821419D01*
X145931398Y-103689601D01*
X146030512Y-103552489D01*
X146074640Y-103453691D01*
X146107788Y-103309842D01*
X146113327Y-103177304D01*
X146088646Y-103039693D01*
X146031129Y-102880625D01*
X145958193Y-102723827D01*
X145862175Y-102522750D01*
X145797045Y-102365907D01*
X145761138Y-102243008D01*
X145752789Y-102143768D01*
X145770335Y-102057896D01*
X145812111Y-101975106D01*
X145832169Y-101944923D01*
X145907471Y-101874555D01*
X146018326Y-101811341D01*
X146137113Y-101768866D01*
X146210657Y-101758749D01*
X146278949Y-101772844D01*
X146369836Y-101807929D01*
X146395793Y-101820486D01*
X146516806Y-101882223D01*
X146634115Y-101762087D01*
X146700960Y-101688248D01*
X146725552Y-101642398D01*
X146714065Y-101611451D01*
X146707839Y-101605780D01*
X146583884Y-101535757D01*
X146418083Y-101489768D01*
X146229233Y-101473002D01*
X146226835Y-101473000D01*
X145990445Y-101497996D01*
X145775377Y-101568781D01*
X145589293Y-101679046D01*
X145439853Y-101822484D01*
X145334721Y-101992787D01*
X145281558Y-102183649D01*
X145276630Y-102255251D01*
X145280330Y-102339071D01*
X145297316Y-102423272D01*
X145332564Y-102523042D01*
X145391053Y-102653564D01*
X145440637Y-102755512D01*
X145508601Y-102897610D01*
X145566679Y-103027767D01*
X145608230Y-103130538D01*
X145625876Y-103186194D01*
X145629278Y-103356206D01*
X145572583Y-103513171D01*
X145494944Y-103613439D01*
X145344408Y-103727003D01*
X145184396Y-103778047D01*
X145018123Y-103766269D01*
X144848808Y-103691364D01*
X144825797Y-103676335D01*
X144706459Y-103595349D01*
X144576542Y-103726450D01*
X144504899Y-103800731D01*
X144472923Y-103845171D01*
X144154002Y-103845171D01*
X144240144Y-103609687D01*
X144338158Y-103343939D01*
X144441294Y-103066224D01*
X144547026Y-102783299D01*
X144652828Y-102501921D01*
X144756171Y-102228845D01*
X144854531Y-101970829D01*
X144945378Y-101734628D01*
X145026188Y-101527000D01*
X145094432Y-101354701D01*
X145147584Y-101224486D01*
X145183118Y-101143113D01*
X145188806Y-101131480D01*
X145297752Y-100978188D01*
X145452073Y-100842934D01*
X145633711Y-100740799D01*
X145677066Y-100723718D01*
X145698737Y-100716427D01*
X145723599Y-100709740D01*
X145754390Y-100703627D01*
X145793847Y-100698058D01*
X145844707Y-100693001D01*
X145909707Y-100688427D01*
X145991586Y-100684306D01*
X146093079Y-100680606D01*
X146216924Y-100677297D01*
X146365859Y-100674349D01*
X146542621Y-100671731D01*
X146749947Y-100669413D01*
X146990574Y-100667365D01*
X147267240Y-100665555D01*
X147582682Y-100663953D01*
X147939637Y-100662530D01*
X148340843Y-100661254D01*
X148789036Y-100660095D01*
X149286955Y-100659022D01*
X149837336Y-100658006D01*
X150442916Y-100657015D01*
X151106433Y-100656019D01*
X151830625Y-100654988D01*
X151855092Y-100654954D01*
X157866559Y-100646533D01*
X157959582Y-100724807D01*
X158010306Y-100763326D01*
X158060487Y-100785119D01*
X158127901Y-100793231D01*
X158230327Y-100790704D01*
X158313990Y-100785482D01*
X158447998Y-100778343D01*
X158540149Y-100781070D01*
X158611763Y-100797149D01*
X158684160Y-100830066D01*
X158725171Y-100852713D01*
X158829181Y-100921302D01*
X158922460Y-100998697D01*
X158955159Y-101032845D01*
X159035351Y-101128148D01*
X159297488Y-101106183D01*
X159436738Y-101089459D01*
X159545941Y-101066540D01*
X159609028Y-101040875D01*
X159611645Y-101038768D01*
X159646823Y-101020075D01*
X159708023Y-101007917D01*
X159804942Y-101001599D01*
X159947279Y-101000428D01*
X160111759Y-101002971D01*
X160290637Y-101006012D01*
X160415368Y-101005581D01*
X160495252Y-101000856D01*
X160539588Y-100991016D01*
X160557673Y-100975241D01*
X160559801Y-100963412D01*
X160571618Y-100907986D01*
X160613360Y-100870936D01*
X160694255Y-100849110D01*
X160823532Y-100839362D01*
X160927337Y-100837999D01*
X161079229Y-100835099D01*
X161178894Y-100825336D01*
X161237387Y-100807119D01*
X161258250Y-100790374D01*
X161330700Y-100749437D01*
X161434598Y-100749907D01*
X161526502Y-100779537D01*
X161597421Y-100799797D01*
X161652659Y-100776908D01*
X161662933Y-100768488D01*
X161732918Y-100720542D01*
X161774187Y-100700947D01*
X161821061Y-100669105D01*
X161829750Y-100648496D01*
X161857335Y-100625505D01*
X161923801Y-100615752D01*
X161925000Y-100615750D01*
X161995860Y-100604899D01*
X162019844Y-100566747D01*
X162020250Y-100557541D01*
X162030421Y-100496127D01*
X162068626Y-100478244D01*
X162146405Y-100499881D01*
X162164694Y-100507327D01*
X162270465Y-100545913D01*
X162332162Y-100547371D01*
X162361298Y-100505269D01*
X162369389Y-100413172D01*
X162369500Y-100392895D01*
X162367828Y-100299156D01*
X162356850Y-100254727D01*
X162327618Y-100245418D01*
X162282187Y-100254412D01*
X162195427Y-100280639D01*
X162138656Y-100304110D01*
X162067633Y-100317993D01*
X162026810Y-100277522D01*
X162020250Y-100232876D01*
X161996944Y-100181203D01*
X161956319Y-100171250D01*
X161850351Y-100144468D01*
X161724892Y-100067959D01*
X161680180Y-100031945D01*
X161621874Y-99993143D01*
X161564313Y-99993585D01*
X161513935Y-100011801D01*
X161387450Y-100035856D01*
X161314255Y-100028549D01*
X161235326Y-100016487D01*
X161114580Y-100004264D01*
X160973656Y-99993946D01*
X160921354Y-99991056D01*
X160784082Y-99983287D01*
X160692936Y-99972672D01*
X160630615Y-99953348D01*
X160579819Y-99919451D01*
X160523246Y-99865117D01*
X160510098Y-99851675D01*
X160432579Y-99778298D01*
X160367431Y-99741149D01*
X160285887Y-99728083D01*
X160214248Y-99726750D01*
X160095045Y-99733328D01*
X159985861Y-99750079D01*
X159942879Y-99761906D01*
X159844004Y-99779815D01*
X159693020Y-99779831D01*
X159559625Y-99769843D01*
X159273875Y-99742625D01*
X159263891Y-99638978D01*
X159240138Y-99566976D01*
X159189625Y-99484927D01*
X159125577Y-99408007D01*
X159061218Y-99351391D01*
X159009773Y-99330256D01*
X158997843Y-99333679D01*
X158954931Y-99328695D01*
X158907670Y-99297148D01*
X158876900Y-99273810D01*
X158845634Y-99269729D01*
X158802485Y-99290641D01*
X158736068Y-99342276D01*
X158634996Y-99430368D01*
X158624350Y-99439802D01*
X158514542Y-99539496D01*
X158450777Y-99611318D01*
X158431309Y-99669216D01*
X158454394Y-99727134D01*
X158518286Y-99799017D01*
X158572769Y-99852040D01*
X158639504Y-99928027D01*
X158680418Y-99997318D01*
X158686500Y-100022973D01*
X158682380Y-100050772D01*
X158662355Y-100067724D01*
X158614928Y-100075507D01*
X158528602Y-100075804D01*
X158391878Y-100070294D01*
X158369952Y-100069246D01*
X158224477Y-100063156D01*
X158128046Y-100063182D01*
X158066321Y-100071521D01*
X158024967Y-100090373D01*
X157989647Y-100121933D01*
X157983418Y-100128502D01*
X157913431Y-100203000D01*
X151926153Y-100203972D01*
X151307986Y-100204224D01*
X150703254Y-100204768D01*
X150115331Y-100205587D01*
X149547592Y-100206667D01*
X149003410Y-100207991D01*
X148486160Y-100209543D01*
X147999216Y-100211309D01*
X147545951Y-100213271D01*
X147129741Y-100215415D01*
X146753959Y-100217725D01*
X146421979Y-100220185D01*
X146137175Y-100222779D01*
X145902922Y-100225492D01*
X145722594Y-100228307D01*
X145599565Y-100231210D01*
X145543058Y-100233698D01*
X145369909Y-100247684D01*
X145243194Y-100262822D01*
X145145900Y-100282909D01*
X145061016Y-100311742D01*
X144971529Y-100353119D01*
X144942957Y-100367663D01*
X144822055Y-100436308D01*
X144740040Y-100503184D01*
X144675831Y-100587405D01*
X144647316Y-100635722D01*
X144618399Y-100696994D01*
X144569951Y-100811230D01*
X144504282Y-100972352D01*
X144423703Y-101174286D01*
X144330524Y-101410954D01*
X144227056Y-101676282D01*
X144115609Y-101964194D01*
X143998494Y-102268614D01*
X143878020Y-102583465D01*
X143756499Y-102902673D01*
X143636241Y-103220161D01*
X143519556Y-103529853D01*
X143408754Y-103825674D01*
X143306147Y-104101547D01*
X143214045Y-104351397D01*
X143134757Y-104569148D01*
X143070595Y-104748725D01*
X143023869Y-104884050D01*
X142996889Y-104969049D01*
X142991793Y-104989326D01*
X142990421Y-105124199D01*
X142303500Y-105124199D01*
X142303500Y-98615500D01*
X166306500Y-98615500D01*
X166306500Y-106362500D01*
G37*
X166306500Y-106362500D02*
X142303500Y-106362500D01*
X142303500Y-105124199D01*
X142990421Y-105124199D01*
X143044507Y-105231094D01*
X143154836Y-105310731D01*
X143322192Y-105363836D01*
X143414750Y-105379066D01*
X143499797Y-105386131D01*
X143635659Y-105392709D01*
X143809648Y-105398401D01*
X144009078Y-105402808D01*
X144221262Y-105405530D01*
X144264062Y-105405837D01*
X144938750Y-105410000D01*
X144938750Y-105298875D01*
X144941909Y-105283507D01*
X145070435Y-105283507D01*
X145071925Y-105351474D01*
X145079863Y-105449957D01*
X145095655Y-105501844D01*
X145129115Y-105524010D01*
X145176875Y-105531871D01*
X145260956Y-105551591D01*
X145316623Y-105579496D01*
X145368628Y-105596004D01*
X145478055Y-105609882D01*
X145638860Y-105620570D01*
X145829836Y-105627169D01*
X146011061Y-105631644D01*
X146138734Y-105636519D01*
X146222788Y-105643572D01*
X146273157Y-105654581D01*
X146299775Y-105671323D01*
X146312574Y-105695577D01*
X146317755Y-105714482D01*
X146354104Y-105778680D01*
X146411306Y-105784208D01*
X146460368Y-105751312D01*
X146498047Y-105727546D01*
X146516989Y-105751312D01*
X146553680Y-105770933D01*
X146634201Y-105784240D01*
X146739165Y-105790926D01*
X146849187Y-105790684D01*
X146944881Y-105783208D01*
X147006862Y-105768189D01*
X147018375Y-105759250D01*
X147061419Y-105736126D01*
X147128851Y-105727500D01*
X147197678Y-105739447D01*
X147231576Y-105788131D01*
X147240200Y-105820816D01*
X147263499Y-105883180D01*
X147310266Y-105919309D01*
X147398038Y-105940552D01*
X147432712Y-105945426D01*
X147482032Y-105929220D01*
X147504150Y-105911650D01*
X147538340Y-105850297D01*
X147542450Y-105824337D01*
X147567948Y-105776526D01*
X147629858Y-105725668D01*
X147637700Y-105721039D01*
X147702056Y-105672572D01*
X147732399Y-105626401D01*
X147732750Y-105622370D01*
X147748270Y-105600824D01*
X147800390Y-105583481D01*
X147897444Y-105568687D01*
X148047770Y-105554793D01*
X148089937Y-105551611D01*
X148247133Y-105540658D01*
X148392673Y-105531524D01*
X148507835Y-105525330D01*
X148563473Y-105523280D01*
X148645859Y-105516351D01*
X148697905Y-105502100D01*
X148701834Y-105499181D01*
X148742483Y-105496421D01*
X148784891Y-105515056D01*
X148838462Y-105536256D01*
X148872731Y-105509766D01*
X148874298Y-105507291D01*
X148905753Y-105478267D01*
X148949108Y-105500288D01*
X148952705Y-105503241D01*
X149003631Y-105528749D01*
X149051720Y-105504133D01*
X149102637Y-105480290D01*
X149137445Y-105500245D01*
X149193059Y-105533436D01*
X149255977Y-105518114D01*
X149331772Y-105458877D01*
X149417680Y-105401792D01*
X149523773Y-105383291D01*
X149550721Y-105383271D01*
X149595255Y-105383578D01*
X149700261Y-105383999D01*
X149862711Y-105384525D01*
X150079577Y-105385150D01*
X150347831Y-105385867D01*
X150664445Y-105386669D01*
X151026391Y-105387549D01*
X151430640Y-105388501D01*
X151874166Y-105389516D01*
X152353940Y-105390589D01*
X152866934Y-105391713D01*
X153410119Y-105392879D01*
X153980469Y-105394082D01*
X154574955Y-105395315D01*
X155190549Y-105396569D01*
X155824223Y-105397840D01*
X156289375Y-105398759D01*
X157126936Y-105400247D01*
X157914578Y-105401325D01*
X158651312Y-105401996D01*
X159336149Y-105402262D01*
X159968100Y-105402127D01*
X160546176Y-105401593D01*
X161069388Y-105400662D01*
X161536747Y-105399337D01*
X161947265Y-105397621D01*
X162299951Y-105395517D01*
X162593817Y-105393026D01*
X162827875Y-105390153D01*
X163001134Y-105386898D01*
X163112607Y-105383266D01*
X163154440Y-105380373D01*
X163411526Y-105332203D01*
X163621727Y-105256064D01*
X163779875Y-105154049D01*
X163825471Y-105108681D01*
X163882258Y-105028036D01*
X163947531Y-104911627D01*
X164008009Y-104783341D01*
X164013033Y-104771378D01*
X164060857Y-104653159D01*
X164125122Y-104489795D01*
X164203586Y-104287288D01*
X164294008Y-104051639D01*
X164394145Y-103788851D01*
X164501757Y-103504925D01*
X164614601Y-103205861D01*
X164730436Y-102897663D01*
X164847020Y-102586331D01*
X164962112Y-102277866D01*
X165073469Y-101978271D01*
X165178851Y-101693547D01*
X165276015Y-101429695D01*
X165362720Y-101192717D01*
X165436725Y-100988615D01*
X165495787Y-100823390D01*
X165537664Y-100703043D01*
X165560117Y-100633576D01*
X165563189Y-100621182D01*
X165568584Y-100505487D01*
X165539588Y-100415048D01*
X165470549Y-100346313D01*
X165355820Y-100295728D01*
X165189750Y-100259739D01*
X164966691Y-100234795D01*
X164946263Y-100233174D01*
X164767689Y-100221914D01*
X164563275Y-100213289D01*
X164342212Y-100207254D01*
X164113689Y-100203762D01*
X163886896Y-100202765D01*
X163671022Y-100204218D01*
X163475258Y-100208073D01*
X163308793Y-100214283D01*
X163180817Y-100222802D01*
X163100520Y-100233583D01*
X163077413Y-100242687D01*
X163050548Y-100292648D01*
X163012132Y-100380940D01*
X162980516Y-100461907D01*
X162913731Y-100641439D01*
X163617928Y-100653742D01*
X163863403Y-100658928D01*
X164053829Y-100665287D01*
X164197656Y-100673476D01*
X164303334Y-100684153D01*
X164379311Y-100697975D01*
X164434037Y-100715601D01*
X164438717Y-100717621D01*
X164565112Y-100798664D01*
X164634351Y-100906283D01*
X164648332Y-101043705D01*
X164645467Y-101069417D01*
X164630470Y-101126168D01*
X164594948Y-101235273D01*
X164541466Y-101389930D01*
X164472588Y-101583341D01*
X164390877Y-101808704D01*
X164298898Y-102059220D01*
X164199215Y-102328089D01*
X164094392Y-102608509D01*
X163986993Y-102893682D01*
X163879582Y-103176806D01*
X163774723Y-103451081D01*
X163674980Y-103709708D01*
X163582918Y-103945885D01*
X163501100Y-104152814D01*
X163432090Y-104323693D01*
X163378453Y-104451722D01*
X163342753Y-104530101D01*
X163335448Y-104543736D01*
X163235895Y-104680926D01*
X163111813Y-104786981D01*
X162954368Y-104866044D01*
X162754729Y-104922256D01*
X162504060Y-104959758D01*
X162433488Y-104966598D01*
X162366201Y-104969746D01*
X162238254Y-104972796D01*
X162052487Y-104975737D01*
X161811740Y-104978554D01*
X161518852Y-104981234D01*
X161176664Y-104983765D01*
X160788016Y-104986132D01*
X160355747Y-104988323D01*
X159882697Y-104990324D01*
X159371707Y-104992121D01*
X158825615Y-104993703D01*
X158247263Y-104995054D01*
X157639490Y-104996162D01*
X157005135Y-104997014D01*
X156347039Y-104997597D01*
X155758010Y-104997873D01*
X149415420Y-104999649D01*
X149344022Y-104932455D01*
X149260353Y-104882352D01*
X149173183Y-104881026D01*
X149093190Y-104882166D01*
X149039802Y-104862849D01*
X149039591Y-104862641D01*
X148993750Y-104847317D01*
X148956470Y-104869133D01*
X148905236Y-104893661D01*
X148859875Y-104870250D01*
X148799038Y-104848847D01*
X148772562Y-104859661D01*
X148720304Y-104875029D01*
X148635276Y-104882696D01*
X148547889Y-104881303D01*
X148494750Y-104872080D01*
X148458562Y-104868434D01*
X148372189Y-104862783D01*
X148248882Y-104855922D01*
X148113750Y-104849203D01*
X147939268Y-104837858D01*
X147815335Y-104822991D01*
X147747109Y-104805333D01*
X147735447Y-104795553D01*
X147705044Y-104751428D01*
X147646697Y-104688755D01*
X147632260Y-104674949D01*
X147573702Y-104607897D01*
X147543405Y-104549199D01*
X147542250Y-104540011D01*
X147526576Y-104507239D01*
X147470769Y-104491991D01*
X147398581Y-104489250D01*
X147309233Y-104492769D01*
X147263686Y-104510984D01*
X147242323Y-104555377D01*
X147235862Y-104584500D01*
X147211215Y-104653337D01*
X147161625Y-104677966D01*
X147127405Y-104679750D01*
X147055573Y-104669545D01*
X147018375Y-104648000D01*
X146977517Y-104630994D01*
X146893288Y-104620620D01*
X146785459Y-104616772D01*
X146673800Y-104619341D01*
X146578080Y-104628221D01*
X146518071Y-104643304D01*
X146508665Y-104650766D01*
X146476965Y-104668112D01*
X146452816Y-104650766D01*
X146390537Y-104617546D01*
X146339713Y-104644218D01*
X146317037Y-104695625D01*
X146284044Y-104756658D01*
X146244995Y-104778449D01*
X146193991Y-104780515D01*
X146094107Y-104783565D01*
X145959949Y-104787181D01*
X145811875Y-104790812D01*
X145618665Y-104796214D01*
X145479936Y-104804317D01*
X145386674Y-104818654D01*
X145329865Y-104842757D01*
X145300495Y-104880158D01*
X145289549Y-104934390D01*
X145288000Y-104996101D01*
X145282476Y-105093713D01*
X145260630Y-105148885D01*
X145216562Y-105181145D01*
X145145125Y-105215995D01*
X145216562Y-105237325D01*
X145268820Y-105269569D01*
X145287287Y-105336374D01*
X145288000Y-105362681D01*
X145271053Y-105449605D01*
X145226987Y-105487637D01*
X145165958Y-105470570D01*
X145143191Y-105451155D01*
X145105379Y-105371808D01*
X145105229Y-105308232D01*
X145106235Y-105237095D01*
X145090444Y-105199264D01*
X145076551Y-105217656D01*
X145070435Y-105283507D01*
X144941909Y-105283507D01*
X144959658Y-105197186D01*
X145012914Y-105112835D01*
X145084308Y-105065196D01*
X145113375Y-105060750D01*
X145155660Y-105045986D01*
X145161000Y-105033476D01*
X145131217Y-105021859D01*
X145049645Y-105009192D01*
X144927949Y-104996845D01*
X144777794Y-104986186D01*
X144740312Y-104984109D01*
X144514628Y-104969856D01*
X144342026Y-104952305D01*
X144212094Y-104928977D01*
X144114419Y-104897394D01*
X144038590Y-104855081D01*
X143977143Y-104802527D01*
X143916757Y-104732612D01*
X143895103Y-104667650D01*
X143901142Y-104574527D01*
X143901143Y-104574522D01*
X143915357Y-104522458D01*
X143949854Y-104417888D01*
X144002108Y-104267569D01*
X144069592Y-104078259D01*
X144149780Y-103856713D01*
X144154002Y-103845171D01*
X144472923Y-103845171D01*
X144475156Y-103874608D01*
X144506139Y-103903878D01*
X144510125Y-103906990D01*
X144684631Y-104005583D01*
X144893851Y-104063599D01*
X145122382Y-104079451D01*
X145354816Y-104051552D01*
X145468546Y-104018513D01*
X146378585Y-104018513D01*
X146402293Y-104035296D01*
X146464727Y-104042916D01*
X146578083Y-104044749D01*
X146582058Y-104044750D01*
X146800896Y-104044750D01*
X146817644Y-104005895D01*
X148420981Y-104005895D01*
X148427293Y-104020296D01*
X148454762Y-104030622D01*
X148510908Y-104037547D01*
X148603247Y-104041746D01*
X148739301Y-104043894D01*
X148926586Y-104044666D01*
X149074681Y-104044750D01*
X149752096Y-104044750D01*
X150241800Y-104044750D01*
X151599355Y-104044750D01*
X151608882Y-104020937D01*
X152091233Y-104020937D01*
X152113730Y-104032749D01*
X152188082Y-104040620D01*
X152302783Y-104044786D01*
X152446323Y-104045487D01*
X152607196Y-104042959D01*
X152773896Y-104037442D01*
X152934913Y-104029173D01*
X153078742Y-104018390D01*
X153193875Y-104005332D01*
X153241375Y-103997145D01*
X153486929Y-103924225D01*
X153741101Y-103811306D01*
X153979777Y-103670768D01*
X154089247Y-103585271D01*
X154899263Y-103585271D01*
X154921542Y-103757262D01*
X154995447Y-103894700D01*
X155118326Y-103995987D01*
X155287527Y-104059526D01*
X155500399Y-104083720D01*
X155708599Y-104072747D01*
X155832691Y-104047679D01*
X158245877Y-104047679D01*
X158441835Y-104038277D01*
X158637792Y-104028875D01*
X159008674Y-103155750D01*
X159103297Y-102933723D01*
X159190981Y-102729372D01*
X159268383Y-102550382D01*
X159332155Y-102404441D01*
X159378952Y-102299238D01*
X159405429Y-102242458D01*
X159408991Y-102235887D01*
X159428756Y-102229586D01*
X159451543Y-102274334D01*
X159479532Y-102375180D01*
X159491347Y-102426387D01*
X159515974Y-102528425D01*
X159554666Y-102678494D01*
X159603946Y-102863599D01*
X159660342Y-103070739D01*
X159720380Y-103286918D01*
X159739316Y-103354187D01*
X159934363Y-104044750D01*
X160267086Y-104044750D01*
X160395229Y-103751062D01*
X160471359Y-103576109D01*
X160558508Y-103375031D01*
X160605012Y-103267427D01*
X161171666Y-103267427D01*
X161188518Y-103498547D01*
X161256733Y-103707393D01*
X161325461Y-103822584D01*
X161419723Y-103931100D01*
X161526656Y-104005260D01*
X161658962Y-104049656D01*
X161829341Y-104068879D01*
X162007266Y-104069052D01*
X162160764Y-104062627D01*
X162272817Y-104050954D01*
X162365481Y-104029011D01*
X162460810Y-103991778D01*
X162564969Y-103942108D01*
X162841605Y-103771923D01*
X163096010Y-103549411D01*
X163319515Y-103284280D01*
X163503450Y-102986239D01*
X163593239Y-102790625D01*
X163647372Y-102633319D01*
X163679338Y-102476072D01*
X163695394Y-102287837D01*
X163695639Y-102282625D01*
X163700476Y-102141303D01*
X163696983Y-102042335D01*
X163681630Y-101964755D01*
X163650886Y-101887596D01*
X163618132Y-101822250D01*
X163502465Y-101661120D01*
X163348331Y-101549873D01*
X163154844Y-101488027D01*
X162974994Y-101473776D01*
X162702613Y-101494595D01*
X162455139Y-101558163D01*
X162221882Y-101669363D01*
X161992149Y-101833078D01*
X161796869Y-102011966D01*
X161583042Y-102254063D01*
X161411866Y-102507351D01*
X161285083Y-102765136D01*
X161204435Y-103020725D01*
X161171666Y-103267427D01*
X160605012Y-103267427D01*
X160653556Y-103155107D01*
X160753378Y-102923618D01*
X160854852Y-102687842D01*
X160954857Y-102455059D01*
X161050268Y-102232549D01*
X161137963Y-102027592D01*
X161214820Y-101847466D01*
X161277716Y-101699452D01*
X161323528Y-101590829D01*
X161349134Y-101528877D01*
X161353500Y-101517146D01*
X161324681Y-101510535D01*
X161249938Y-101506038D01*
X161167697Y-101504750D01*
X160981895Y-101504750D01*
X160590409Y-102425500D01*
X160493828Y-102650988D01*
X160404454Y-102856475D01*
X160325434Y-103034971D01*
X160259916Y-103179486D01*
X160211047Y-103283032D01*
X160181976Y-103338618D01*
X160175752Y-103346250D01*
X160156922Y-103318157D01*
X160136834Y-103247456D01*
X160129913Y-103211312D01*
X160115766Y-103146937D01*
X160087032Y-103031395D01*
X160046391Y-102874628D01*
X159996523Y-102686577D01*
X159940108Y-102477183D01*
X159879827Y-102256387D01*
X159818359Y-102034130D01*
X159758385Y-101820353D01*
X159702583Y-101624997D01*
X159697649Y-101607937D01*
X159675341Y-101546210D01*
X159642109Y-101515803D01*
X159578057Y-101505680D01*
X159511624Y-101504750D01*
X159406136Y-101511556D01*
X159346561Y-101535356D01*
X159324663Y-101562338D01*
X159305756Y-101603169D01*
X159264547Y-101695885D01*
X159203847Y-101834043D01*
X159126465Y-102011206D01*
X159035211Y-102220932D01*
X158932897Y-102456781D01*
X158822332Y-102712314D01*
X158769860Y-102833803D01*
X158245877Y-104047679D01*
X155832691Y-104047679D01*
X155835157Y-104047181D01*
X155842992Y-104044750D01*
X157107302Y-104044750D01*
X157333338Y-104044243D01*
X157559375Y-104043736D01*
X158025858Y-102956805D01*
X158135314Y-102701923D01*
X158240111Y-102458181D01*
X158336830Y-102233509D01*
X158422055Y-102035833D01*
X158492367Y-101873083D01*
X158544348Y-101753186D01*
X158573763Y-101685917D01*
X158655183Y-101501959D01*
X158426544Y-101511292D01*
X158197906Y-101520625D01*
X157652604Y-102782687D01*
X157107302Y-104044750D01*
X155842992Y-104044750D01*
X155982257Y-104001541D01*
X156098293Y-103954432D01*
X156336123Y-103808377D01*
X156545553Y-103607210D01*
X156723545Y-103354038D01*
X156771148Y-103266875D01*
X156810303Y-103186732D01*
X156867018Y-103065301D01*
X156937397Y-102911406D01*
X157017543Y-102733870D01*
X157103560Y-102541519D01*
X157191552Y-102343175D01*
X157277623Y-102147662D01*
X157357876Y-101963805D01*
X157428416Y-101800428D01*
X157485346Y-101666355D01*
X157524770Y-101570409D01*
X157542791Y-101521414D01*
X157543500Y-101517678D01*
X157514656Y-101510770D01*
X157439474Y-101508613D01*
X157346835Y-101511172D01*
X157150170Y-101520625D01*
X156813393Y-102298500D01*
X156695602Y-102569894D01*
X156599170Y-102789782D01*
X156520574Y-102965079D01*
X156456289Y-103102699D01*
X156402790Y-103209559D01*
X156356554Y-103292572D01*
X156314055Y-103358654D01*
X156271770Y-103414719D01*
X156226173Y-103467684D01*
X156206484Y-103489261D01*
X156056487Y-103623739D01*
X155900660Y-103702206D01*
X155724569Y-103731565D01*
X155698671Y-103732141D01*
X155549580Y-103713102D01*
X155448424Y-103653080D01*
X155395046Y-103551739D01*
X155389290Y-103408744D01*
X155431000Y-103223759D01*
X155444037Y-103184532D01*
X155473562Y-103106648D01*
X155524131Y-102981168D01*
X155591341Y-102818676D01*
X155670791Y-102629756D01*
X155758078Y-102424991D01*
X155812567Y-102298500D01*
X155898989Y-102098570D01*
X155977436Y-101916852D01*
X156044251Y-101761839D01*
X156095773Y-101642025D01*
X156128344Y-101565905D01*
X156137990Y-101542966D01*
X156132573Y-101521438D01*
X156088070Y-101510601D01*
X155994869Y-101509007D01*
X155927186Y-101511216D01*
X155699950Y-101520625D01*
X155445611Y-102108000D01*
X155309134Y-102424676D01*
X155196691Y-102689414D01*
X155106101Y-102908112D01*
X155035181Y-103086668D01*
X154981751Y-103230980D01*
X154943629Y-103346947D01*
X154918635Y-103440465D01*
X154904586Y-103517434D01*
X154899301Y-103583752D01*
X154899263Y-103585271D01*
X154089247Y-103585271D01*
X154176780Y-103516908D01*
X154370172Y-103311468D01*
X154530620Y-103087793D01*
X154656122Y-102853811D01*
X154744679Y-102617448D01*
X154794291Y-102386633D01*
X154802956Y-102169294D01*
X154768674Y-101973356D01*
X154689445Y-101806750D01*
X154627252Y-101731752D01*
X154553155Y-101665190D01*
X154474618Y-101614431D01*
X154381438Y-101577029D01*
X154263412Y-101550537D01*
X154110337Y-101532510D01*
X153912009Y-101520502D01*
X153717625Y-101513691D01*
X153177875Y-101498240D01*
X152640794Y-102747682D01*
X152526948Y-103012411D01*
X152420756Y-103259114D01*
X152324859Y-103481671D01*
X152241900Y-103673962D01*
X152174520Y-103829865D01*
X152125361Y-103943260D01*
X152097065Y-104008025D01*
X152091233Y-104020937D01*
X151608882Y-104020937D01*
X151650427Y-103917107D01*
X151681694Y-103835753D01*
X151699741Y-103782584D01*
X151701500Y-103774232D01*
X151671679Y-103768664D01*
X151589928Y-103764009D01*
X151467816Y-103760677D01*
X151316912Y-103759080D01*
X151272875Y-103759000D01*
X151076687Y-103756537D01*
X150939031Y-103749240D01*
X150861661Y-103737247D01*
X150844250Y-103725359D01*
X150856359Y-103685440D01*
X150889606Y-103598964D01*
X150939363Y-103477415D01*
X151001005Y-103332275D01*
X151023297Y-103280859D01*
X151202345Y-102870000D01*
X151942846Y-102870000D01*
X152012673Y-102726275D01*
X152052733Y-102641083D01*
X152077990Y-102582107D01*
X152082500Y-102567525D01*
X152052840Y-102561609D01*
X151972217Y-102556790D01*
X151853164Y-102553583D01*
X151717375Y-102552500D01*
X151573623Y-102551010D01*
X151456514Y-102546963D01*
X151378583Y-102540985D01*
X151352250Y-102534168D01*
X151364127Y-102499500D01*
X151396454Y-102418729D01*
X151444276Y-102303949D01*
X151501865Y-102169043D01*
X151651481Y-101822250D01*
X152037382Y-101822250D01*
X152423283Y-101822249D01*
X152489257Y-101663499D01*
X152555230Y-101504749D01*
X151945802Y-101505114D01*
X151336375Y-101505479D01*
X150869885Y-102592552D01*
X150760467Y-102847377D01*
X150655736Y-103090996D01*
X150559105Y-103315494D01*
X150473985Y-103512954D01*
X150403788Y-103675462D01*
X150351927Y-103795102D01*
X150322597Y-103862187D01*
X150241800Y-104044750D01*
X149752096Y-104044750D01*
X149890924Y-103759000D01*
X149446837Y-103759000D01*
X149287163Y-103757399D01*
X149152960Y-103753002D01*
X149055593Y-103746420D01*
X149006429Y-103738262D01*
X149002713Y-103735187D01*
X149014571Y-103698938D01*
X149047190Y-103615473D01*
X149096099Y-103495845D01*
X149156825Y-103351110D01*
X149182556Y-103290687D01*
X149362436Y-102870000D01*
X150111028Y-102870000D01*
X150176014Y-102723088D01*
X150213151Y-102636996D01*
X150236673Y-102578355D01*
X150241000Y-102564338D01*
X150211332Y-102559693D01*
X150130655Y-102555903D01*
X150011457Y-102553372D01*
X149873229Y-102552500D01*
X149730192Y-102550410D01*
X149615004Y-102544725D01*
X149539675Y-102536322D01*
X149516041Y-102526432D01*
X149531772Y-102488245D01*
X149566528Y-102404157D01*
X149615031Y-102286933D01*
X149667044Y-102161307D01*
X149807463Y-101822250D01*
X150582154Y-101822250D01*
X150647465Y-101671437D01*
X150712776Y-101520625D01*
X150122009Y-101511966D01*
X149934190Y-101510492D01*
X149768374Y-101511620D01*
X149634956Y-101515080D01*
X149544335Y-101520604D01*
X149506984Y-101527841D01*
X149489541Y-101561453D01*
X149449891Y-101647147D01*
X149390815Y-101778628D01*
X149315095Y-101949602D01*
X149225512Y-102153775D01*
X149124849Y-102384851D01*
X149015887Y-102636537D01*
X148971039Y-102740557D01*
X148859082Y-103000194D01*
X148754070Y-103243078D01*
X148658846Y-103462684D01*
X148576249Y-103652488D01*
X148509123Y-103805965D01*
X148460308Y-103916591D01*
X148432647Y-103977840D01*
X148428309Y-103986744D01*
X148420981Y-104005895D01*
X146817644Y-104005895D01*
X147276489Y-102941437D01*
X147752081Y-101838125D01*
X147890681Y-101828098D01*
X148034542Y-101826928D01*
X148132483Y-101851940D01*
X148198641Y-101908691D01*
X148229413Y-101961232D01*
X148256303Y-102026838D01*
X148263447Y-102085814D01*
X148250634Y-102162242D01*
X148226908Y-102248577D01*
X148147071Y-102426478D01*
X148024964Y-102577699D01*
X147872805Y-102692273D01*
X147702814Y-102760238D01*
X147581701Y-102774750D01*
X147526399Y-102798638D01*
X147477590Y-102875800D01*
X147466322Y-102902392D01*
X147434967Y-102984921D01*
X147416949Y-103040413D01*
X147415250Y-103049677D01*
X147443386Y-103061921D01*
X147517410Y-103060589D01*
X147621744Y-103048052D01*
X147740811Y-103026682D01*
X147859033Y-102998848D01*
X147960835Y-102966922D01*
X147962136Y-102966432D01*
X148085841Y-102909592D01*
X148225108Y-102830667D01*
X148332027Y-102759293D01*
X148504896Y-102597112D01*
X148633498Y-102402836D01*
X148711058Y-102189194D01*
X148731816Y-102008174D01*
X148713505Y-101843365D01*
X148653285Y-101719020D01*
X148543223Y-101621958D01*
X148476826Y-101584427D01*
X148417719Y-101558705D01*
X148351143Y-101540910D01*
X148264372Y-101529648D01*
X148144678Y-101523524D01*
X147979335Y-101521144D01*
X147897422Y-101520927D01*
X147442970Y-101520625D01*
X146921281Y-102727125D01*
X146808414Y-102988469D01*
X146703069Y-103233006D01*
X146608001Y-103454297D01*
X146525963Y-103645905D01*
X146459710Y-103801392D01*
X146411996Y-103914319D01*
X146385574Y-103978250D01*
X146381406Y-103989187D01*
X146378585Y-104018513D01*
X145468546Y-104018513D01*
X145501121Y-104009050D01*
X145651181Y-103932911D01*
X145799780Y-103821419D01*
X145931398Y-103689601D01*
X146030512Y-103552489D01*
X146074640Y-103453691D01*
X146107788Y-103309842D01*
X146113327Y-103177304D01*
X146088646Y-103039693D01*
X146031129Y-102880625D01*
X145958193Y-102723827D01*
X145862175Y-102522750D01*
X145797045Y-102365907D01*
X145761138Y-102243008D01*
X145752789Y-102143768D01*
X145770335Y-102057896D01*
X145812111Y-101975106D01*
X145832169Y-101944923D01*
X145907471Y-101874555D01*
X146018326Y-101811341D01*
X146137113Y-101768866D01*
X146210657Y-101758749D01*
X146278949Y-101772844D01*
X146369836Y-101807929D01*
X146395793Y-101820486D01*
X146516806Y-101882223D01*
X146634115Y-101762087D01*
X146700960Y-101688248D01*
X146725552Y-101642398D01*
X146714065Y-101611451D01*
X146707839Y-101605780D01*
X146583884Y-101535757D01*
X146418083Y-101489768D01*
X146229233Y-101473002D01*
X146226835Y-101473000D01*
X145990445Y-101497996D01*
X145775377Y-101568781D01*
X145589293Y-101679046D01*
X145439853Y-101822484D01*
X145334721Y-101992787D01*
X145281558Y-102183649D01*
X145276630Y-102255251D01*
X145280330Y-102339071D01*
X145297316Y-102423272D01*
X145332564Y-102523042D01*
X145391053Y-102653564D01*
X145440637Y-102755512D01*
X145508601Y-102897610D01*
X145566679Y-103027767D01*
X145608230Y-103130538D01*
X145625876Y-103186194D01*
X145629278Y-103356206D01*
X145572583Y-103513171D01*
X145494944Y-103613439D01*
X145344408Y-103727003D01*
X145184396Y-103778047D01*
X145018123Y-103766269D01*
X144848808Y-103691364D01*
X144825797Y-103676335D01*
X144706459Y-103595349D01*
X144576542Y-103726450D01*
X144504899Y-103800731D01*
X144472923Y-103845171D01*
X144154002Y-103845171D01*
X144240144Y-103609687D01*
X144338158Y-103343939D01*
X144441294Y-103066224D01*
X144547026Y-102783299D01*
X144652828Y-102501921D01*
X144756171Y-102228845D01*
X144854531Y-101970829D01*
X144945378Y-101734628D01*
X145026188Y-101527000D01*
X145094432Y-101354701D01*
X145147584Y-101224486D01*
X145183118Y-101143113D01*
X145188806Y-101131480D01*
X145297752Y-100978188D01*
X145452073Y-100842934D01*
X145633711Y-100740799D01*
X145677066Y-100723718D01*
X145698737Y-100716427D01*
X145723599Y-100709740D01*
X145754390Y-100703627D01*
X145793847Y-100698058D01*
X145844707Y-100693001D01*
X145909707Y-100688427D01*
X145991586Y-100684306D01*
X146093079Y-100680606D01*
X146216924Y-100677297D01*
X146365859Y-100674349D01*
X146542621Y-100671731D01*
X146749947Y-100669413D01*
X146990574Y-100667365D01*
X147267240Y-100665555D01*
X147582682Y-100663953D01*
X147939637Y-100662530D01*
X148340843Y-100661254D01*
X148789036Y-100660095D01*
X149286955Y-100659022D01*
X149837336Y-100658006D01*
X150442916Y-100657015D01*
X151106433Y-100656019D01*
X151830625Y-100654988D01*
X151855092Y-100654954D01*
X157866559Y-100646533D01*
X157959582Y-100724807D01*
X158010306Y-100763326D01*
X158060487Y-100785119D01*
X158127901Y-100793231D01*
X158230327Y-100790704D01*
X158313990Y-100785482D01*
X158447998Y-100778343D01*
X158540149Y-100781070D01*
X158611763Y-100797149D01*
X158684160Y-100830066D01*
X158725171Y-100852713D01*
X158829181Y-100921302D01*
X158922460Y-100998697D01*
X158955159Y-101032845D01*
X159035351Y-101128148D01*
X159297488Y-101106183D01*
X159436738Y-101089459D01*
X159545941Y-101066540D01*
X159609028Y-101040875D01*
X159611645Y-101038768D01*
X159646823Y-101020075D01*
X159708023Y-101007917D01*
X159804942Y-101001599D01*
X159947279Y-101000428D01*
X160111759Y-101002971D01*
X160290637Y-101006012D01*
X160415368Y-101005581D01*
X160495252Y-101000856D01*
X160539588Y-100991016D01*
X160557673Y-100975241D01*
X160559801Y-100963412D01*
X160571618Y-100907986D01*
X160613360Y-100870936D01*
X160694255Y-100849110D01*
X160823532Y-100839362D01*
X160927337Y-100837999D01*
X161079229Y-100835099D01*
X161178894Y-100825336D01*
X161237387Y-100807119D01*
X161258250Y-100790374D01*
X161330700Y-100749437D01*
X161434598Y-100749907D01*
X161526502Y-100779537D01*
X161597421Y-100799797D01*
X161652659Y-100776908D01*
X161662933Y-100768488D01*
X161732918Y-100720542D01*
X161774187Y-100700947D01*
X161821061Y-100669105D01*
X161829750Y-100648496D01*
X161857335Y-100625505D01*
X161923801Y-100615752D01*
X161925000Y-100615750D01*
X161995860Y-100604899D01*
X162019844Y-100566747D01*
X162020250Y-100557541D01*
X162030421Y-100496127D01*
X162068626Y-100478244D01*
X162146405Y-100499881D01*
X162164694Y-100507327D01*
X162270465Y-100545913D01*
X162332162Y-100547371D01*
X162361298Y-100505269D01*
X162369389Y-100413172D01*
X162369500Y-100392895D01*
X162367828Y-100299156D01*
X162356850Y-100254727D01*
X162327618Y-100245418D01*
X162282187Y-100254412D01*
X162195427Y-100280639D01*
X162138656Y-100304110D01*
X162067633Y-100317993D01*
X162026810Y-100277522D01*
X162020250Y-100232876D01*
X161996944Y-100181203D01*
X161956319Y-100171250D01*
X161850351Y-100144468D01*
X161724892Y-100067959D01*
X161680180Y-100031945D01*
X161621874Y-99993143D01*
X161564313Y-99993585D01*
X161513935Y-100011801D01*
X161387450Y-100035856D01*
X161314255Y-100028549D01*
X161235326Y-100016487D01*
X161114580Y-100004264D01*
X160973656Y-99993946D01*
X160921354Y-99991056D01*
X160784082Y-99983287D01*
X160692936Y-99972672D01*
X160630615Y-99953348D01*
X160579819Y-99919451D01*
X160523246Y-99865117D01*
X160510098Y-99851675D01*
X160432579Y-99778298D01*
X160367431Y-99741149D01*
X160285887Y-99728083D01*
X160214248Y-99726750D01*
X160095045Y-99733328D01*
X159985861Y-99750079D01*
X159942879Y-99761906D01*
X159844004Y-99779815D01*
X159693020Y-99779831D01*
X159559625Y-99769843D01*
X159273875Y-99742625D01*
X159263891Y-99638978D01*
X159240138Y-99566976D01*
X159189625Y-99484927D01*
X159125577Y-99408007D01*
X159061218Y-99351391D01*
X159009773Y-99330256D01*
X158997843Y-99333679D01*
X158954931Y-99328695D01*
X158907670Y-99297148D01*
X158876900Y-99273810D01*
X158845634Y-99269729D01*
X158802485Y-99290641D01*
X158736068Y-99342276D01*
X158634996Y-99430368D01*
X158624350Y-99439802D01*
X158514542Y-99539496D01*
X158450777Y-99611318D01*
X158431309Y-99669216D01*
X158454394Y-99727134D01*
X158518286Y-99799017D01*
X158572769Y-99852040D01*
X158639504Y-99928027D01*
X158680418Y-99997318D01*
X158686500Y-100022973D01*
X158682380Y-100050772D01*
X158662355Y-100067724D01*
X158614928Y-100075507D01*
X158528602Y-100075804D01*
X158391878Y-100070294D01*
X158369952Y-100069246D01*
X158224477Y-100063156D01*
X158128046Y-100063182D01*
X158066321Y-100071521D01*
X158024967Y-100090373D01*
X157989647Y-100121933D01*
X157983418Y-100128502D01*
X157913431Y-100203000D01*
X151926153Y-100203972D01*
X151307986Y-100204224D01*
X150703254Y-100204768D01*
X150115331Y-100205587D01*
X149547592Y-100206667D01*
X149003410Y-100207991D01*
X148486160Y-100209543D01*
X147999216Y-100211309D01*
X147545951Y-100213271D01*
X147129741Y-100215415D01*
X146753959Y-100217725D01*
X146421979Y-100220185D01*
X146137175Y-100222779D01*
X145902922Y-100225492D01*
X145722594Y-100228307D01*
X145599565Y-100231210D01*
X145543058Y-100233698D01*
X145369909Y-100247684D01*
X145243194Y-100262822D01*
X145145900Y-100282909D01*
X145061016Y-100311742D01*
X144971529Y-100353119D01*
X144942957Y-100367663D01*
X144822055Y-100436308D01*
X144740040Y-100503184D01*
X144675831Y-100587405D01*
X144647316Y-100635722D01*
X144618399Y-100696994D01*
X144569951Y-100811230D01*
X144504282Y-100972352D01*
X144423703Y-101174286D01*
X144330524Y-101410954D01*
X144227056Y-101676282D01*
X144115609Y-101964194D01*
X143998494Y-102268614D01*
X143878020Y-102583465D01*
X143756499Y-102902673D01*
X143636241Y-103220161D01*
X143519556Y-103529853D01*
X143408754Y-103825674D01*
X143306147Y-104101547D01*
X143214045Y-104351397D01*
X143134757Y-104569148D01*
X143070595Y-104748725D01*
X143023869Y-104884050D01*
X142996889Y-104969049D01*
X142991793Y-104989326D01*
X142990421Y-105124199D01*
X142303500Y-105124199D01*
X142303500Y-98615500D01*
X166306500Y-98615500D01*
X166306500Y-106362500D01*
G36*
X162928701Y-101840456D02*
G01*
X163008391Y-101851110D01*
X163064175Y-101875578D01*
X163115821Y-101919351D01*
X163122840Y-101926323D01*
X163165406Y-101973107D01*
X163191286Y-102020000D01*
X163204410Y-102083758D01*
X163208707Y-102181138D01*
X163208456Y-102291448D01*
X163202761Y-102451168D01*
X163184849Y-102579159D01*
X163148610Y-102706900D01*
X163105371Y-102822375D01*
X162978715Y-103087015D01*
X162826518Y-103312553D01*
X162654301Y-103494546D01*
X162467583Y-103628553D01*
X162271884Y-103710133D01*
X162072725Y-103734846D01*
X161982226Y-103726024D01*
X161853078Y-103685918D01*
X161763786Y-103609282D01*
X161720774Y-103539062D01*
X161671133Y-103376555D01*
X161664011Y-103182043D01*
X161695891Y-102967259D01*
X161763259Y-102743937D01*
X161862598Y-102523811D01*
X161990392Y-102318613D01*
X162138629Y-102144522D01*
X162288227Y-102007734D01*
X162421594Y-101916854D01*
X162556092Y-101863903D01*
X162709083Y-101840901D01*
X162805340Y-101838125D01*
X162928701Y-101840456D01*
G37*
X162928701Y-101840456D02*
X163008391Y-101851110D01*
X163064175Y-101875578D01*
X163115821Y-101919351D01*
X163122840Y-101926323D01*
X163165406Y-101973107D01*
X163191286Y-102020000D01*
X163204410Y-102083758D01*
X163208707Y-102181138D01*
X163208456Y-102291448D01*
X163202761Y-102451168D01*
X163184849Y-102579159D01*
X163148610Y-102706900D01*
X163105371Y-102822375D01*
X162978715Y-103087015D01*
X162826518Y-103312553D01*
X162654301Y-103494546D01*
X162467583Y-103628553D01*
X162271884Y-103710133D01*
X162072725Y-103734846D01*
X161982226Y-103726024D01*
X161853078Y-103685918D01*
X161763786Y-103609282D01*
X161720774Y-103539062D01*
X161671133Y-103376555D01*
X161664011Y-103182043D01*
X161695891Y-102967259D01*
X161763259Y-102743937D01*
X161862598Y-102523811D01*
X161990392Y-102318613D01*
X162138629Y-102144522D01*
X162288227Y-102007734D01*
X162421594Y-101916854D01*
X162556092Y-101863903D01*
X162709083Y-101840901D01*
X162805340Y-101838125D01*
X162928701Y-101840456D01*
G36*
X153934388Y-101837181D02*
G01*
X154094263Y-101884431D01*
X154206136Y-101967687D01*
X154274347Y-102090634D01*
X154303233Y-102256958D01*
X154304881Y-102317342D01*
X154274314Y-102578080D01*
X154186370Y-102831673D01*
X154047168Y-103070146D01*
X153862825Y-103285527D01*
X153639461Y-103469844D01*
X153383192Y-103615124D01*
X153274675Y-103659842D01*
X153162584Y-103694103D01*
X153036387Y-103721599D01*
X152910866Y-103740640D01*
X152800805Y-103749536D01*
X152720988Y-103746599D01*
X152686197Y-103730138D01*
X152685750Y-103727146D01*
X152697854Y-103689916D01*
X152732172Y-103601663D01*
X152785710Y-103469645D01*
X152855473Y-103301122D01*
X152938469Y-103103353D01*
X153031704Y-102883598D01*
X153086154Y-102756244D01*
X153486558Y-101822250D01*
X153722173Y-101822250D01*
X153934388Y-101837181D01*
G37*
X153934388Y-101837181D02*
X154094263Y-101884431D01*
X154206136Y-101967687D01*
X154274347Y-102090634D01*
X154303233Y-102256958D01*
X154304881Y-102317342D01*
X154274314Y-102578080D01*
X154186370Y-102831673D01*
X154047168Y-103070146D01*
X153862825Y-103285527D01*
X153639461Y-103469844D01*
X153383192Y-103615124D01*
X153274675Y-103659842D01*
X153162584Y-103694103D01*
X153036387Y-103721599D01*
X152910866Y-103740640D01*
X152800805Y-103749536D01*
X152720988Y-103746599D01*
X152686197Y-103730138D01*
X152685750Y-103727146D01*
X152697854Y-103689916D01*
X152732172Y-103601663D01*
X152785710Y-103469645D01*
X152855473Y-103301122D01*
X152938469Y-103103353D01*
X153031704Y-102883598D01*
X153086154Y-102756244D01*
X153486558Y-101822250D01*
X153722173Y-101822250D01*
X153934388Y-101837181D01*
D10*
X111630000Y-69466000D02*
X111630000Y-82296000D01*
X132210000Y-69466000D02*
X111630000Y-69466000D01*
X132210000Y-84966000D02*
X132210000Y-69466000D01*
X114300000Y-84966000D02*
X132210000Y-84966000D01*
X114300000Y-82296000D02*
X114300000Y-84966000D01*
X111630000Y-82296000D02*
X114300000Y-82296000D01*
X111630000Y-84966000D02*
X113030000Y-84966000D01*
X111630000Y-83566000D02*
X111630000Y-84966000D01*
X114300000Y-82296000D02*
X132210000Y-82296000D01*
X111630000Y-72136000D02*
X132210000Y-72136000D01*
X110137000Y-93206000D02*
X112677000Y-93206000D01*
X110137000Y-93206000D02*
X110137000Y-95746000D01*
X110387000Y-93456000D02*
X119737000Y-93456000D01*
X110387000Y-152416000D02*
X110387000Y-93456000D01*
X119737000Y-152416000D02*
X110387000Y-152416000D01*
X119737000Y-93456000D02*
X119737000Y-152416000D01*
X143514578Y-148792000D02*
X142997422Y-148792000D01*
X143514578Y-147372000D02*
X142997422Y-147372000D01*
X148331422Y-138990000D02*
X148848578Y-138990000D01*
X148331422Y-140410000D02*
X148848578Y-140410000D01*
X142997422Y-142696000D02*
X143514578Y-142696000D01*
X142997422Y-141276000D02*
X143514578Y-141276000D01*
X148331422Y-138378000D02*
X148848578Y-138378000D01*
X148331422Y-136958000D02*
X148848578Y-136958000D01*
X148331422Y-134926000D02*
X148848578Y-134926000D01*
X148331422Y-136346000D02*
X148848578Y-136346000D01*
D11*
X152369000Y-147759000D02*
X146985400Y-147759000D01*
X150698300Y-142359000D02*
X146989700Y-142359000D01*
D10*
X162754000Y-148523000D02*
X165414000Y-148523000D01*
X162754000Y-143383000D02*
X162754000Y-148523000D01*
X165414000Y-143383000D02*
X165414000Y-148523000D01*
X162754000Y-143383000D02*
X165414000Y-143383000D01*
X162754000Y-142113000D02*
X162754000Y-140783000D01*
X162754000Y-140783000D02*
X164084000Y-140783000D01*
X159071000Y-130877000D02*
X160401000Y-130877000D01*
X159071000Y-132207000D02*
X159071000Y-130877000D01*
X159071000Y-133477000D02*
X161731000Y-133477000D01*
X161731000Y-133477000D02*
X161731000Y-136077000D01*
X159071000Y-133477000D02*
X159071000Y-136077000D01*
X159071000Y-136077000D02*
X161731000Y-136077000D01*
X159071000Y-145983000D02*
X161731000Y-145983000D01*
X159071000Y-143383000D02*
X159071000Y-145983000D01*
X161731000Y-143383000D02*
X161731000Y-145983000D01*
X159071000Y-143383000D02*
X161731000Y-143383000D01*
X159071000Y-142113000D02*
X159071000Y-140783000D01*
X159071000Y-140783000D02*
X160401000Y-140783000D01*
X156592500Y-143239000D02*
X155192500Y-143239000D01*
X155192500Y-145559000D02*
X157092500Y-145559000D01*
X156151078Y-147966500D02*
X155633922Y-147966500D01*
X156151078Y-146546500D02*
X155633922Y-146546500D01*
X155633922Y-149986501D02*
X156151078Y-149986501D01*
X155633922Y-148566501D02*
X156151078Y-148566501D01*
X142997422Y-150824000D02*
X143514578Y-150824000D01*
X142997422Y-149404000D02*
X143514578Y-149404000D01*
X142997422Y-146760000D02*
X143514578Y-146760000D01*
X142997422Y-145340000D02*
X143514578Y-145340000D01*
X142997422Y-143308000D02*
X143514578Y-143308000D01*
X142997422Y-144728000D02*
X143514578Y-144728000D01*
X142997422Y-139244000D02*
X143514578Y-139244000D01*
X142997422Y-140664000D02*
X143514578Y-140664000D01*
D14*
X129750000Y-144808000D02*
X136950000Y-144808000D01*
X136950000Y-144808000D02*
X136950000Y-148308000D01*
X136950000Y-148308000D02*
X129750000Y-148308000D01*
X129750000Y-148308000D02*
X129750000Y-144808000D01*
D15*
X130750000Y-142758000D02*
X130750000Y-142758000D01*
X130950000Y-142758000D02*
X130950000Y-142758000D01*
X130750000Y-142758000D02*
G75*
G03*
X130950000Y-142758000I100000J0D01*
G01*
X130950000Y-142758000D02*
G75*
G03*
X130750000Y-142758000I-100000J0D01*
G01*
X130950000Y-133106000D02*
X130950000Y-133106000D01*
X130750000Y-133106000D02*
X130750000Y-133106000D01*
D14*
X129750000Y-138656000D02*
X129750000Y-135156000D01*
X136950000Y-138656000D02*
X129750000Y-138656000D01*
X136950000Y-135156000D02*
X136950000Y-138656000D01*
X129750000Y-135156000D02*
X136950000Y-135156000D01*
D15*
X130950000Y-133106000D02*
G75*
G03*
X130750000Y-133106000I-100000J0D01*
G01*
X130750000Y-133106000D02*
G75*
G03*
X130950000Y-133106000I100000J0D01*
G01*
D10*
X174565000Y-136288000D02*
X174565000Y-137938000D01*
X184845000Y-136288000D02*
X174565000Y-136288000D01*
X184845000Y-141588000D02*
X184845000Y-136288000D01*
X174565000Y-141588000D02*
X184845000Y-141588000D01*
X174565000Y-139938000D02*
X174565000Y-141588000D01*
X174565000Y-137938000D02*
G75*
G02*
X174565000Y-139938000I0J-1000000D01*
G01*
X111651001Y-66132999D02*
X111651001Y-78962999D01*
X132231001Y-66132999D02*
X111651001Y-66132999D01*
X132231001Y-81632999D02*
X132231001Y-66132999D01*
X114321001Y-81632999D02*
X132231001Y-81632999D01*
X114321001Y-78962999D02*
X114321001Y-81632999D01*
X111651001Y-78962999D02*
X114321001Y-78962999D01*
X111651001Y-81632999D02*
X113051001Y-81632999D01*
X111651001Y-80232999D02*
X111651001Y-81632999D01*
X114321001Y-78962999D02*
X132231001Y-78962999D01*
X111651001Y-68802999D02*
X132231001Y-68802999D01*
D11*
X98766380Y-150581333D02*
X99480666Y-150581333D01*
X99623523Y-150628952D01*
X99718761Y-150724190D01*
X99766380Y-150867047D01*
X99766380Y-150962285D01*
X99766380Y-149581333D02*
X99766380Y-150152761D01*
X99766380Y-149867047D02*
X98766380Y-149867047D01*
X98909238Y-149962285D01*
X99004476Y-150057523D01*
X99052095Y-150152761D01*
X110783666Y-84280285D02*
X110783666Y-83804095D01*
X111069380Y-84375523D02*
X110069380Y-84042190D01*
X111069380Y-83708857D01*
X111069380Y-82851714D02*
X111069380Y-83423142D01*
X111069380Y-83137428D02*
X110069380Y-83137428D01*
X110212238Y-83232666D01*
X110307476Y-83327904D01*
X110355095Y-83423142D01*
X114728666Y-91654380D02*
X114728666Y-92368666D01*
X114681047Y-92511523D01*
X114585809Y-92606761D01*
X114442952Y-92654380D01*
X114347714Y-92654380D01*
X115157238Y-91749619D02*
X115204857Y-91702000D01*
X115300095Y-91654380D01*
X115538190Y-91654380D01*
X115633428Y-91702000D01*
X115681047Y-91749619D01*
X115728666Y-91844857D01*
X115728666Y-91940095D01*
X115681047Y-92082952D01*
X115109619Y-92654380D01*
X115728666Y-92654380D01*
X140295333Y-148439142D02*
X140247714Y-148486761D01*
X140104857Y-148534380D01*
X140009619Y-148534380D01*
X139866761Y-148486761D01*
X139771523Y-148391523D01*
X139723904Y-148296285D01*
X139676285Y-148105809D01*
X139676285Y-147962952D01*
X139723904Y-147772476D01*
X139771523Y-147677238D01*
X139866761Y-147582000D01*
X140009619Y-147534380D01*
X140104857Y-147534380D01*
X140247714Y-147582000D01*
X140295333Y-147629619D01*
X141152476Y-147867714D02*
X141152476Y-148534380D01*
X140914380Y-147486761D02*
X140676285Y-148201047D01*
X141295333Y-148201047D01*
X151217333Y-140057142D02*
X151169714Y-140104761D01*
X151026857Y-140152380D01*
X150931619Y-140152380D01*
X150788761Y-140104761D01*
X150693523Y-140009523D01*
X150645904Y-139914285D01*
X150598285Y-139723809D01*
X150598285Y-139580952D01*
X150645904Y-139390476D01*
X150693523Y-139295238D01*
X150788761Y-139200000D01*
X150931619Y-139152380D01*
X151026857Y-139152380D01*
X151169714Y-139200000D01*
X151217333Y-139247619D01*
X152122095Y-139152380D02*
X151645904Y-139152380D01*
X151598285Y-139628571D01*
X151645904Y-139580952D01*
X151741142Y-139533333D01*
X151979238Y-139533333D01*
X152074476Y-139580952D01*
X152122095Y-139628571D01*
X152169714Y-139723809D01*
X152169714Y-139961904D01*
X152122095Y-140057142D01*
X152074476Y-140104761D01*
X151979238Y-140152380D01*
X151741142Y-140152380D01*
X151645904Y-140104761D01*
X151598285Y-140057142D01*
X140295333Y-142343142D02*
X140247714Y-142390761D01*
X140104857Y-142438380D01*
X140009619Y-142438380D01*
X139866761Y-142390761D01*
X139771523Y-142295523D01*
X139723904Y-142200285D01*
X139676285Y-142009809D01*
X139676285Y-141866952D01*
X139723904Y-141676476D01*
X139771523Y-141581238D01*
X139866761Y-141486000D01*
X140009619Y-141438380D01*
X140104857Y-141438380D01*
X140247714Y-141486000D01*
X140295333Y-141533619D01*
X141152476Y-141438380D02*
X140962000Y-141438380D01*
X140866761Y-141486000D01*
X140819142Y-141533619D01*
X140723904Y-141676476D01*
X140676285Y-141866952D01*
X140676285Y-142247904D01*
X140723904Y-142343142D01*
X140771523Y-142390761D01*
X140866761Y-142438380D01*
X141057238Y-142438380D01*
X141152476Y-142390761D01*
X141200095Y-142343142D01*
X141247714Y-142247904D01*
X141247714Y-142009809D01*
X141200095Y-141914571D01*
X141152476Y-141866952D01*
X141057238Y-141819333D01*
X140866761Y-141819333D01*
X140771523Y-141866952D01*
X140723904Y-141914571D01*
X140676285Y-142009809D01*
X151217333Y-138025142D02*
X151169714Y-138072761D01*
X151026857Y-138120380D01*
X150931619Y-138120380D01*
X150788761Y-138072761D01*
X150693523Y-137977523D01*
X150645904Y-137882285D01*
X150598285Y-137691809D01*
X150598285Y-137548952D01*
X150645904Y-137358476D01*
X150693523Y-137263238D01*
X150788761Y-137168000D01*
X150931619Y-137120380D01*
X151026857Y-137120380D01*
X151169714Y-137168000D01*
X151217333Y-137215619D01*
X151550666Y-137120380D02*
X152217333Y-137120380D01*
X151788761Y-138120380D01*
X151217333Y-135993142D02*
X151169714Y-136040761D01*
X151026857Y-136088380D01*
X150931619Y-136088380D01*
X150788761Y-136040761D01*
X150693523Y-135945523D01*
X150645904Y-135850285D01*
X150598285Y-135659809D01*
X150598285Y-135516952D01*
X150645904Y-135326476D01*
X150693523Y-135231238D01*
X150788761Y-135136000D01*
X150931619Y-135088380D01*
X151026857Y-135088380D01*
X151169714Y-135136000D01*
X151217333Y-135183619D01*
X151788761Y-135516952D02*
X151693523Y-135469333D01*
X151645904Y-135421714D01*
X151598285Y-135326476D01*
X151598285Y-135278857D01*
X151645904Y-135183619D01*
X151693523Y-135136000D01*
X151788761Y-135088380D01*
X151979238Y-135088380D01*
X152074476Y-135136000D01*
X152122095Y-135183619D01*
X152169714Y-135278857D01*
X152169714Y-135326476D01*
X152122095Y-135421714D01*
X152074476Y-135469333D01*
X151979238Y-135516952D01*
X151788761Y-135516952D01*
X151693523Y-135564571D01*
X151645904Y-135612190D01*
X151598285Y-135707428D01*
X151598285Y-135897904D01*
X151645904Y-135993142D01*
X151693523Y-136040761D01*
X151788761Y-136088380D01*
X151979238Y-136088380D01*
X152074476Y-136040761D01*
X152122095Y-135993142D01*
X152169714Y-135897904D01*
X152169714Y-135707428D01*
X152122095Y-135612190D01*
X152074476Y-135564571D01*
X151979238Y-135516952D01*
X147867809Y-148986380D02*
X147867809Y-147986380D01*
X148915428Y-148891142D02*
X148867809Y-148938761D01*
X148724952Y-148986380D01*
X148629714Y-148986380D01*
X148486857Y-148938761D01*
X148391619Y-148843523D01*
X148344000Y-148748285D01*
X148296380Y-148557809D01*
X148296380Y-148414952D01*
X148344000Y-148224476D01*
X148391619Y-148129238D01*
X148486857Y-148034000D01*
X148629714Y-147986380D01*
X148724952Y-147986380D01*
X148867809Y-148034000D01*
X148915428Y-148081619D01*
X149867809Y-148986380D02*
X149296380Y-148986380D01*
X149582095Y-148986380D02*
X149582095Y-147986380D01*
X149486857Y-148129238D01*
X149391619Y-148224476D01*
X149296380Y-148272095D01*
X163250666Y-139235380D02*
X163250666Y-139949666D01*
X163203047Y-140092523D01*
X163107809Y-140187761D01*
X162964952Y-140235380D01*
X162869714Y-140235380D01*
X163726857Y-140235380D02*
X163726857Y-139235380D01*
X164107809Y-139235380D01*
X164203047Y-139283000D01*
X164250666Y-139330619D01*
X164298285Y-139425857D01*
X164298285Y-139568714D01*
X164250666Y-139663952D01*
X164203047Y-139711571D01*
X164107809Y-139759190D01*
X163726857Y-139759190D01*
X164631619Y-139235380D02*
X165250666Y-139235380D01*
X164917333Y-139616333D01*
X165060190Y-139616333D01*
X165155428Y-139663952D01*
X165203047Y-139711571D01*
X165250666Y-139806809D01*
X165250666Y-140044904D01*
X165203047Y-140140142D01*
X165155428Y-140187761D01*
X165060190Y-140235380D01*
X164774476Y-140235380D01*
X164679238Y-140187761D01*
X164631619Y-140140142D01*
X159567666Y-129329380D02*
X159567666Y-130043666D01*
X159520047Y-130186523D01*
X159424809Y-130281761D01*
X159281952Y-130329380D01*
X159186714Y-130329380D01*
X160043857Y-130329380D02*
X160043857Y-129329380D01*
X160424809Y-129329380D01*
X160520047Y-129377000D01*
X160567666Y-129424619D01*
X160615285Y-129519857D01*
X160615285Y-129662714D01*
X160567666Y-129757952D01*
X160520047Y-129805571D01*
X160424809Y-129853190D01*
X160043857Y-129853190D01*
X161472428Y-129662714D02*
X161472428Y-130329380D01*
X161234333Y-129281761D02*
X160996238Y-129996047D01*
X161615285Y-129996047D01*
X159567666Y-139235380D02*
X159567666Y-139949666D01*
X159520047Y-140092523D01*
X159424809Y-140187761D01*
X159281952Y-140235380D01*
X159186714Y-140235380D01*
X160043857Y-140235380D02*
X160043857Y-139235380D01*
X160424809Y-139235380D01*
X160520047Y-139283000D01*
X160567666Y-139330619D01*
X160615285Y-139425857D01*
X160615285Y-139568714D01*
X160567666Y-139663952D01*
X160520047Y-139711571D01*
X160424809Y-139759190D01*
X160043857Y-139759190D01*
X161520047Y-139235380D02*
X161043857Y-139235380D01*
X160996238Y-139711571D01*
X161043857Y-139663952D01*
X161139095Y-139616333D01*
X161377190Y-139616333D01*
X161472428Y-139663952D01*
X161520047Y-139711571D01*
X161567666Y-139806809D01*
X161567666Y-140044904D01*
X161520047Y-140140142D01*
X161472428Y-140187761D01*
X161377190Y-140235380D01*
X161139095Y-140235380D01*
X161043857Y-140187761D01*
X160996238Y-140140142D01*
X155797261Y-142724119D02*
X155702023Y-142676500D01*
X155606785Y-142581261D01*
X155463928Y-142438404D01*
X155368690Y-142390785D01*
X155273452Y-142390785D01*
X155321071Y-142628880D02*
X155225833Y-142581261D01*
X155130595Y-142486023D01*
X155082976Y-142295547D01*
X155082976Y-141962214D01*
X155130595Y-141771738D01*
X155225833Y-141676500D01*
X155321071Y-141628880D01*
X155511547Y-141628880D01*
X155606785Y-141676500D01*
X155702023Y-141771738D01*
X155749642Y-141962214D01*
X155749642Y-142295547D01*
X155702023Y-142486023D01*
X155606785Y-142581261D01*
X155511547Y-142628880D01*
X155321071Y-142628880D01*
X156702023Y-142628880D02*
X156130595Y-142628880D01*
X156416309Y-142628880D02*
X156416309Y-141628880D01*
X156321071Y-141771738D01*
X156225833Y-141866976D01*
X156130595Y-141914595D01*
X158329333Y-147835880D02*
X157996000Y-147359690D01*
X157757904Y-147835880D02*
X157757904Y-146835880D01*
X158138857Y-146835880D01*
X158234095Y-146883500D01*
X158281714Y-146931119D01*
X158329333Y-147026357D01*
X158329333Y-147169214D01*
X158281714Y-147264452D01*
X158234095Y-147312071D01*
X158138857Y-147359690D01*
X157757904Y-147359690D01*
X159281714Y-147835880D02*
X158710285Y-147835880D01*
X158996000Y-147835880D02*
X158996000Y-146835880D01*
X158900761Y-146978738D01*
X158805523Y-147073976D01*
X158710285Y-147121595D01*
X158329333Y-149740880D02*
X157996000Y-149264690D01*
X157757904Y-149740880D02*
X157757904Y-148740880D01*
X158138857Y-148740880D01*
X158234095Y-148788500D01*
X158281714Y-148836119D01*
X158329333Y-148931357D01*
X158329333Y-149074214D01*
X158281714Y-149169452D01*
X158234095Y-149217071D01*
X158138857Y-149264690D01*
X157757904Y-149264690D01*
X158710285Y-148836119D02*
X158757904Y-148788500D01*
X158853142Y-148740880D01*
X159091238Y-148740880D01*
X159186476Y-148788500D01*
X159234095Y-148836119D01*
X159281714Y-148931357D01*
X159281714Y-149026595D01*
X159234095Y-149169452D01*
X158662666Y-149740880D01*
X159281714Y-149740880D01*
X140295333Y-150566380D02*
X139962000Y-150090190D01*
X139723904Y-150566380D02*
X139723904Y-149566380D01*
X140104857Y-149566380D01*
X140200095Y-149614000D01*
X140247714Y-149661619D01*
X140295333Y-149756857D01*
X140295333Y-149899714D01*
X140247714Y-149994952D01*
X140200095Y-150042571D01*
X140104857Y-150090190D01*
X139723904Y-150090190D01*
X140628666Y-149566380D02*
X141247714Y-149566380D01*
X140914380Y-149947333D01*
X141057238Y-149947333D01*
X141152476Y-149994952D01*
X141200095Y-150042571D01*
X141247714Y-150137809D01*
X141247714Y-150375904D01*
X141200095Y-150471142D01*
X141152476Y-150518761D01*
X141057238Y-150566380D01*
X140771523Y-150566380D01*
X140676285Y-150518761D01*
X140628666Y-150471142D01*
X140295333Y-146502380D02*
X139962000Y-146026190D01*
X139723904Y-146502380D02*
X139723904Y-145502380D01*
X140104857Y-145502380D01*
X140200095Y-145550000D01*
X140247714Y-145597619D01*
X140295333Y-145692857D01*
X140295333Y-145835714D01*
X140247714Y-145930952D01*
X140200095Y-145978571D01*
X140104857Y-146026190D01*
X139723904Y-146026190D01*
X141152476Y-145835714D02*
X141152476Y-146502380D01*
X140914380Y-145454761D02*
X140676285Y-146169047D01*
X141295333Y-146169047D01*
X140295333Y-144470380D02*
X139962000Y-143994190D01*
X139723904Y-144470380D02*
X139723904Y-143470380D01*
X140104857Y-143470380D01*
X140200095Y-143518000D01*
X140247714Y-143565619D01*
X140295333Y-143660857D01*
X140295333Y-143803714D01*
X140247714Y-143898952D01*
X140200095Y-143946571D01*
X140104857Y-143994190D01*
X139723904Y-143994190D01*
X141200095Y-143470380D02*
X140723904Y-143470380D01*
X140676285Y-143946571D01*
X140723904Y-143898952D01*
X140819142Y-143851333D01*
X141057238Y-143851333D01*
X141152476Y-143898952D01*
X141200095Y-143946571D01*
X141247714Y-144041809D01*
X141247714Y-144279904D01*
X141200095Y-144375142D01*
X141152476Y-144422761D01*
X141057238Y-144470380D01*
X140819142Y-144470380D01*
X140723904Y-144422761D01*
X140676285Y-144375142D01*
X140295333Y-140406380D02*
X139962000Y-139930190D01*
X139723904Y-140406380D02*
X139723904Y-139406380D01*
X140104857Y-139406380D01*
X140200095Y-139454000D01*
X140247714Y-139501619D01*
X140295333Y-139596857D01*
X140295333Y-139739714D01*
X140247714Y-139834952D01*
X140200095Y-139882571D01*
X140104857Y-139930190D01*
X139723904Y-139930190D01*
X141152476Y-139406380D02*
X140962000Y-139406380D01*
X140866761Y-139454000D01*
X140819142Y-139501619D01*
X140723904Y-139644476D01*
X140676285Y-139834952D01*
X140676285Y-140215904D01*
X140723904Y-140311142D01*
X140771523Y-140358761D01*
X140866761Y-140406380D01*
X141057238Y-140406380D01*
X141152476Y-140358761D01*
X141200095Y-140311142D01*
X141247714Y-140215904D01*
X141247714Y-139977809D01*
X141200095Y-139882571D01*
X141152476Y-139834952D01*
X141057238Y-139787333D01*
X140866761Y-139787333D01*
X140771523Y-139834952D01*
X140723904Y-139882571D01*
X140676285Y-139977809D01*
D15*
X132016666Y-148486761D02*
X132159523Y-148534380D01*
X132397619Y-148534380D01*
X132492857Y-148486761D01*
X132540476Y-148439142D01*
X132588095Y-148343904D01*
X132588095Y-148248666D01*
X132540476Y-148153428D01*
X132492857Y-148105809D01*
X132397619Y-148058190D01*
X132207142Y-148010571D01*
X132111904Y-147962952D01*
X132064285Y-147915333D01*
X132016666Y-147820095D01*
X132016666Y-147724857D01*
X132064285Y-147629619D01*
X132111904Y-147582000D01*
X132207142Y-147534380D01*
X132445238Y-147534380D01*
X132588095Y-147582000D01*
X132921428Y-147534380D02*
X133159523Y-148534380D01*
X133350000Y-147820095D01*
X133540476Y-148534380D01*
X133778571Y-147534380D01*
X134683333Y-148534380D02*
X134111904Y-148534380D01*
X134397619Y-148534380D02*
X134397619Y-147534380D01*
X134302380Y-147677238D01*
X134207142Y-147772476D01*
X134111904Y-147820095D01*
X132016666Y-138834761D02*
X132159523Y-138882380D01*
X132397619Y-138882380D01*
X132492857Y-138834761D01*
X132540476Y-138787142D01*
X132588095Y-138691904D01*
X132588095Y-138596666D01*
X132540476Y-138501428D01*
X132492857Y-138453809D01*
X132397619Y-138406190D01*
X132207142Y-138358571D01*
X132111904Y-138310952D01*
X132064285Y-138263333D01*
X132016666Y-138168095D01*
X132016666Y-138072857D01*
X132064285Y-137977619D01*
X132111904Y-137930000D01*
X132207142Y-137882380D01*
X132445238Y-137882380D01*
X132588095Y-137930000D01*
X132921428Y-137882380D02*
X133159523Y-138882380D01*
X133350000Y-138168095D01*
X133540476Y-138882380D01*
X133778571Y-137882380D01*
X134111904Y-137977619D02*
X134159523Y-137930000D01*
X134254761Y-137882380D01*
X134492857Y-137882380D01*
X134588095Y-137930000D01*
X134635714Y-137977619D01*
X134683333Y-138072857D01*
X134683333Y-138168095D01*
X134635714Y-138310952D01*
X134064285Y-138882380D01*
X134683333Y-138882380D01*
D11*
X173017380Y-139271333D02*
X173731666Y-139271333D01*
X173874523Y-139318952D01*
X173969761Y-139414190D01*
X174017380Y-139557047D01*
X174017380Y-139652285D01*
X173017380Y-138890380D02*
X173017380Y-138271333D01*
X173398333Y-138604666D01*
X173398333Y-138461809D01*
X173445952Y-138366571D01*
X173493571Y-138318952D01*
X173588809Y-138271333D01*
X173826904Y-138271333D01*
X173922142Y-138318952D01*
X173969761Y-138366571D01*
X174017380Y-138461809D01*
X174017380Y-138747523D01*
X173969761Y-138842761D01*
X173922142Y-138890380D01*
X110783666Y-68532285D02*
X110783666Y-68056095D01*
X111069380Y-68627523D02*
X110069380Y-68294190D01*
X111069380Y-67960857D01*
X110164619Y-67675142D02*
X110117000Y-67627523D01*
X110069380Y-67532285D01*
X110069380Y-67294190D01*
X110117000Y-67198952D01*
X110164619Y-67151333D01*
X110259857Y-67103714D01*
X110355095Y-67103714D01*
X110497952Y-67151333D01*
X111069380Y-67722761D01*
X111069380Y-67103714D01*
M02*
